<?xml version="1.0" standalone="no"?>
<!DOCTYPE svg PUBLIC "-//W3C//DTD SVG 1.1//EN" "http://www.w3.org/Graphics/SVG/1.1/DTD/svg11.dtd" >
<svg xmlns="http://www.w3.org/2000/svg" xmlns:xlink="http://www.w3.org/1999/xlink" version="1.1">
<metadata>
Created by FontForge 20170731 at Sun Feb 26 10:48:21 2017
 By Aleksey,,,
Copyright (c) 2011 by Ricardo Rousselot. All rights reserved.
</metadata>
<defs>
<font id="iCielBambola" horiz-adv-x="418" >
  <font-face 
    font-family="iCiel Bambola"
    font-weight="400"
    font-stretch="normal"
    units-per-em="1000"
    panose-1="2 0 0 0 0 0 0 0 0 0"
    ascent="750"
    descent="-250"
    x-height="361"
    cap-height="714"
    bbox="-439 -420 1458 1029"
    underline-thickness="50"
    underline-position="-200"
    unicode-range="U+0009-FB02"
  />
<missing-glyph horiz-adv-x="0" 
 />
    <glyph glyph-name="l_l" unicode="ll" horiz-adv-x="437" 
d="M411 353l-125 -220q-19 -32 -19 -53q0 -24 22 -24q78 0 222 201q7 9 11 1q8 -21 8 -26q0 -10 -12 -27q-159 -211 -275 -211q-61 0 -61 62l-1 9q-80 -68 -145 -68q-64 0 -64 58q0 30 27 81q309 581 495 581q71 0 71 -57l-1 -4q61 55 107 55q25 0 38 -16q14 -16 14 -36
q0 -81 -101 -182q-105 -105 -211 -124zM490 680q-47 0 -118 -77q-110 -120 -294 -474q-13 -25 -13 -40q0 -25 25 -25q46 0 117 74q80 144 126 217q-61 18 -61 54q0 56 50 56q17 0 23 -14q0 1 -1.5 -0.5l-5.5 -5.5q-8 -8 -8 -19q0 -21 32 -23q62 104 116 164q23 27 37 41
q-2 -1 -7 -1q-38 0 -38 31q0 19 14 30q13 10 13 8q0 4 -7 4zM622 655q-57 -47 -187 -258q89 29 171 115q80 86 80 148q0 15 -18 15q-20 0 -46 -20z" />
    <glyph glyph-name="s_s" unicode="ss" horiz-adv-x="585" 
d="M128 235q-35 -46 -66 -77q-5 -6 -11 6q-5 12 -5 22q0 7 3 10q55 58 55 73q1 1 -4 12q-6 13 -6 25q0 48 29 89q29 39 59 39q28 -1 28 -26q0 -34 -25 -81l-26 -49l45 -33q44 -35 44 -72q0 -21 -8 -43q64 71 104 146q-10 10 -10 34q0 40 30 83q32 44 60 44q23 0 23 -26
q0 -57 -52 -127q97 -48 97 -122q0 -76 -96 -129q-3 0 -3 -2t4 -2q168 40 237 200q3 5 6 5q15 0 15 -27q0 -55 -87 -129q-98 -85 -213 -85q-117 0 -117 48q0 9 6 21q12 -27 62 -27q53 0 85 42q24 31 24 63q0 43 -47 105q-153 -245 -299 -245q-69 0 -69 45q0 17 9 17l7 -5
l10 -8q17 -13 46 -13q43 0 76 35q30 33 30 73q0 35 -50 91z" />
    <glyph glyph-name="r_r" unicode="rr" horiz-adv-x="723" 
d="M158 289q-22 -30 -38 -50.5t-27.5 -35t-17.5 -21t-7 -5.5q-5 5 -8 20t0 20q59 76 59 82q-25 12 -25 47q0 34 31 65q29 30 57 30q31 0 31 -35q0 -43 -28 -77q-3 -3 -2 -4q0 -1 1 -1q18 0 47 10q30 10 43 10q49 0 49 -47q0 -27 -58 -109q-59 -82 -59 -110q0 -21 19 -21
q57 0 141 94q76 85 103 154q2 2 -6 10q-9 11 -9 32q0 32 31 64q30 31 57 31q30 0 30 -35q0 -38 -27 -77q-3 -3 -2 -4q0 -1 4 -1q6 0 39 10q31 10 48 10t32 -12q17 -14 17 -35l1 -1q0 -27 -68 -122q-49 -67 -49 -97q0 -21 19 -21q82 0 222 195q2 2 3 2q8 0 8 -34
q0 -15 -32 -56q-125 -164 -248 -164q-60 0 -60 60q0 47 36 101l29 40q47 59 45 80q0 15 -14 15q-2 0 -22 -5t-32 -5q-4 0 -20 2q-46 -111 -139 -198q-98 -90 -184 -90q-60 0 -60 60q0 42 56 119q55 76 55 101q0 15 -14 15q-7 0 -26 -4q-21 -3 -31 -2z" />
    <glyph glyph-name="p_s" unicode="ps" horiz-adv-x="680" 
d="M749 223q12 -1 12 -27q-1 -58 -82 -126q-96 -81 -224 -81q-96 0 -138 57q-70 -70 -177 -70q-28 0 -45 17q-16 15 -16 36q0 5 5 7l30 11q55 21 107 94q52 71 52 124q0 46 -40 46q-59 0 -112 -92l-238 -413q-15 -26 -15 -44q0 -13 14 -13h1q3 0 3 -4q0 -2 -4 -5
q-32 -20 -59 -20q-22 0 -32.5 9.5t-9.5 28.5q2 20 107 202q50 86 165 286q33 57 33 81q0 20 -15 29q-3 2 -3 5t4 6q19 11 44 11q19 0 32 -13q12 -14 12 -32q0 -8 -3 -17q-2 -4 2 -1l6 6q50 47 109 47q76 0 76 -77q0 -74 -62 -163q-67 -93 -148 -110q-2 -1 -4 -3q1 -1 3 -2
q96 6 169 71q0 32 16 52q18 23 46 23q53 53 104 132q-2 14 -2 26q0 32 28 72q29 41 56 40q28 -1 28 -26q0 -35 -28 -76l-10 -15l-18 -27q0 -8 37 -58q36 -49 36 -85q0 -77 -56 -100q-3 0 -3 -2t4 -2q125 29 197 178q4 7 6 7zM352 66q14 -36 74 -36q34 0 67 33q36 35 36 79
q0 50 -31 116q-57 -72 -97 -121q5 -8 5 -19q1 -19 -11 -33t-29 -14q-9 0 -11 1q-5 0 -3 -6z" />
    <glyph glyph-name="f_r" unicode="fr" horiz-adv-x="639" 
d="M243 191q-216 -440 -339 -440q-54 0 -54 75q0 100 420 834q7 13 7 24q0 9 -7 15t-7 7q0 4 5 7q19 12 47 12q45 0 45 -32q0 -17 -13 -39l-245 -421q-206 -355 -206 -415q0 -25 17 -25q76 0 294 413q-21 22 -21 87q0 33 16 64q19 40 49 40q35 0 35 -60q0 -41 -17 -86
l-10 -26q0 -7 18 -7q57 0 116 80q-20 20 -20 48q0 34 26 65q25 30 52 30q31 0 31 -38q0 -43 -25 -74q-3 -3 -2 -4q0 -1 1 -1q18 0 47 10q30 10 43 10q49 0 49 -47q0 -27 -68 -122q-49 -67 -49 -97q0 -21 19 -21q83 0 222 195q2 2 3 2q8 0 8 -34q0 -15 -32 -56
q-125 -164 -248 -164q-60 0 -60 60q0 47 36 101l29 40q46 58 46 79q0 15 -14 15q-4 0 -27 -5q-20 -4 -30 -3q-24 -41 -68 -74q-44 -32 -81 -32q-28 0 -38 10z" />
    <glyph glyph-name="j_j" unicode="jj" horiz-adv-x="374" 
d="M-328 -252q58 0 124 75q31 35 109 150q112 167 190 328q7 15 7 25q0 9 -7 15t-7 7q0 14 44 19q57 0 57 -35q0 -15 -12 -36q-176 -309 -211 -364q-44 -70 -91 -120q24 -12 44 -12q58 0 103 47q23 25 63 95q204 354 207 359q7 11 7 25q0 9 -7 15t-7 7q0 14 44 19
q57 0 57 -35q0 -15 -12 -36q-47 -84 -189 -325q-125 -207 -258 -207q-33 0 -77 24q-85 -77 -175 -77q-51 0 -85 32q-29 31 -29 70q0 36 20 61q20 23 49 23q21 0 35 -13q14 -14 14 -29q0 -46 -45 -46q-17 0 -30 13q-6 6 -6 -3q0 -32 19 -51q22 -20 55 -20zM465 507
q0 -24 -20 -46q-21 -22 -46 -22q-34 0 -34 31q0 26 22 48q21 22 48 22q30 0 30 -33zM268 507q0 -24 -20 -46q-21 -22 -46 -22q-34 0 -34 31q0 26 22 48q21 22 48 22q30 0 30 -33z" />
    <glyph glyph-name="f_j" unicode="fj" horiz-adv-x="498" 
d="M419 300l6 10q3 8 3 16q0 9 -7 15t-7 7q0 2 6 7q16 10 38 12h8q49 0 49 -35q0 -15 -12 -36q-47 -84 -189 -325q-124 -207 -258 -207q-28 0 -55 12q-38 -26 -68 -26q-54 0 -54 75q0 101 420 834q7 13 7 24q0 9 -7 15t-7 7q0 4 5 7q19 12 47 12q45 0 45 -32q0 -17 -13 -39
l-245 -421q-206 -355 -206 -415q0 -25 17 -25q52 0 177 203q39 65 82 143l38 71q-18 18 -21 48q-8 49 5 83q20 56 57 56q31 0 35 -49q3 -43 -17 -97l-10 -25q7 -3 23 -3q63 0 108 78zM310 184q-24 0 -39 5q-142 -292 -239 -386q9 -3 16 -3q58 0 103 47q23 25 63 95
q104 182 146 253q-25 -11 -50 -11zM594 507q0 -24 -20 -46q-21 -22 -46 -22q-34 0 -34 31q0 26 22 48q21 22 48 22q30 0 30 -33z" />
    <glyph glyph-name="g_j" unicode="gj" horiz-adv-x="547" 
d="M388 288q-8 -9 -134 -243q-92 -166 -170 -238q21 -7 31 -7q58 0 103 47q23 25 63 95q204 354 207 359q7 11 7 25q0 9 -7 15t-7 7q0 2 6 7q16 10 38 12h8q49 0 49 -35q0 -15 -12 -36q-47 -84 -189 -325q-125 -207 -258 -207q-32 0 -68 18q-76 -57 -160 -57q-58 0 -90 32
q-29 29 -29 69q0 36 20 62q21 25 52 25q20 0 34 -15q12 -14 12 -30q0 -18 -12 -31q-14 -15 -33 -15q-17 0 -30 13q-6 6 -6 -3q0 -70 81 -70q112 0 240 224l25 45q-49 -35 -91 -35q-39 0 -60 25q-19 22 -19 56q0 87 87 185q91 103 186 103q47 0 65 -37q28 37 66 37
q49 0 49 -23q0 2 -13 -8q-18 -13 -41 -46zM75 107q0 -48 36 -48q19 0 48 18q37 24 60 65l74 130q5 12 5 18q0 39 -40 39q-49 0 -117 -86q-66 -84 -66 -136zM661 507q0 -24 -20 -46q-21 -22 -46 -22q-34 0 -34 31q0 26 22 48q21 22 48 22q30 0 30 -33z" />
    <glyph glyph-name="t_t" unicode="tt" horiz-adv-x="477" 
d="M548 383q3 0 3 -6q-11 -48 -58 -48h-66q-52 -88 -113 -196q-20 -35 -20 -53q0 -23 18 -23q82 0 222 195q2 2 3 2q8 0 8 -34q0 -15 -32 -56q-125 -164 -249 -164q-65 0 -65 59q0 9 3 20q-88 -79 -170 -79q-65 0 -65 59q0 50 145 270l-51 1q-13 0 -20 -4q-7 -3 -8 1
q-1 2 1 7q4 9 10 18q10 16 28 21q16 3 69 2q38 63 45 88q5 14 -3 22q-6 7 -3 9q16 12 39 12q52 0 52 -35q0 -15 -12 -36q-2 -4 -35 -60h149q38 63 45 88q5 14 -3 22q-6 7 -3 9q16 12 39 12q52 0 52 -35q0 -15 -12 -36q-2 -4 -35 -60h3q25 0 42 -1q39 0 47 9zM80 57
q69 0 180 139q42 70 84 133h-149q-52 -88 -113 -196q-20 -35 -20 -53q0 -23 18 -23z" />
    <glyph glyph-name="g_g" unicode="gg" horiz-adv-x="695" 
d="M111 -181q0 16 5 36q-111 -138 -233 -138q-57 0 -88 34q-26 29 -26 68q0 37 21 62q20 24 51 24q20 0 34 -14q12 -13 12 -30t-12 -31q-13 -15 -33 -15q-17 0 -30 13q-6 6 -6 -3q0 -71 74 -71q85 0 183 134q51 69 81 134q1 1 0 2q-1 0 -2 -1q-47 -40 -111 -40q-30 0 -49 25
q-17 23 -17 58q0 94 94 194q96 104 192 104q23 0 43 -14q16 -11 19 -23q18 36 66 36q50 0 50 -21q0 1 -1.5 0t-5.5 -3t-9 -5q-22 -13 -43 -46q-19 -32 -178 -322q-17 -29 -45 -70q16 10 38 10q21 0 34 -15q12 -13 12 -30t-12 -31q-13 -15 -33 -15q-19 0 -32 13q-6 6 -6 -3
q0 -71 79 -71q85 0 183 134q51 69 81 134q1 1 0 2q-1 0 -2 -1q-47 -40 -111 -40q-30 0 -49 25q-17 23 -17 58q0 94 94 194q96 104 192 104q23 0 43 -14q15 -12 18 -23q18 36 67 36q50 0 50 -21q0 1 -1.5 0t-5.5 -3t-9 -5q-22 -13 -43 -46q-24 -37 -178 -322
q-142 -250 -309 -250q-57 0 -90 34q-29 29 -29 69zM47 87q0 -48 35 -48q26 0 63 31q37 32 63 75l56 101q18 32 18 52q0 32 -37 32q-49 0 -124 -96q-74 -95 -74 -147zM394 87q0 -48 35 -48q26 0 63 31q38 32 63 75l56 101q18 32 18 51q0 32 -37 32q-49 0 -124 -96
q-74 -94 -74 -146z" />
    <glyph glyph-name="z_z" unicode="zz" horiz-adv-x="668" 
d="M692 339q-65 -157 -173 -229q42 -28 42 -89q0 -29 -14 -59q49 -22 49 -60q0 -26 -17 -43t-35 -17q-25 0 -31 16q26 6 26 33q0 18 -15 24q-44 -83 -143 -157q-101 -74 -171 -74q-83 0 -83 67q0 81 123 155q116 68 224 68q22 45 22 68q0 24 -17 36q-62 -35 -94 -35
q-35 0 -35 28q0 21 30 37q30 18 61 19q18 1 37 -2q90 63 143 155l1 3q-1 0 -3 -2q-102 -102 -200 -102h-9l-1 -1q-90 -118 -174 -156q0 -94 -132 -213q-130 -115 -226 -115q-80 0 -80 72q0 68 130 158q38 26 241 106q5 20 5 27q0 25 -15 34q-50 -31 -96 -31q-28 0 -28 24
t36 41q33 14 68 14q18 0 22 -1q84 60 128 141q2 3 1 3q0 1 -3 -2q-88 -88 -193 -88q-53 0 -53 53q0 44 35 97q36 54 73 54q25 0 25 -32q0 -63 -54 -117l-4 -4h1q45 0 140 68q86 63 87 67q12 0 19 -7q8 -7 4 -19q-70 -168 -172 -235q34 -17 39 -57q83 44 143 137
q-10 10 -10 35q0 43 41 101q40 58 79 58q25 0 25 -32q0 -59 -66 -125l-3 -4q47 0 141 68q86 63 86 67q12 0 19 -7q8 -7 4 -19zM-124 -269q54 0 142 80q87 79 132 171q1 1 -12.5 -3.5t-43.5 -16.5q-64 -26 -120 -54q-58 -30 -98 -71q-42 -43 -42 -73q0 -33 42 -33zM207 -279
q66 0 159 100q82 88 82 114q0 1 -7 1q-67 0 -168 -60q-109 -64 -109 -125q0 -30 43 -30z" />
    <glyph glyph-name="o_o" unicode="oo" horiz-adv-x="637" 
d="M527 90q-85 -91 -158 -91q-39 0 -61 25q-20 23 -20 56q0 12 5 37q-38 -20 -75 -20q-74 -98 -163 -98q-81 0 -81 81q0 87 86 185q92 102 187 102q72 0 72 -66q0 -67 -71 -162q41 14 70 44q40 75 105 127q71 57 138 57q33 0 53 -18q20 -17 20 -44q0 -83 -71 -171
q51 3 135 106q4 4 7 4q12 0 12 -26q0 -12 -3 -16q-75 -112 -187 -112zM99 50q39 0 79 52q-43 27 -43 100q0 35 9 67q-87 -96 -87 -176q0 -43 42 -43zM459 270q-88 -97 -88 -178q0 -42 41 -42q34 0 80 52q-44 26 -44 105q0 36 11 63zM525 141q75 93 75 150q0 41 -36 41
q-30 0 -50 -38q-17 -36 -17 -80q0 -55 28 -73zM280 296q-2 36 -35 36q-29 0 -47 -30t-18 -75q0 -67 24 -86q76 86 76 155z" />
    <glyph glyph-name="L_l" unicode="Ll" horiz-adv-x="719" 
d="M984 680q-47 0 -118 -77q-110 -120 -294 -474q-13 -25 -13 -40q0 -25 25 -25q73 0 213 197q1 1 4 -4q1 -1 1 -2q3 -9 3 -19q0 -11 -8 -29q-34 -60 -100 -123q-91 -87 -167 -87q-64 0 -64 58q0 30 27 81q309 581 495 581q68 0 68 -57q0 -19 -12 -34q-15 -19 -42 -19
q-38 0 -38 31q0 19 14 30q13 10 13 8q0 4 -7 4zM-3 93q59 0 97 -15q97 69 171 227q-99 0 -159 54q-56 51 -56 125q0 71 56 127q52 52 113 52q53 0 78 -28q20 -23 20 -56q0 -25 -17 -45t-42 -20q-50 0 -50 49q0 36 22 40q7 1 7 7q0 4 -13 4q-44 0 -81 -36q-42 -40 -42 -93
q0 -50 44 -85q48 -39 128 -39h17q84 175 186 267q91 80 173 80q33 0 53 -24q17 -23 17 -55q0 -91 -96 -186q-107 -106 -266 -137q-112 -198 -209 -252q14 -6 178 -101q109 -62 172 -62q36 0 59 17q20 14 20 33q0 13 -10 20q-2 2 8 3q11 3 15 3q21 0 38 -17q20 -20 20 -55
q0 -47 -37 -78q-38 -33 -98 -33q-103 0 -231 101q-149 118 -195 133q-53 -31 -146 -31q-25 0 -42 12q-17 14 -17 30q0 20 30 41q35 23 85 23zM668 623q0 36 -36 36q-91 0 -247 -287q106 22 196 103q87 79 87 148z" />
    <glyph glyph-name="T_h" unicode="Th" horiz-adv-x="896" 
d="M610 509q0 -1 -3 -3q-64 -43 -127 -160l-1 -1v-1l-1 -2l-1 -1v-1l-1 -1v-1l-1 -1l-1 -2v-1l-1 -1l-1 -1v-1l-1 -1v-2l-1 -1l-1 -1v-1l-1 -1l-1 -1v-2l-1 -1v-1l-1 -1l-1 -1v-1l-1 -1l-1 -2v-1l-1 -1v-1l-1 -1l-1 -1v-1l-1 -2l-1 -1v-1l-1 -1v-1l-1 -1l-1 -1v-2l-1 -1v-1
l-1 -1l-1 -1v-1l-1 -1v-1l-1 -1l-1 -2v-1l-1 -1v-1l-1 -1l-1 -1v-1l-1 -1v-1l-1 -1l-1 -2v-1l-1 -1v-1l-1 -1v-1l-1 -1l-1 -1v-1l-1 -1v-1l-1 -1l-1 -2v-1l-1 -1v-1l-1 -1v-1l-1 -1l-1 -1v-1l-1 -1v-1l-1 -1v-1l-1 -1v-1l-1 -1l-1 -1v-1l-1 -2v-1l-1 -1v-1l-1 -1v-1l-1 -1
l-1 -1v-1l-1 -1v-1l-1 -1v-1l-1 -1v-1l-1 -1l-56 -104q-109 -169 -255 -169q-49 0 -78 26q-28 24 -28 64q0 30 22 51q21 21 47 21q52 0 52 -42q0 -15 -11 -32q-14 -17 -30 -17q-9 0 -19 2l-7 2q-3 0 -3 -5q0 -7 17 -15q18 -8 35 -8q90 0 149 86q56 81 126 247q28 67 86 120
q67 59 134 59q12 0 12 -6zM968 263q3 4 5 4q6 0 6 -16q0 -15 -7 -28q-116 -219 -245 -219q-64 0 -64 52q0 19 94 206q6 12 6 21q0 22 -24 22q-31 0 -83 -48q-132 -132 -132 -212q0 -12 10 -16q9 -6 9 -7q0 -20 -64 -20q-44 0 -44 38q0 27 93 187q105 180 200 312
q-48 -13 -75 -13q-44 0 -143 42t-180 42q-84 0 -148 -76q-59 -68 -59 -129q0 -65 37 -96q27 -24 61 -24q4 0 5 4q0 4 -5 4q-4 0 -12 11q-7 10 -7 20q0 49 52 49q22 0 37 -18q13 -16 13 -36q0 -35 -30 -59q-26 -22 -58 -22q-47 0 -87 35q-51 43 -51 126q0 101 78 187
q89 95 221 95q60 0 171 -51q112 -51 155 -51q37 0 77 31l60 75q46 49 88 49q22 0 22 -33q0 -60 -146 -143q-15 -17 -83 -121l-87 -154q0 -3 4 1q71 77 151 77q25 0 42 -18q18 -18 18 -45q0 -31 -50 -114t-50 -97q0 -27 22 -27q41 0 111 81q50 61 86 122z" />
    <glyph glyph-name="W_h" unicode="Wh" horiz-adv-x="1158" 
d="M784 397q20 -15 85 -15h12l24 38q182 293 288 293q20 0 33 -13q15 -14 15 -36q0 -89 -91 -186q-93 -101 -214 -129q-1 -2 -15.5 -26.5t-25.5 -42.5q-1 -1 -0.5 -1.5t1.5 0.5q2 0 3 1q71 77 151 77q26 0 42 -18q18 -18 18 -45q0 -31 -50 -114t-50 -97q0 -27 22 -27
q66 0 182 198q6 10 16 -7q11 -17 0 -37q-113 -212 -241 -212q-28 0 -46 15q-19 15 -19 39q0 19 94 206q6 12 6 21q0 22 -24 22q-30 0 -83 -48q-132 -132 -132 -212q0 -12 10 -16q9 -6 9 -7q0 -20 -64 -20q-44 0 -44 38q0 43 158 303q-55 3 -83 17q-13 -40 -54 -120
q-66 -137 -147 -215q-68 -67 -123 -67q-74 0 -74 102q-1 3 -2 3q-84 -98 -177 -98q-37 0 -62 31q-29 35 -29 92q0 190 305 495q-49 -10 -122 6q-85 19 -121 19q-93 0 -152 -66q-53 -61 -53 -137q0 -52 31 -74l5 -2q5 0 3 5q-9 22 5 40q13 19 40 19q20 0 33 -15
q14 -16 14 -35q0 -29 -19 -48q-20 -20 -48 -20q-43 0 -74 34q-36 41 -36 111q0 102 81 175q85 78 218 78q40 0 106 -22t103 -22q34 0 60 21q26 20 28 20q6 0 10 -7q5 -7 4 -13q-2 -15 -69 -87q-266 -295 -266 -436q0 -78 75 -78q33 2 77 38q40 31 40 44q9 61 45 149
q78 187 142 187q50 0 -34 -164q-26 -49 -63 -114l-32 -54q0 -88 52 -88q61 0 136 119q63 103 109 223q-49 65 -49 141q0 89 54 89q35 0 52 -53q19 -63 -9 -165zM1125 514q71 80 71 139q0 14 -13 14q-51 -2 -214 -265q86 34 156 112z" />
    <glyph glyph-name="b_s" unicode="bs" horiz-adv-x="636" 
d="M449 674q-33 0 -103 -85q-66 -78 -134 -194q80 33 168 124q87 90 87 137q0 18 -18 18zM418 269q-3 46 39 95q39 45 69 45q23 0 23 -26q0 -18 -26 -58q-28 -40 -51 -56q1 1 9.5 -8t24.5 -28q36 -44 36 -85q0 -62 -54 -101q-3 -3 -3 -5t5 -2q69 8 142 96q26 31 47 64l26 39
q2 2 3 2q11 0 11 -34q0 -11 -4 -18q-70 -120 -145 -161q-58 -33 -155 -33q-51 0 -79 19q-26 17 -26 39q0 21 14 21q-4 0 13 -17t43 -17q44 0 70 33q24 30 24 78q0 46 -32 90q-59 -89 -144 -89q-21 0 -40 8q-34 -57 -97 -106q-74 -56 -136 -56q-74 0 -74 65q0 25 151 284
q-55 10 -55 59q0 22 15 39q13 16 31 16q23 0 30 -12q9 -12 3 -12q-26 0 -26 -22q0 -16 25 -26q214 322 324 322q21 0 38 -15q17 -17 17 -40q0 -74 -124 -189q-122 -113 -191 -114q-156 -271 -156 -285q0 -22 21 -22q44 0 105 55q54 50 67 82q-3 -6 -3 33t21 81q34 66 70 66
q26 0 26 -32q0 -46 -28 -93q-27 -48 -28 -45q4 -4 21 -4q74 0 113 80z" />
    <glyph glyph-name=".notdef" horiz-adv-x="0" 
 />
    <glyph glyph-name=".null" horiz-adv-x="0" 
 />
    <glyph glyph-name="nonmarkingreturn" horiz-adv-x="140" 
 />
    <glyph glyph-name="NULL" horiz-adv-x="0" 
 />
    <glyph glyph-name="NULL" horiz-adv-x="0" 
 />
    <glyph glyph-name="space" unicode="&#x9;" horiz-adv-x="333" 
 />
    <glyph glyph-name="space" unicode=" " horiz-adv-x="333" 
 />
    <glyph glyph-name="uni001D" horiz-adv-x="1457" 
d="M399 96q-31 -56 -69 -72h16q61 9 91 49q6 7 6 13h3q-17 -50 -64 -63q-11 -3 -36 -5l-25 -1q-15 -2 -36 -6l-23 -4q-23 0 -23 7q0 10 32 10h38q15 0 18 3q25 12 63 96q39 89 74 119q4 4 32 26q3 0 3 2q0 1 -3 1q-2 0 -109 27q-43 -117 -130 -190q-77 -65 -146 -65
q-96 0 -96 75v9q5 35 28 68l5 7q0 3 3 3q0 3 -3 6q-12 17 -12 50q-1 81 74 150q76 68 158 68q46 0 78 -23q44 -33 46 -104l-2 -31q123 -40 130 -40q52 37 125 37q27 0 38 -4q19 19 19 38t-13 28q15 -30 18 -30q1 0 1 5q0 -15 -8 -29q-8 -12 -11 -12q13 0 24 -10
q15 -12 15 -30q-4 0 -4 3q3 7 -8 18q-15 12 -33 13q-74 -64 -172 -40q-41 -32 -59 -66q-9 -16 -30 -59q-19 -41 -23 -47zM562 293q-6 -2 -15 -6l-14 -6q15 -7 44 -7q40 0 72 17q25 13 25 20h-34q-18 0 -22 -3l-31 -7q-13 -3 -25 -8zM48 274q0 -24 7 -37l13 -13
q102 103 241 103q33 0 68 -6v22q0 49 -15 71q1 -3 -1 1q-1 1 -3 5q-4 5 -6 9q-10 7 -13 13q-25 22 -74 26h-13q-71 0 -136 -61q-68 -62 -68 -133zM118 58q96 0 181 99q72 85 72 144q-28 4 -79 4q-137 0 -224 -87q21 -32 65 -32q69 0 112 40q34 31 34 58h4q0 -36 -48 -71
q-50 -35 -108 -35q-45 0 -72 27q0 -3 -4 -7q-3 -3 -3 -6q-14 -21 -17 -37q-3 -11 -3 -22q-3 -43 34 -62q23 -13 56 -13zM1458 251q0 -44 -26 -76q-27 -32 -64 -32q-6 0 -9 1l-7 1q-4 0 -4 3h13q44 0 70 35q20 29 20 65q0 38 -28 63t-75 25q-58 0 -105 -35q9 -16 9 -64
q0 -52 -33 -115q-45 -87 -133 -132q3 -8 3 -16q0 -65 -57 -116q-68 -59 -183 -59q-95 0 -212 55q-67 -102 -163 -102q-51 -1 -73 30q-9 15 -11 33h-10q-64 0 -81 47q-135 0 -138 90q0 38 39 73q36 33 74 33q25 0 28 -6l-10 2l-16 1q-32 -3 -64 -29q-36 -30 -36 -68
q0 -51 59 -74q32 -13 61 -13q-4 13 0 19q8 48 58 79q52 34 133 34q19 0 40 -7q34 43 72 140q-84 -84 -147 -106q-7 -7 -9 -10q-9 -9 -16 -3q-3 4 6 13q10 0 16 3q24 13 62 78q35 62 35 87q0 20 -16 20q-20 0 -48 -27q-30 -29 -39 -58h-3q-3 0 -3 3q11 31 44 62q37 36 65 36
q21 0 21 -26q0 -65 -103 -168q43 10 131 100l24 34q8 12 13 19q22 30 51 41q-10 -21 -31 -45l-25 -28q-8 -11 -12 -28l-25 -63q-21 -43 -44 -74q14 -5 62 -19q11 14 110 225q-97 -55 -95 -132h-2l2 -3v-9l-2 4v3q0 2 -3 2v16q0 43 52 88q41 37 54 37q62 113 119 113
q8 0 8 -7q0 -27 -106 -90q0 -3 -19 -42l-24 -52l12 13l29 29q44 41 90 65h3q0 -3 -3 -3q-20 -10 -31 -86q-10 -74 -81 -105q51 0 109 37q3 14 3 16q6 27 28 62q33 33 35 34l10 10v22q-3 52 53 108q64 61 155 61q59 0 98 -41q21 -21 28 -41q47 35 105 35q53 2 83 -26
q30 -27 30 -69zM771 261q-13 -20 -20 -27q5 0 41 27q38 29 38 40q0 4 -6 4q-23 0 -53 -44zM909 224q0 -5 2 -19q2 0 24 16q24 17 30 18h2v-2q-28 -13 -28 -19q0 6 13 6q7 0 7 -19q3 -19 -17 -37q13 -10 37 -10q66 2 178 91q36 29 51.5 40.5t15.5 9.5q-38 81 -121 81
q-81 0 -139 -54q-55 -49 -55 -102zM936 195q0 16 -7 16q-18 -9 -15 -13q3 -15 19 -24q6 9 3 21zM909 195q-50 -52 -58 -99q37 15 72 62q3 3 6 10q-16 14 -20 27zM833 58h-3q-80 -32 -128 -108q63 -26 137 -26q51 3 97 37q-21 1 -48 14q-49 25 -55 83zM849 65q0 -3 0.5 -6
t1 -4.5t0.5 -2.5q13 -72 98 -82q30 26 30 54q0 53 -77 53q-15 0 -37 -5q-16 -4 -16 -7zM793 205q-90 -52 -125 -153l5 3q5 3 7 3q-2 0 3 -6t19 -6q49 0 75 62q4 14 7 55q2 30 9 42zM665 43l-42 -69l69 -22q58 84 138 113v8l-25 -13l-18 -7q-48 -20 -82 -20q-26 0 -40 10z
M315 -129q123 9 202 112q-50 10 -60 10q-74 0 -116 -43q-29 -32 -29 -60q0 -16 3 -19zM392 -173q8 23 30 42q46 39 127 30q21 18 50 62q-60 19 -69 19q-97 -109 -213 -115q15 -38 75 -38zM537 -113q-70 13 -108 -22q-19 -18 -24 -38q75 9 132 60zM627 -142q-82 29 -84 29
q-49 -51 -138 -72q2 -15 12 -28q21 -27 66 -25q84 0 144 96zM636 -129q44 62 44 66l-68 21q-24 -29 -57 -61q72 -26 81 -26zM1082 -30v10l-2 7q0 -1 -48 -15q-53 -16 -86 -11q-64 -48 -141 -49q-51 0 -116 25q0 -6 -44 -70q158 -58 223 -58q111 0 169 64q44 47 45 97z
M1086 -4l25 16q30 20 53 44q76 76 76 183q0 32 -13 54q-27 -20 -65 -49q-121 -92 -186 -92q-20 0 -37 9q-23 -35 -90 -75v-16q30 13 72 13q67 0 75 -50q0 -25 -37 -66h24q24 0 62 13q7 2 18 6l17 7q0 2 -3 8l-3 6q-13 25 -32 30q21 0 44 -41zM570 612v-76h-6v16l-47 53h-53
v-122h29l34 35v21h3v-122h-3v22l-34 34h-29v-134h53l53 63v19h7v-88h-178v6h21v266h-21v7h171zM1015 602l-32 -37l-54 -119v-110h23v-3h-88v3h22v110l-75 156h-18v3h90v-3h-22l65 -147l50 112l-14 35h-23v6h94v-6h-18zM602 612h78q138 0 138 -136q0 -143 -140 -143h-76v6h19
q0 212 2 266h-21v7zM668 339h12q91 0 91 140q0 85 -39 114q-18 12 -54 12h-10v-266z" />
    <glyph glyph-name="exclam" unicode="!" horiz-adv-x="328" 
d="M136 35q30 45 -1 69q-16 12 -38 7q-22 -6 -37 -28q-16 -23 -16 -46q1 -20 18 -31q40 -20 74 29zM438 661q48 0 48 -22q0 -1 -30 -21q-39 -26 -113 -179q-126 -256 -211 -256q-13 0 -13 5l15 10q75 52 142 262q39 124 84 169q32 32 78 32z" />
    <glyph glyph-name="quotedbl" unicode="&#x22;" horiz-adv-x="248" 
d="M151 510q11 -8 22 -8q19 0 37 15t21 34q0 -5 -21 -5q-22 0 -22 29q0 27 21 48q22 20 47 20q18 0 30 -15q10 -13 10 -29q0 -45 -37 -89q-37 -46 -78 -46q-36 0 -36 32q0 6 6 14zM277 510q11 -8 21 -8q20 0 38 15t21 34q0 -5 -21 -5q-23 0 -23 29q0 27 21 48q22 20 48 20
q18 0 30 -15q10 -13 10 -29q0 -45 -37 -89q-37 -46 -78 -46q-36 0 -36 32q0 6 6 14z" />
    <glyph glyph-name="numbersign" unicode="#" horiz-adv-x="833" 
d="M360 254l-27 -46q-31 -52 -31 -66q0 -21 18 -21q4 1 5.5 -1t0.5 -6q-2 -9 -20 -18q-22 -14 -54 -6q-41 11 -40 42q1 35 70 129q-35 4 -81 5q-36 1 -82 4l-20 -37q-61 -99 -36 -111q8 -4 -2 -14q-11 -9 -32 -9q-29 0 -43.5 10.5t-13.5 32.5q2 28 69 134q-14 2 -22 3
q-23 2 -47 -27q-2 -2 -4 -2q-7 0 -6 13q2 13 12 30q26 42 62 42l39 -1q30 53 59 98l-48 3q-23 1 -39 -10l-13 -12q-10 0 -9 13q1 10 14 27q30 40 67 40l61 -2q10 20 21 41q6 10 6 21q0 12 -10 16q-11 6 -11 7q0 4 19 10q18 7 38 7q49 0 49 -34q0 -12 -11 -36l-20 -39l157 -6
l21 42q14 23 14 30q0 10 -6 14t-6 6q0 4 3 5q23 12 58 -2q27 -9 27 -37q0 -12 -6 -22l-21 -43q45 -3 75 46q5 5 10 -7q3 -9 3 -16q0 -23 -17 -46q-31 -38 -101 -34h-3q-28 -48 -67 -104l26 -2q59 -4 100 37q3 3 4 -1q2 -6 1 -8q-6 -28 -28 -50q-31 -34 -84 -34zM214 426
l-60 -98l161 -13l55 105q-24 1 -76 3q-50 1 -80 3z" />
    <glyph glyph-name="dollar" unicode="$" horiz-adv-x="590" 
d="M184 1q-19 0 -24 1l-70 -133h-47l74 140q-106 28 -106 127q0 32 23 61q28 34 77 34q27 0 46 -17q16 -15 16 -37q0 -21 -11 -35q-13 -16 -32 -16q-38 0 -38 34q0 16 12 22q5 8 -3 8q-18 0 -33 -15q-16 -16 -16 -37q0 -36 28 -63q34 -34 105 -34q79 0 128 43q44 38 44 86
q0 55 -80 140t-80 147q0 75 68 134q71 60 164 60q4 0 28 -2l60 112h45l-64 -121q88 -30 88 -111q0 -40 -25 -66q-25 -27 -64 -27q-62 0 -62 53q0 20 13 33q14 15 33 15q18 0 28 -13q11 -14 6 -29q-1 -2 0 -3t5 -1q22 0 22 37q0 33 -28 55q-32 24 -85 24q-64 0 -111 -35
q-46 -34 -46 -80q0 -54 82 -146q81 -93 81 -151q0 -81 -71 -137q-74 -57 -180 -57z" />
    <glyph glyph-name="percent" unicode="%" horiz-adv-x="655" 
d="M577 626q1 1 1 4q0 4 -2 4q-1 0 -3 -2q-118 -165 -245 -190q-78 -107 -162 -107q-69 0 -69 70q0 76 76 161q80 89 161 89q63 0 63 -54q0 -52 -46 -123q88 13 235 209q5 5 8 5q10 0 18 -17q9 -18 9 -36q0 -13 -6 -21l-74 -97q-68 -89 -85 -111q-227 -308 -230 -374
q-1 -26 20 -34q-24 -29 -72 -29q-53 0 -53 50q0 73 199 296q231 259 257 307zM620 266q0 -73 -76 -167q-81 -99 -155 -99q-69 0 -69 70q0 76 76 161q80 89 161 89q63 0 63 -54zM435 44q45 0 103 84q55 79 55 130q0 32 -32 32q-45 0 -103 -76q-59 -76 -59 -133q0 -37 36 -37z
M212 379q35 0 86 65q-28 12 -28 41q0 19 13 32q14 14 31 14q18 0 32 -11q24 48 24 73q0 32 -32 32q-45 0 -103 -76q-59 -76 -59 -133q0 -37 36 -37z" />
    <glyph glyph-name="ampersand" unicode="&#x26;" horiz-adv-x="944" 
d="M828 480q31 0 50 -25q20 -25 20 -58q0 -73 -57 -114q-55 -39 -150 -39q-23 0 -86 4q-36 2 -36 -5q0 1 9 -3q7 -3 19 -13q28 -25 28 -65q0 -68 -61 -113q-63 -48 -162 -48q-122 0 -189 48q-69 49 -69 141q0 142 183 210q-13 16 -13 51q0 87 87 157q85 69 191 69
q85 0 132 -47q40 -40 40 -97q0 -42 -25 -67q-23 -23 -53 -23q-23 0 -39 16q-19 16 -19 40q0 19 17 33t34 14q35 0 35 -35q0 -5 6 -3q5 2 5 19q0 107 -133 107q-77 0 -138 -58q-63 -58 -63 -134q0 -13 2 -25q48 15 91 15q53 0 85 -20q29 -18 29 -43q0 -59 -114 -59
q-82 0 -134 55q-129 -69 -129 -175q0 -62 48 -98q47 -35 132 -35q64 0 109 36q42 33 42 75q0 61 -53 61q-36 0 -53 -41q-13 1 -13 23q0 43 59 63q31 10 131 21q92 10 133 27q62 26 63 79v3q0 37 -32 37q-7 0 -15 -6q-6 -5 -6 -6q0 20 16 35q17 16 46 16zM483 404
q-45 0 -81 -18q4 -13 34 -26q31 -15 59 -15q55 0 55 24q0 13 -16 23q-20 12 -51 12z" />
    <glyph glyph-name="quotesingle" unicode="'" horiz-adv-x="161" 
d="M114 639q23 -11 24 -35q2 -19 -7 -35q-38 -83 -97 -99h-6q-11 6 -7 16l3 2q36 2 61 54q4 13 -3 17l-8 1q-4 1 -10 3q-27 11 -10 49q21 45 60 27z" />
    <glyph glyph-name="parenleft" unicode="(" horiz-adv-x="375" 
d="M190 -87l-7 -7q-6 -8 -8 -3q-27 42 -27 166q0 271 221 501q83 86 172 141q80 50 118 50q9 0 10 -9q-165 -83 -322 -329q-162 -257 -162 -456q0 -31 5 -54z" />
    <glyph glyph-name="parenright" unicode=")" horiz-adv-x="493" 
d="M357 750l7 7q6 8 8 3q27 -42 27 -166q0 -262 -221 -497q-85 -88 -172 -143q-79 -52 -118 -52q-8 0 -10 9q164 82 322 330q162 255 162 455q0 31 -5 54z" />
    <glyph glyph-name="asterisk" unicode="*" horiz-adv-x="201" 
d="M101 532l11 -56q56 59 80 59t24 -33q0 -18 -13 -31q-3 12 -14 12q-15 0 -55 -33q67 -21 83 -43q3 -5 3 -11q0 -34 -35 -34q-7 0 -15 3q7 4 7 11q0 5 -4 9q-14 14 -51 29q-8 -64 -27 -87q-13 -15 -33 0q-21 19 -15 42q11 -9 19 0q12 12 25 63q-36 -16 -78 -16
q-29 0 -33 12q-5 11 -2 23q8 26 32 29q-5 -15 7 -17q17 -6 64 0q-47 96 -12 113q5 3 16 1q26 -5 34 -28h-3q-15 0 -15 -17z" />
    <glyph glyph-name="plus" unicode="+" horiz-adv-x="437" 
d="M249 305h44q39 0 62 12l18 12h-1q4 -1 4 -7q0 -22 -14 -45q-19 -31 -50 -31q-1 0 -95 2q-49 -88 -49 -110q0 -16 12 -17q-9 -19 -34 -19q-42 0 -42 39q0 21 54 110l-73 -1q-27 0 -40 -7q-10 -6 -10 -8q-8 0 -8 9q0 23 22 45q22 23 41 22l100 -3q46 83 46 96q0 16 -12 17
q7 19 34 19q42 0 42 -39q0 -12 -51 -96z" />
    <glyph glyph-name="comma" unicode="," horiz-adv-x="244" 
d="M126 91q17 0 28 -14q10 -11 10 -27q0 -45 -63 -106q-61 -61 -105 -61q-25 0 -25 19q0 9 4 10h6q4 -1 7 0q71 12 113 88q2 5 0 5q-12 -5 -18 -5q-18 0 -21 20q-3 18 7 34q21 37 57 37z" />
    <glyph glyph-name="hyphen" unicode="-" horiz-adv-x="422" 
d="M131 189q-28 0 -42 -14q-13 -15 -10 -15q-8 0 -8 9q0 21 22 46t37 25l156 -5q52 0 75 12q6 3 11 8q3 4 4 4q4 -1 4 -7q0 -15 -20 -41q-23 -26 -38 -26q-14 0 -94 2q-78 2 -97 2z" />
    <glyph glyph-name="period" unicode="." horiz-adv-x="264" 
d="M151 67q0 -24 -20 -46q-21 -22 -46 -22q-34 0 -34 31q0 26 22 48q21 22 48 22q30 0 30 -33z" />
    <glyph glyph-name="slash" unicode="/" horiz-adv-x="313" 
d="M-83 -38q465 789 474 789t9 -24q0 -49 -27 -96l-439 -745q-28 -45 -36 -45t-8 22q0 49 27 99z" />
    <glyph glyph-name="zero" unicode="0" horiz-adv-x="555" 
d="M356 452q12 -21 12 -40q0 -23 -20 -43q-22 -20 -46 -20q-30 0 -50 20q-23 23 -23 62q0 80 61 145q63 68 143 70q56 0 94 -26q55 -37 55 -120q0 -172 -149 -336q-153 -166 -324 -166q-74 0 -114 49q-36 43 -36 108q0 143 118 280q99 116 149 116q13 0 13 -6q0 -1 -2 -3
q-77 -61 -144 -178q-71 -125 -71 -216q0 -105 87 -105q107 0 250 159q148 164 148 314q0 44 -21 69q-19 25 -49 25q-66 0 -111 -52q-38 -44 -38 -92q0 -36 22 -36t32 31q1 4 14 -9z" />
    <glyph glyph-name="one" unicode="1" horiz-adv-x="375" 
d="M86 431q46 -1 112 27q133 55 235 198q23 -17 22 -30q0 -18 -33 -80q-16 -27 -195 -279q-122 -170 -123 -229q-1 -26 20 -34q-24 -29 -72 -29q-53 0 -53 50q0 71 132 232q42 51 154 166q77 79 105 132q1 3 0 4t-5 -4q-20 -34 -111 -92q-97 -64 -146 -64q-33 0 -40 16
q-4 6 -2 16z" />
    <glyph glyph-name="two" unicode="2" horiz-adv-x="508" 
d="M238 0q-49 0 -116 40t-115 40q-35 0 -73 -41q-30 -33 -30 -39l-3 1q-5 2 -6 4q-8 8 -1 31q45 156 317 261q101 39 159 113q47 62 47 118q0 34 -21 57q-26 27 -73 27q-77 0 -144 -67q-64 -63 -64 -118q0 -31 22 -46q2 -1 6 1q2 2 1 3q-4 13 6 29t29 16q40 0 40 -43
q0 -25 -22 -41q-19 -16 -43 -16q-80 0 -80 89q0 75 71 146q82 82 201 82q65 0 112 -32q48 -35 48 -87q0 -181 -329 -292q-167 -57 -180 -123q36 24 71 24q42 0 103 -35q60 -36 91 -36q54 0 95 41q31 31 39 69q22 0 22 -27q0 -45 -39 -90q-53 -59 -141 -59z" />
    <glyph glyph-name="three" unicode="3" horiz-adv-x="535" 
d="M391 323q-69 -31 -161 -31q-48 0 -79 16q-35 17 -35 44q0 53 112 53q82 0 141 -48q63 -53 63 -137q0 -87 -84 -150q-92 -69 -246 -69q-79 0 -126 41q-40 36 -40 86q0 33 21 57q19 25 50 25q22 0 36 -13q14 -12 14 -31q0 -44 -39 -44q-26 0 -33 19q-8 8 -8 -5
q0 -46 36 -72q32 -23 77 -23q107 0 189 62q83 65 83 152q0 52 -44 88q-41 34 -99 34q-67 0 -67 -21q0 -34 76 -34q74 0 138 38q113 65 113 143q0 55 -42 83q-36 24 -95 24q-45 0 -88 -23q-43 -22 -43 -50t21 -28q9 0 23 8q3 1 3 -5q1 -4 1 -12q0 -15 -14 -29
q-17 -17 -43 -17q-61 0 -61 53q0 51 57 91q62 46 159 46q126 0 175 -64q24 -33 24 -75q0 -110 -165 -182z" />
    <glyph glyph-name="four" unicode="4" horiz-adv-x="484" 
d="M553 665q20 0 20 -14q0 -3 -3 -6q-39 -28 -146 -193q-100 -154 -123 -215q8 -5 33 -5q56 0 56 33l-2 11q-2 6 6 6q30 0 30 -38q0 -31 -30 -52q-28 -21 -73 -21q-12 0 -52 5q-33 -69 -33 -94t7 -32q15 -14 2 -24q-25 -27 -66 -27q-54 0 -54 43q0 40 66 152q-44 16 -94 16
q-98 0 -131 -52q-11 0 -11 25q0 107 227 293q230 189 371 189zM491 620q-293 -110 -471 -379q-3 -6 0 -5l4 2q43 22 111 22q94 0 94 1q78 165 256 343q16 16 6 16z" />
    <glyph glyph-name="five" unicode="5" horiz-adv-x="516" 
d="M580 677q2 5 11 -6q8 -11 8 -19q0 -3 -4 -12q-12 -37 -67 -73q-74 -49 -142 -49q-65 0 -114 37q-84 -133 -115 -171q-4 -4 -3 -5l5 3q64 39 151 39q64 0 98 -42q28 -34 28 -77q0 -102 -103 -196q-116 -108 -278 -108q-61 0 -95 36q-30 28 -30 68q0 38 18 63q22 31 64 31
q26 0 41 -17q13 -13 13 -32q0 -24 -16 -39q-14 -13 -35 -13q-29 0 -37 20q-2 6 -5 1q-4 -4 -4 -14q0 -29 25 -51q26 -23 68 -23q110 0 206 102q86 92 86 166q0 43 -26 67q-20 19 -47 19q-89 0 -180 -91q-5 -5 -15 9q-9 14 -9 21q0 4 206 326q7 13 18 2q23 -17 32 -22
q49 -28 110 -28q87 0 137 78z" />
    <glyph glyph-name="six" unicode="6" horiz-adv-x="473" 
d="M269 347q-73 0 -150 -129q-6 -10 -8 -10q-10 0 -10 27q0 20 7 31q69 118 176 118q54 0 85 -33q31 -31 31 -77q0 -102 -80 -187q-84 -88 -202 -88q-56 0 -94 26q-55 37 -55 120q0 165 157 332q157 169 314 169q69 0 101 -38q23 -26 23 -61q0 -50 -35 -80q-29 -23 -58 -23
q-25 0 -42 15q-15 13 -15 31q0 56 53 56q35 0 35 -28q0 -21 -1 -21q6 -3 17 14q11 19 11 35q0 32 -32 52q-25 15 -56 15q-126 0 -270 -175q-141 -171 -141 -306q0 -44 19 -72q22 -34 62 -34q82 0 153 86q65 80 65 154q0 81 -60 81z" />
    <glyph glyph-name="seven" unicode="7" horiz-adv-x="450" 
d="M226 656q0 -11 -46 -78l6 -1q7 0 9 2q66 66 130 66q25 0 76 -20t74 -20q38 0 61 41q4 7 14 2q8 -5 8 -16q0 -58 -75 -147q-64 -76 -151 -134q-73 -49 -136 -124q-71 -86 -71 -139q0 -33 9 -44q3 -5 7 -6l5 -2q3 -1 1 -7q-1 -4 -8 -9q-30 -21 -86 -21q-46 0 -46 36
q0 95 106 201q79 80 192 147q141 85 195 185q1 4 -1 5.5t-7 1.5l-2 -1q-2 -1 -9.5 -4.5t-14.5 -7.5q-28 -14 -60 -14q-31 0 -70 12q-40 12 -64 12q-73 0 -139 -91q-35 -45 -27 -45q-4 0 -9 9q-6 11 -6 21t102 185q6 6 18 7q15 3 15 -2z" />
    <glyph glyph-name="eight" unicode="8" horiz-adv-x="440" 
d="M299 393q65 31 84 47q60 46 60 115q0 31 -31 53q-27 18 -52 18q-61 0 -105 -35q-43 -34 -43 -81q0 -49 69 -145q68 -97 68 -141q0 -82 -82 -152q-83 -71 -181 -71q-76 0 -120 41q-36 33 -36 78q0 81 97 151q82 61 135 61q8 0 22 -21q-67 -16 -124 -72q-60 -59 -60 -119
q0 -33 24 -58q26 -26 62 -26q58 0 116 49q61 52 61 110q0 47 -63 135q-64 88 -64 152q0 66 72 123q70 57 152 57q68 0 109 -35q34 -30 34 -72q0 -71 -76 -132q-64 -50 -97 -50q-10 0 -24 9t-7 11z" />
    <glyph glyph-name="nine" unicode="9" horiz-adv-x="500" 
d="M25 100q-36 0 -36 28q0 21 1 21q-6 3 -17 -14q-10 -17 -10 -35q0 -32 32 -52q26 -15 55 -15q110 0 258 174q153 177 153 323q0 44 -28 69q-23 21 -56 21q-79 0 -149 -96q-64 -85 -64 -159q0 -68 57 -68q46 0 96 49q49 47 50 85q0 3 2 3q4 0 10 -10q7 -10 7 -23
q0 -32 -47 -81q-59 -59 -132 -59q-50 0 -85 35q-30 32 -30 71q0 110 88 195q87 84 193 84q56 0 94 -26q55 -37 55 -120q0 -164 -156 -331q-157 -169 -315 -169q-68 0 -100 38q-23 26 -23 61q0 50 35 80q29 23 58 23q25 0 42 -15q15 -13 15 -31q0 -56 -53 -56z" />
    <glyph glyph-name="colon" unicode=":" horiz-adv-x="350" 
d="M182 67q0 -24 -20 -46q-21 -22 -46 -22q-34 0 -34 31q0 26 22 48q21 22 48 22q30 0 30 -33zM297 309q0 -24 -20 -46q-21 -22 -46 -22q-34 0 -34 31q0 26 22 48q21 22 48 22q30 0 30 -33z" />
    <glyph glyph-name="semicolon" unicode=";" horiz-adv-x="262" 
d="M282 235q0 33 -30 33q-27 0 -48 -22q-22 -22 -22 -48q0 -31 34 -31q25 0 46 22q20 22 20 46zM150 91q17 0 28 -14q10 -11 10 -27q0 -45 -63 -106q-61 -61 -105 -61q-25 0 -25 19q0 9 4 10h6q4 -1 7 0q71 12 113 88q2 5 0 5q-12 -5 -18 -5q-18 0 -21 20q-3 18 7 34
q21 37 57 37z" />
    <glyph glyph-name="less" unicode="&#x3c;" horiz-adv-x="262" 
d="M174 278q26 -38 26 -100q0 -47 -32 -106t-60 -59q-1 0 -3 2q0 2 -1 2q1 0 18 32q21 41 21 76q0 101 -66 148q-13 9 -10 15q3 8 18 8q69 0 154 63q71 53 96 94q4 5 8 0q5 -7 5 -14q0 -39 -64 -94q-57 -50 -110 -67z" />
    <glyph glyph-name="equal" unicode="=" horiz-adv-x="461" 
d="M91 251q-28 0 -42 -14q-13 -15 -10 -15q-8 0 -8 9q0 21 22 46t37 25l242 -5q52 0 75 12q6 3 11 8q3 4 4 4q4 -1 4 -7q0 -15 -20 -41q-23 -26 -38 -26q-10 0 -28 0.5t-50.5 1t-58.5 0.5q-136 2 -140 2zM91 140q-28 0 -42 -14q-13 -15 -10 -15q-8 0 -8 9q0 21 22 46t37 25
l242 -5q52 0 75 12q6 3 11 8q3 4 4 4q4 -1 4 -7q0 -15 -20 -41q-23 -26 -38 -26q-10 0 -28 0.5t-50.5 1t-58.5 0.5q-136 2 -140 2z" />
    <glyph glyph-name="greater" unicode="&#x3e;" horiz-adv-x="313" 
d="M205 197q-26 38 -26 109q0 43 32 99q33 57 60 57q1 0 3 -2q0 -2 1 -2q-2 0 -18 -28q-21 -34 -21 -67q0 -115 66 -161q13 -9 10 -15q-3 -8 -18 -8q-69 0 -154 -63q-71 -53 -96 -94q-4 -5 -8 0q-5 7 -5 14q0 65 174 161z" />
    <glyph glyph-name="question" unicode="?" horiz-adv-x="402" 
d="M174 148q-46 2 -45 54q0 41 48 82q26 23 104 70q151 92 153 171q1 52 -37 83q-33 25 -80 27q-51 2 -97 -34q-48 -37 -49 -80q-2 -43 25 -44q25 0 32 19q2 6 7 -5q6 -11 5 -20q0 -19 -13 -35q-20 -25 -59 -23q-29 0 -48 22q-21 25 -20 60q2 84 71 137q68 53 161 51
q90 -2 139 -46q45 -42 43 -107t-84 -131q-26 -20 -165 -106q-95 -55 -96 -117q0 -16 5 -28zM54 90q-16 -22 -18 -45q-2 -26 14 -34q19 -10 43 -3q25 8 42 33q16 24 15 46q-1 20 -19 30q-42 23 -77 -27z" />
    <glyph glyph-name="at" unicode="@" horiz-adv-x="774" 
d="M300 111q0 -48 36 -48q20 0 48 18q37 24 60 65l74 130q5 12 5 18q0 39 -40 39q-49 0 -117 -86q-66 -84 -66 -136zM779 254q-12 -88 -97 -173q-93 -93 -194 -93q-32 0 -58 20q-25 19 -25 44q-56 -52 -112 -52q-39 0 -60 25q-19 22 -19 56q0 88 87 185q91 103 186 103
q47 0 65 -37q28 37 66 37q49 0 49 -23q0 1 -1.5 0t-5 -2.5t-7.5 -4.5q-20 -14 -40 -47q-35 -55 -100 -171q-16 -28 -16 -44q0 -30 36 -30q55 0 119 67q67 68 83 147q16 81 -48 139q-65 57 -165 57q-185 0 -305 -130q-91 -97 -104 -199q-18 -129 51 -209q67 -78 190 -78
q100 0 186 54q80 51 105 121q6 19 10 19q5 0 16 -23q11 -24 3 -38q-43 -78 -124 -125q-89 -53 -199 -53q-137 0 -219 94q-71 82 -70 188q1 156 125 283q133 139 328 139q138 0 211 -79q66 -71 53 -167z" />
    <glyph glyph-name="A" unicode="A" horiz-adv-x="937" 
d="M647 -57q-100 0 -100 79q0 88 124 272q-27 1 -65 8l-57 9q-122 -207 -178 -274q-110 -128 -234 -128q-53 0 -89 24q-42 27 -42 76q0 37 20 62q20 23 50 23q53 0 53 -50q0 -49 -40 -49q-10 0 -16 3q-6 2 -6 -6q0 -10 14 -19q18 -12 48 -12q104 0 199 110q56 66 161 245
q-12 1 -62 1q-34 0 -56 -16q-24 -17 -24 -38q0 -14 11 -23q12 -7 28 0q4 4 5 -4q0 -11 -7 -22q-17 -24 -45 -26q-25 -2 -43 11q-30 21 -30 55q0 115 167 115q52 0 85 -4q99 166 176 237q110 105 241 105q68 0 111 -43q44 -42 44 -104q0 -106 -82 -176q-89 -77 -247 -90
q-115 -197 -115 -254q0 -40 39 -40q43 0 130 84q4 4 7 4q7 0 7 -18q0 -7 -1 -10q-12 -34 -60 -71q-58 -46 -121 -46zM578 359q87 -7 132 -10q157 214 230 214q8 0 8 -3q0 -2 -6 -8q-59 -62 -146 -200q102 12 170 68q72 58 72 140q0 41 -26 67q-28 28 -78 28q-107 0 -202 -89
q-68 -63 -154 -207z" />
    <glyph glyph-name="B" unicode="B" horiz-adv-x="750" 
d="M484 664q-153 -4 -257 -90q-96 -80 -96 -182q0 -96 59 -96q4 0 4 3q2 3 -2 5q-17 11 -17 29q0 16 13 29q14 14 31 14q53 0 53 -55q0 -29 -23 -52q-24 -24 -59 -24q-46 0 -77 37q-33 39 -33 104q0 136 120 233q118 96 285 96q137 4 222 -56q75 -52 75 -127q0 -97 -89 -150
q-43 -25 -89 -33q22 0 59 -27q57 -42 57 -117q0 -86 -74 -158q-78 -75 -180 -75q-47 0 -88 23q-44 26 -44 61q0 44 48 44q3 0 3 -2q0 -1 -4 -8q-4 -5 -4 -12q0 -16 21 -33q26 -22 75 -22q69 0 116 69q38 59 38 124q0 69 -86 120l-16 9q-10 5 -13 7q-11 8 -11 23q0 11 7 21
q4 9 7 9q11 -15 34 -15q48 0 90 33q50 41 50 106q0 62 -66 101q-59 34 -139 34zM72 -49q-51 0 -82 31q-29 29 -29 68q0 32 20 54q20 21 48 20q53 -2 53 -52q0 -15 -11 -29q-12 -13 -29 -13q-5 0 -8 1l-6 1q-5 0 -5 -5q0 -9 14 -17q16 -8 34 -8q111 0 189 143q20 37 58 126
q34 81 54 115q101 174 239 174q13 0 13 -5q0 -3 -3 -4q-98 -67 -154 -184q-102 -214 -154 -281q-104 -135 -241 -135z" />
    <glyph glyph-name="C" unicode="C" horiz-adv-x="621" 
d="M562 164q0 -86 -107 -151q-94 -58 -198 -61v-3q0 -38 23 -63q20 -21 48 -21q37 0 37 28q0 21 -18 25q-7 2 6 11q11 10 27 10q52 0 52 -58q0 -32 -22 -57q-26 -32 -69 -32q-62 0 -99 46q-37 43 -37 111v7q-165 28 -165 231q0 166 177 349q174 179 320 179q76 0 114 -38
q29 -32 29 -78q0 -79 -66 -157q-66 -79 -140 -87q-3 -1 -15 -1q-43 0 -74 23q-32 24 -32 67q0 33 19 56q19 25 51 25q49 0 49 -50q0 -43 -47 -43l-11 2q-2 1 -3.5 -1t-2.5 -6q0 -23 41 -23q55 0 114 60q63 64 63 136q0 63 -78 63q-130 0 -272 -184q-142 -181 -142 -335
q0 -104 78 -135q22 96 99 167q74 70 154 70q43 0 69 -22q28 -22 28 -60zM461 195q-50 0 -112 -53q-66 -59 -86 -141q73 1 160 54q89 54 89 102q0 38 -51 38z" />
    <glyph glyph-name="D" unicode="D" horiz-adv-x="922" 
d="M382 25q63 -26 94 -26q146 0 266 143q115 137 115 287q0 129 -76 201q-70 67 -189 67q-121 0 -213 -92q-88 -88 -88 -196q0 -40 19 -65q18 -27 46 -27q2 0 3 3t-1 5q-16 10 -16 32q0 38 42 38q53 0 53 -54q0 -30 -21 -51q-24 -24 -60 -24q-49 0 -82 39q-34 40 -34 99
q0 141 113 245q110 101 248 101q158 0 253 -95q90 -89 90 -222q0 -181 -130 -327q-141 -158 -338 -158q-49 0 -125 32q-1 1 -5 1q-9 0 -53 -14q-45 -14 -88 -14q-88 0 -88 58q0 60 87 60q77 0 136 -31q46 46 90 157q56 140 69 161q98 168 226 174q13 0 13 -5q0 -3 -3 -4
q-105 -73 -157 -181q-121 -254 -196 -317z" />
    <glyph glyph-name="E" unicode="E" horiz-adv-x="700" 
d="M274 2q28 96 112 163q84 66 171 66q35 0 58 -18q27 -19 27 -57q0 -80 -88 -149q-93 -72 -216 -72h-13q-4 -47 23 -73q19 -19 46 -19q41 0 41 26q0 15 -9 21q-6 4 -8 5.5t-2 0.5q0 7 10 14q9 9 25 11q19 1 36 -9q22 -13 22 -41q0 -32 -28 -57q-32 -29 -79 -29
q-61 0 -100 41q-42 44 -44 123q-95 4 -161 49q-71 50 -71 129q0 91 83 174q79 78 174 96q-45 36 -45 84q0 100 106 170q101 66 226 66q124 0 195 -58q65 -51 65 -127q0 -46 -27 -79t-64 -33q-74 0 -74 59q0 22 13 38q14 17 32 17q5 0 5 -6q0 -19 18 -19q28 1 28 39
q0 44 -42 75q-54 39 -157 39q-93 0 -169 -59q-72 -55 -72 -119q0 -41 25 -66q47 10 112 10q39 0 78 -11q56 -17 56 -48q0 -54 -113 -54q-90 0 -157 49q-75 -21 -124 -75q-59 -62 -59 -145q0 -53 40 -93q37 -37 95 -49zM551 180q-64 0 -131 -50q-75 -57 -90 -139
q75 -13 169 45q91 55 91 108q0 36 -39 36z" />
    <glyph glyph-name="F" unicode="F" horiz-adv-x="617" 
d="M100 -49q-49 0 -81 29q-30 29 -30 70q0 32 20 54q20 21 48 20q53 -2 53 -52q0 -15 -11 -29q-12 -13 -29 -13q-5 0 -8 1l-6 1q-5 0 -5 -5q0 -9 14 -17q16 -8 34 -8q130 0 223 214q-71 0 -129 50q-66 57 -66 149q0 111 82 199q93 100 237 100q44 0 136 -27q90 -28 149 -28
q84 0 121 55q14 0 14 -23q0 -40 -34 -68q-40 -34 -110 -34q-48 0 -144 29q-93 28 -148 28q-111 0 -184 -71q-68 -68 -68 -157q0 -76 54 -119q40 -33 90 -33h22q43 99 56 120q100 174 239 174q13 0 13 -5q0 -3 -3 -4q-98 -67 -154 -184l-35 -73q39 15 63 15q25 0 45 -18
q18 -18 18 -42q0 -25 -17 -48q-18 -24 -44 -24q-22 0 -33 11q-13 11 -5 11q23 0 23 25q0 14 -6 20t-19 5q-5 0 -56 -18q-67 -132 -133 -196q-86 -84 -196 -84z" />
    <glyph glyph-name="G" unicode="G" horiz-adv-x="669" 
d="M468 -32q62 -24 62 -80q0 -40 -24 -59q-20 -18 -50 -18q-23 0 -37 20q-12 20 -4 20q44 0 44 30q0 24 -20 36q-90 -166 -202 -255q-101 -82 -194 -82q-55 0 -84 27q-28 25 -28 68q0 128 151 222q136 87 280 87q25 0 32 -1q71 113 188 270q5 6 -1 9q-4 3 -8 1
q-24 -17 -67 -65q-61 -68 -82 -87q-116 -110 -224 -110q-60 0 -101 39q-42 42 -42 113q0 169 214 361q214 191 397 191q180 0 180 -140q0 -43 -24 -76q-25 -36 -67 -36q-64 0 -64 60q0 20 17 35q14 13 32 13q26 0 37 -18q3 -3 4 -3q10 0 10 23q0 38 -30 62q-29 25 -76 25
q-175 0 -360 -183q-177 -175 -177 -316q0 -41 24 -64q22 -22 54 -22q88 0 241 161q153 160 216 160q21 0 34 -7q13 -4 13 -10q0 -1 -1 -2q-85 -65 -263 -399zM32 -365q134 0 330 298h-9q-120 0 -241 -76q-128 -80 -128 -172q0 -50 48 -50z" />
    <glyph glyph-name="H" unicode="H" horiz-adv-x="921" 
d="M882 433q-18 -21 -39 -53q95 -3 95 -69q0 -23 -14 -40q-15 -17 -36 -17q-29 0 -44 19q-6 8 -6 13q-1 3 0 4.5t3 0.5q17 2 17 19t-22 17q-3 0 -29 -2q-120 -193 -120 -279q0 -32 24 -55q25 -23 57 -23q33 0 69 14q13 9 12 -9t-13 -30q-26 -27 -94 -27q-57 0 -96 27
q-51 35 -51 111q0 80 103 240q-105 -35 -176 -38q-160 -265 -389 -265q-62 0 -103 38q-36 33 -36 73q0 36 21 59q21 22 50 22q20 0 37 -14q17 -15 17 -39q0 -18 -14 -32t-31 -14q-10 0 -14 3q-3 1 -6 0q-2 -4 -1 -7q15 -38 82 -38q108 0 180 66q51 48 107 155
q-159 30 -159 192q0 110 88 186q83 72 180 72q63 0 124 -30t76 -30q73 55 149 55q35 0 35 -21q0 -37 -59 -66q-57 -26 -121 -26q-63 -57 -179 -279l-3 -6q33 5 191 52l24 34q109 149 231 253q139 117 232 117q31 0 51 -14q19 -13 19 -33q0 -22 -22 -38q-20 -16 -22 -4
q-5 36 -37 36q-121 0 -338 -280zM313 454q0 -126 134 -144q107 197 232 294q-14 -2 -59 19q-51 23 -119 21q-67 -2 -122 -48q-68 -56 -66 -142z" />
    <glyph glyph-name="I" unicode="I" horiz-adv-x="600" 
d="M174 2q128 0 215 121q22 30 134 253q73 142 204 240q1 1 1 7q-22 -13 -70 -13q-31 0 -85 16t-86 16q-110 0 -176 -83q-54 -67 -54 -145q0 -36 18 -62q18 -27 45 -27q4 0 3 6q-10 16 -10 32q0 21 15 35q14 14 35 14q20 0 35 -17t15 -42q0 -31 -22 -53q-26 -26 -70 -26
q-48 0 -79 37q-36 41 -36 117q0 105 95 195q95 89 199 89q35 0 113 -22t104 -22q37 2 68 23q32 22 29 23q14 0 14 -36q0 -13 -41 -57q-55 -61 -84 -102q-21 -29 -79 -150q-61 -124 -102 -188q-149 -230 -344 -230q-57 0 -98 25q-51 30 -51 86q0 34 26 60q25 23 50 23
q67 0 67 -57q0 -29 -26 -41q-23 -11 -35 2q7 7 6 18q-1 12 -13 12q-21 0 -21 -22q0 -55 91 -55z" />
    <glyph glyph-name="J" unicode="J" horiz-adv-x="635" 
d="M309 342q-7 11 -7 26q0 20 15 36t35 16t36 -14q17 -15 17 -38q0 -34 -25 -59q-26 -27 -65 -27q-115 0 -115 148q0 101 95 193q95 90 205 90q29 0 107 -20q75 -21 101 -21q35 0 69 23q18 12 24.5 17t4.5 5q14 0 14 -36q0 -17 -44 -63q-57 -57 -81 -97q-51 -83 -132 -261
q-22 -48 -53 -102q52 -39 52 -94q0 -44 -22 -73q-21 -28 -48 -28q-19 0 -32 13q-12 14 -12 30q0 26 19 35q5 -8 15 -8q28 0 28 31q-1 25 -28 47q-186 -289 -356 -289q-50 0 -81 29q-28 28 -28 71q0 91 116 183q119 93 243 93q24 0 58 -6q13 28 32 80q63 182 253 348q5 5 1 5
q4 0 -1 -2q-4 -1 -11 -3q-20 -6 -62 -6q-13 0 -73 15q-61 15 -111 15q-99 0 -161 -83q-50 -68 -50 -138q0 -89 54 -89q10 0 4 8zM377 147q-109 0 -213 -83q-96 -77 -96 -139q0 -52 63 -52q69 2 146 79q73 73 134 191q-21 4 -34 4z" />
    <glyph glyph-name="K" unicode="K" horiz-adv-x="1008" 
d="M302 -4q128 0 215 121q22 30 134 253q73 142 204 240q1 1 1 7q-21 -12 -69 -12q-32 0 -86 16t-86 16q-108 0 -176 -83q-54 -69 -54 -146q0 -36 18 -62q18 -27 45 -27q4 0 3 6q-10 16 -10 32q0 21 15 35q14 14 35 14t35 -14q15 -15 15 -37q0 -34 -20 -59q-25 -28 -71 -28
q-47 0 -80 36q-36 39 -36 108q0 109 95 202q95 92 199 92q35 0 113 -22t104 -22q37 2 68 23q32 22 29 23q14 0 14 -36q0 -13 -41 -57q-55 -61 -84 -102q-23 -35 -76 -143q157 -10 284 72q114 74 114 152q0 37 -35 37q-21 0 -36 -18q-10 13 -10 34q0 24 18 42q20 19 54 19
q32 0 54 -27q22 -26 22 -66q0 -95 -90 -174q-94 -83 -244 -112q-10 -81 -10 -172q0 -107 28 -156q32 -57 105 -57q28 0 53 11l23 10q2 0 2 -7q0 -78 -128 -78q-81 0 -129 64q-46 61 -46 162q0 122 21 214q-33 -4 -75 0q-85 -171 -163 -252q-115 -123 -261 -123q-57 0 -98 25
q-51 30 -51 86q0 34 26 60q25 23 50 23q26 0 45 -13q22 -16 22 -44q0 -46 -42 -46q-12 0 -19 7q7 7 7 15q0 15 -17 15q-21 0 -21 -24q0 -16 18 -31q25 -22 76 -22z" />
    <glyph glyph-name="L" unicode="L" horiz-adv-x="738" 
d="M755 619q0 36 -36 36q-91 0 -247 -287q106 22 196 103q87 79 87 148zM174 14q-53 -31 -146 -31q-26 0 -42 12q-17 14 -17 30q0 20 30 41q35 23 85 23q60 0 97 -15q97 69 171 227q-99 0 -159 54q-56 51 -56 125q0 71 56 127q52 52 113 52q53 0 78 -28q20 -23 20 -56
q0 -25 -17 -45t-42 -20q-50 0 -50 49q0 36 22 40q7 1 7 7q0 4 -13 4q-43 0 -81 -36q-42 -40 -42 -93q0 -50 44 -85q48 -39 128 -39h17q84 175 186 267q91 80 173 80q34 0 53 -24q17 -23 17 -55q0 -91 -96 -186q-107 -106 -266 -137q-113 -199 -210 -251q141 -30 170 -30
q136 0 213 54q24 16 40 37q14 17 13 17q11 0 11 -27q0 -39 -65 -92q-76 -60 -168 -60q-73 0 -169 32t-105 32z" />
    <glyph glyph-name="M" unicode="M" horiz-adv-x="922" 
d="M34 20q90 0 150 68q38 44 87 156q55 120 90 169q62 84 156 110l7 1q5 0 5 -5q0 -4 -9 -13q-70 -66 -120 -173q-85 -181 -144 -251q-93 -111 -219 -111q-49 0 -81 29t-32 70q0 31 20 54q18 20 46 20h2q53 -2 53 -52q0 -15 -11 -29q-12 -13 -29 -13q-5 0 -8 1l-6 1
q-5 0 -5 -5q0 -9 14 -18q15 -9 34 -9zM1084 586q-106 -118 -186 -262q-98 -173 -98 -285t119 -112q18 0 40 7l22 7q2 0 2 -2q0 -23 -36 -45q-38 -23 -77 -23q-72 0 -117 39q-49 42 -49 116q0 114 115 301q98 162 206 268q-209 0 -428 -432q-59 -116 -184 -116q-23 0 -23 11
q0 3 17 35q153 263 153 394q0 75 -42 121q-47 51 -130 51q-106 0 -192 -85q-83 -83 -83 -173q0 -74 55 -74q30 0 30 11q0 1 -3 1q-26 0 -26 40q0 20 16 33q14 11 31 11q25 0 40 -17q15 -16 15 -39q0 -39 -31 -69q-32 -30 -71 -30q-45 0 -76 26q-40 34 -40 107q0 112 92 204
q108 108 282 108q91 0 156 -53q71 -56 71 -146q0 -53 -154 -357q-2 -4 0 -6t8 -1q13 2 17 10q152 260 206 325q139 165 319 165q34 0 73 -10q46 -12 46 -27q0 -3 -5 -18q-3 -7 -6 -11t-5 -3q-58 16 -69 5z" />
    <glyph glyph-name="N" unicode="N" horiz-adv-x="715" 
d="M33 24q90 0 150 68q37 44 87 156q55 120 90 169q62 84 156 110l7 1q5 0 5 -5q0 -4 -9 -13q-70 -66 -120 -173q-85 -181 -144 -251q-93 -111 -219 -111q-49 0 -81 29t-32 70q0 31 20 54q18 20 46 20h2q53 -2 53 -52q0 -15 -11 -29q-12 -13 -29 -13q-5 0 -8 1l-6 1
q-5 0 -5 -5q0 -9 14 -18q15 -9 34 -9zM380 667q-106 0 -192 -85q-83 -83 -83 -173q0 -36 16 -56q15 -20 39 -20q30 0 30 13q0 1 -3 1q-11 0 -18 12q-8 11 -8 23q0 22 16 35q14 14 31 14q25 0 40 -17q15 -16 15 -39q0 -39 -31 -69q-32 -30 -71 -30q-45 0 -76 26
q-40 34 -40 107q0 112 92 204q108 108 282 108q106 -2 168 -61q61 -58 61 -154q0 -41 -58 -197t-58 -205q0 -54 15 -55q4 0 11 22q68 215 191 400q164 245 323 245q71 0 71 -47q0 -13 -8 -26q-8 -11 -17 -11q-7 0 -9 2q1 3 1 9q0 19 -44 19q-134 0 -299 -279
q-137 -229 -168 -384q-8 -35 -28 -35q-37 0 -66 38q-30 40 -30 104q0 76 40 202q39 128 39 191q0 87 -52 130q-46 38 -122 38z" />
    <glyph glyph-name="O" unicode="O" horiz-adv-x="695" 
d="M201 657q0 49 45 86q51 42 135 42q117 0 176 -96q21 12 63 12q58 0 96 -44t38 -119q0 -223 -164 -404q-173 -191 -411 -191q-178 0 -178 176q0 111 106 254q97 132 204 195q27 15 55 15q11 0 11 -4q0 -3 -7 -9q-92 -74 -179 -209q-97 -148 -97 -248q0 -115 102 -115
q162 0 328 184q167 185 167 368q0 44 -18 72q-19 30 -53 30q-13 0 -31 -5l-12 -5h1q8 -21 8 -53q0 -101 -58 -192q-63 -97 -144 -97q-27 0 -44 20q-19 20 -19 56q0 74 55 156q56 83 136 132q-42 70 -132 70q-43 0 -73 -21q-26 -20 -26 -40q0 -27 26 -27q2 0 6 2l5 2
q7 0 7 -15q0 -17 -15 -29q-17 -14 -41 -14q-29 0 -48 18q-20 20 -20 47zM533 576q0 25 -4 40q-67 -44 -114 -120q-43 -70 -43 -119q0 -25 21 -25q47 0 94 75q46 73 46 149z" />
    <glyph glyph-name="P" unicode="P" horiz-adv-x="783" 
d="M650 254q-76 2 -93 54q-5 15 12 33q17 19 17 9q0 -11 14 -25q16 -18 44 -18q52 0 92 57q40 55 40 120q0 78 -57 126q-59 50 -160 50q-150 0 -256 -97q-94 -85 -94 -175q0 -96 57 -96q4 0 4 3q1 4 -2 6q-16 10 -16 33q0 17 14 28q13 10 29 10q53 0 53 -58q0 -32 -22 -51
q-23 -22 -61 -20q-47 2 -75 34q-32 38 -32 103q0 127 115 227q121 104 288 104q124 0 210 -59q98 -68 98 -183q0 -90 -70 -154q-69 -62 -149 -61zM131 -49q-52 0 -83 29q-28 27 -28 70q0 32 20 54q20 21 48 20q53 -2 53 -52q0 -15 -11 -29q-12 -13 -29 -13q-5 0 -8 1l-6 1
q-5 0 -5 -5q0 -9 14 -18q15 -9 34 -9q111 0 189 144q21 38 58 127q34 81 54 115q101 174 239 174q13 0 13 -5q0 -3 -3 -4q-98 -67 -154 -184q-102 -214 -154 -281q-104 -135 -241 -135z" />
    <glyph glyph-name="Q" unicode="Q" horiz-adv-x="734" 
d="M252 103q-55 0 -89 34q-36 35 -36 85q0 166 168 330q166 161 326 161q89 0 140 -58q47 -53 47 -131q0 -138 -130 -301q-126 -159 -280 -226q74 -83 170 -83q40 0 63 22q4 4 8.5 8t7 6t4.5 4l3 3v1q6 0 10 -9q6 -11 6 -18q0 -48 -43 -76q-37 -24 -93 -24q-55 0 -122 55
q-4 3 -87 84q-45 -14 -90 -14q-35 0 -68 18q-35 18 -35 39t23 35q25 16 64 16q87 0 147 -33q127 82 235 234q114 161 114 276q0 54 -35 86q-32 29 -84 29q-129 0 -277 -154q-143 -151 -143 -267q0 -38 25 -60t67 -22q65 0 133 71q66 70 58 127q0 -5 -10 -18q-15 -20 -36 -20
q-45 0 -45 42q0 26 22 44q22 17 49 17q75 0 75 -72q0 -84 -92 -164q-89 -77 -170 -77z" />
    <glyph glyph-name="R" unicode="R" horiz-adv-x="781" 
d="M876 502q0 -82 -57 -143q-53 -57 -138 -74q-27 -85 -27 -181q0 -76 26 -134q36 -78 108 -78q24 0 49 12l22 12q4 0 4 -5q0 -29 -30 -51q-31 -25 -76 -25q-81 0 -131 60q-54 65 -54 180q0 95 29 197h-12q-25 0 -30 6q-11 11 -11 27q0 10 7 10l22 -1q105 0 167 65
q52 55 52 128q0 77 -67 120q-59 38 -148 38q-149 0 -249 -86q-90 -80 -90 -181q0 -36 14 -62q15 -26 35 -26q5 0 1 4q0 -1 -1.5 2.5t-2.5 6.5q-4 7 -4 16q0 22 19 37q16 13 36 13q21 0 37 -16t16 -41q0 -28 -26 -49q-28 -24 -73 -24q-37 0 -67 32q-35 38 -35 101
q0 127 113 223q118 100 289 100q118 0 198 -58q85 -60 85 -155zM165 24q90 0 153 77q34 42 96 171q60 127 106 179q74 86 184 100q16 1 9 -15q-116 -56 -182 -199q-86 -187 -138 -251q-89 -111 -214 -111q-58 0 -92 29q-32 27 -32 70q0 31 20 54q18 20 46 20h2q53 -2 53 -52
q0 -15 -11 -29q-12 -13 -29 -13q-5 0 -8 1l-6 1q-5 0 -5 -5q0 -9 14 -18q15 -9 34 -9z" />
    <glyph glyph-name="S" unicode="S" horiz-adv-x="629" 
d="M157 132q21 8 21 29q0 20 -19 20t-34 -20q-16 -20 -16 -47q0 -46 40 -77q46 -37 127 -37q91 0 150 50q52 45 52 101q0 67 -88 167q-88 101 -88 176q0 84 74 150q77 70 187 70q106 0 159 -44q46 -37 46 -98q0 -46 -30 -78t-74 -32q-30 0 -49 15q-24 17 -24 47q0 22 14 39
t37 17q18 0 31 -13q12 -12 12 -28q0 -2 -2 -10q-1 -3 1 -4.5t6 -1.5q8 0 18 13q12 16 12 42q0 38 -36 64q-38 26 -96 26q-89 0 -144 -43q-54 -42 -54 -104q0 -61 90 -167q89 -107 89 -174q0 -94 -89 -162q-90 -66 -216 -66q-83 0 -142 41q-67 46 -67 128q0 41 30 79
q35 44 92 44q33 0 54 -21q19 -19 19 -46q0 -25 -17 -47q-18 -21 -41 -21t-35 23z" />
    <glyph glyph-name="T" unicode="T" horiz-adv-x="446" 
d="M958 705q-61 -100 -173 -100q-54 0 -171 37q-118 36 -192 38q-117 0 -206 -95q-76 -80 -76 -150q0 -77 45 -90q4 -1 6.5 -0.5t2.5 2.5t-1 6q-4 7 -4 18q0 15 12 25q13 13 31 13q51 0 51 -56q0 -25 -22 -43q-22 -19 -54 -19q-47 0 -80 34q-37 37 -37 103q0 110 107 211
q116 107 268 107q45 0 174 -37t171 -37q79 -1 134 61l2 3q15 0 15 -19q0 -7 -3 -12zM71 -49q-52 0 -83 29q-28 27 -28 70q0 32 20 54q20 21 48 20q53 -2 53 -52q0 -15 -11 -29q-12 -13 -29 -13q-5 0 -8 1l-6 1q-5 0 -5 -5q0 -9 14 -17q16 -8 34 -8q111 0 189 143
q20 37 58 126q34 81 54 115q101 174 239 174q13 0 13 -5q0 -3 -3 -4q-98 -67 -154 -184q-102 -214 -154 -281q-104 -135 -241 -135z" />
    <glyph glyph-name="U" unicode="U" horiz-adv-x="879" 
d="M1040 652q35 0 57 -5q7 -1 7 -6q0 -2 -14 -19q-106 -106 -225 -306q-136 -226 -136 -340q0 -60 34 -94q32 -31 85 -31q18 0 40 7l22 7q2 0 2 -2q0 -22 -35 -45q-38 -23 -84 -23q-71 0 -114 42q-46 42 -46 113q0 99 128 316q119 199 219 301q2 2 2 3q-1 7 -6 7l-5 -1
q-61 -32 -279 -348q-192 -278 -344 -278q-66 0 -103 37q-35 33 -35 81q0 124 172 303q192 198 206 239q-50 -24 -102 -24q-30 0 -97 32t-125 32q-80 0 -142 -51q-64 -54 -64 -128q0 -62 35 -88q2 -2 6 -2q5 0 3 6q-3 7 -3 16q0 19 15 32q16 14 36 14q21 0 36 -15
q15 -17 15 -37q0 -30 -22 -52t-53 -22q-47 0 -80 37q-39 42 -39 119q0 103 90 170q88 66 221 66q31 0 116 -35q87 -35 116 -35q44 0 74 30q10 9 17 16l10 10t2 3q13 0 13 -34q0 -69 -178 -283q-179 -215 -179 -295q0 -69 66 -69t155 98q48 54 163 217q109 152 171 216
q96 98 176 98z" />
    <glyph glyph-name="V" unicode="V" horiz-adv-x="699" 
d="M682 680q0 -32 -40 -68q-146 -131 -182 -259q-23 -84 -37 -158q-5 -26 -12 -63l-8 -42q-3 -17 -13 -44l-6 -17q0 -5 7 -5q105 19 263 286q121 206 208 299q104 110 205 110q37 0 59 -19q20 -18 20 -45q0 -25 -14 -45q-17 -23 -48 -23q-30 0 -43 19q-5 7 -5 12q0 4 2 4
q8 -5 16 3t8 19q0 22 -22 22q-64 0 -163 -117q-85 -100 -163 -242q-207 -357 -404 -355q-15 0 -15 13q0 10 8 21q43 57 51 144v165q0 145 175 284q28 22 42 32q6 4 2 4h-5q-46 -8 -79 -8q-25 0 -88 17q-67 19 -108 20q-98 3 -161 -72q-53 -65 -53 -140q0 -36 17 -61
q18 -25 45 -25q13 0 5 8q-13 13 -13 32q0 22 16 35q13 13 36 13q21 0 35 -15q15 -15 15 -39q0 -34 -24 -59q-26 -26 -65 -26q-50 0 -83 35q-36 40 -36 112q0 101 85 183q88 87 210 87q34 0 113 -24t112 -24q40 0 80 26q38 24 35 26q20 0 20 -36z" />
    <glyph glyph-name="W" unicode="W" horiz-adv-x="887" 
d="M838 409l-6 28q-7 34 -7 76q0 66 23 129q26 68 61 68q36 0 36 -84q0 -86 -49 -212q13 -3 25 -3q70 0 124 70q25 35 24 33q5 4 6 -6q1 -5 1 -13q0 -13 -6 -28q-48 -109 -151 -109q-19 0 -42 6q-32 -101 -113 -229q-117 -181 -222 -181q-40 0 -63 33q-21 31 -21 75
q0 6 -3 3q-89 -104 -187 -104q-97 0 -97 131q0 201 324 525q-44 -11 -86 0q-125 28 -167 28q-93 0 -158 -59q-69 -63 -64 -158q4 -58 33 -79l5 -2q4 0 3 6q-10 22 5 42t43 20q20 0 35 -16q15 -15 15 -37q0 -28 -23 -48q-23 -19 -59 -19q-45 0 -75 34q-34 38 -34 111
q0 106 85 185q93 86 235 87q39 0 113 -23q71 -24 109 -24t63 22q26 22 30 22q6 0 10 -7q6 -8 5 -14q-1 -16 -74 -93q-291 -330 -291 -476q0 -79 60 -79q55 0 109 51q46 43 46 60q5 81 72 208q36 68 67 102t57 33q43 -1 0 -107q-41 -99 -134 -239q-8 -105 43 -105
q68 0 154 131q74 122 111 235z" />
    <glyph glyph-name="X" unicode="X" horiz-adv-x="840" 
d="M738 324q87 -6 118 25q1 1 2 1q4 0 4 -13q0 -75 -105 -75q-23 0 -53 3q-68 -91 -68 -241q0 -57 29 -94q32 -38 89 -38q37 0 80 23q5 3 5 -4q0 -31 -35 -57q-37 -28 -88 -28q-86 0 -129 49q-40 43 -40 118q0 87 50 201q1 3 -1 5q-2 1 -4 -1q-73 -112 -186 -178
q-115 -68 -232 -68q-66 0 -106 30q-43 31 -43 84q0 42 24 67q23 23 60 23q12 0 23 -8q16 -10 16 -29q0 -11 -9 -27t-9 -15q0 11 -24 11q-22 0 -22 -26q0 -59 97 -59q233 0 391 273l-45 2q-54 0 -78 -24q-6 -6 -6 24q0 37 34 50q28 11 89 11l32 -1q31 93 31 164q0 66 -36 109
q-37 46 -96 46q-105 0 -182 -81q-67 -71 -67 -147q0 -92 71 -92q23 0 23 14q0 4 -5 6q-18 13 -18 32q0 22 16 35q14 13 37 13q54 0 54 -61q0 -30 -32 -57q-35 -29 -78 -29q-48 0 -81 34q-37 37 -37 98q0 108 86 199q93 97 226 97q96 0 156 -54q63 -58 63 -157
q0 -67 -32 -140l-1 -2q0 -1 2 1q78 129 198 213q125 86 236 86q37 0 60 -17q20 -15 20 -33q0 -22 -16 -38q-16 -15 -19 -6q-17 39 -60 39q-79 0 -183 -72q-118 -82 -196 -214z" />
    <glyph glyph-name="Y" unicode="Y" horiz-adv-x="789" 
d="M535 4q248 381 344 481q-1 1 -6 1q-11 0 -27 -11q-14 -10 -234 -236q-176 -183 -306 -183q-50 0 -80 30t-30 82q0 108 189 269q198 167 202 191q-75 -22 -114 -20q-28 1 -91 23q-57 19 -88 19q-98 0 -162 -55q-63 -53 -63 -128q0 -34 16 -59q15 -27 36 -27q7 0 3 7
q-12 23 3 44t41 21q18 0 32 -15q14 -14 14 -33q0 -33 -23 -53q-23 -22 -65 -22q-44 0 -75 36q-34 40 -34 102q0 96 91 172q93 78 216 78q49 0 124 -28t112 -28q66 0 106 39q6 0 6 -16q0 -40 -25 -68q-28 -35 -102 -110q-97 -99 -114 -118q-131 -140 -131 -207q0 -46 60 -46
q104 0 303 222q102 114 147 153q80 69 139 69q37 0 67 -34q-172 -136 -400 -566q84 -41 84 -110q0 -30 -20 -53q-21 -23 -50 -23q-35 0 -52 17q-7 7 -8 12q-2 5 1 5q16 -4 31 8q19 13 19 42q0 34 -34 47q-174 -246 -405 -246q-157 0 -157 113q0 83 119 152q122 71 276 71
q46 0 115 -11zM172 -269q173 0 327 223q-33 12 -75 12q-128 0 -235 -57q-104 -56 -104 -122q0 -56 87 -56z" />
    <glyph glyph-name="Z" unicode="Z" horiz-adv-x="777" 
d="M270 39l-2 1q141 -30 170 -30q136 0 213 54q24 16 40 37q14 17 13 17q11 0 11 -27q0 -39 -65 -92q-76 -60 -168 -60q-73 0 -157 30q-84 29 -104 29q-82 -47 -150 -47q-100 0 -100 44q0 33 58 51q49 15 119 15q18 0 74 -9q94 91 171 205q-17 4 -44 4q-43 0 -61 -20
q-2 -5 -6 -5t-4 13q0 61 89 61l61 -1q135 199 253 277q-39 -10 -87 -10q-46 0 -136 29t-141 29q-89 0 -159 -75q-69 -73 -69 -163q0 -31 14 -57q10 -20 23 -25l5 -2q6 0 4 5q-10 22 5 44q15 20 43 20q22 0 37 -16q15 -17 15 -38q0 -31 -24 -50q-22 -19 -54 -19q-61 0 -95 46
q-29 41 -29 104q0 107 103 201q107 98 240 98q58 0 139 -37q84 -38 114 -38h1q89 2 152 54q14 0 14 -38q0 -18 -86 -106q-116 -116 -198 -243h37q28 0 50 11l18 10q2 0 2 -12q0 -62 -101 -62l-46 1q-113 -154 -202 -208z" />
    <glyph glyph-name="bracketleft" unicode="[" horiz-adv-x="297" 
d="M172 -137h-165q-40 0 -40 26q0 55 474 789q43 66 104 66q58 0 85 1l33 1q9 0 9 -6q0 -8 -9 -17q-10 -10 -18 -10h-81q-24 0 -38 -15q-162 -192 -461 -771q-4 -9 -4 -15q0 -15 17 -15l116 -1q8 0 8 -6q0 -8 -10 -17q-10 -10 -20 -10z" />
    <glyph glyph-name="backslash" unicode="\" horiz-adv-x="371" 
d="M207 -102q-133 704 -133 718q0 26 13 59q13 37 28 37t137 -764q2 -22 2 -24q0 -28 -10 -52q-11 -26 -18 -26q-9 0 -19 52z" />
    <glyph glyph-name="bracketright" unicode="]" horiz-adv-x="521" 
d="M355 746h138q40 0 40 -26q0 -58 -474 -791q-43 -66 -104 -66h-164q-3 0 -3 5q0 8 6 19q8 11 17 11h99q32 0 62 35q34 40 262 393q228 356 228 375q0 12 -17 12h-109q-13 0 -2 17q10 16 21 16z" />
    <glyph glyph-name="asciicircum" unicode="^" horiz-adv-x="833" 
 />
    <glyph glyph-name="underscore" unicode="_" horiz-adv-x="441" 
d="M80 -69q-28 0 -42 -14q-13 -15 -10 -15q-8 0 -8 9q0 21 22 46t37 25l242 -5q53 0 75 12q6 3 11 8q3 4 4 4q4 -1 4 -7q0 -15 -20 -41q-23 -26 -38 -26q-10 0 -28 0.5t-50.5 1t-58.5 0.5q-136 2 -140 2z" />
    <glyph glyph-name="grave" unicode="`" horiz-adv-x="833" 
d="M166 562q16 0 28 -18q-1 0 2 -6l9.5 -19l15.5 -31q12 -21 30 -47l18 -24q0 -7 -9 -7q-21 0 -68 41q-51 45 -51 82q0 29 25 29z" />
    <glyph glyph-name="a" unicode="a" 
d="M500 252q2 2 3 2q8 0 8 -34q0 -15 -32 -56q-125 -164 -248 -164q-64 0 -64 53q-56 -52 -112 -52q-39 0 -60 25q-19 22 -19 56q0 88 87 185q91 103 186 103q47 0 65 -37q28 37 66 37q49 0 49 -23q0 1 -1.5 0t-5 -2.5t-7.5 -4.5q-20 -14 -40 -47q-35 -55 -100 -171
q-16 -28 -16 -44q0 -21 19 -21q82 0 222 195zM62 112q0 -48 36 -48q20 0 48 18q37 24 60 65l74 130q5 12 5 18q0 39 -40 39q-49 0 -117 -86q-66 -84 -66 -136z" />
    <glyph glyph-name="b" unicode="b" horiz-adv-x="328" 
d="M449 674q-33 0 -103 -85q-66 -78 -134 -194q80 33 168 124q87 90 87 137q0 18 -18 18zM258 160q-34 -57 -97 -106q-74 -56 -136 -56q-74 0 -74 65q0 25 151 284q-55 10 -55 59q0 22 15 39q13 16 31 16q23 0 30 -12q9 -12 3 -12q-26 0 -26 -22q0 -16 25 -26
q214 322 324 322q21 0 38 -15q17 -17 17 -40q0 -74 -124 -189q-122 -113 -191 -114q-156 -271 -156 -285q0 -22 21 -22q44 0 105 55q54 50 67 82q-3 -6 -3 33t21 81q34 66 70 66q26 0 26 -32q0 -46 -28 -93q-27 -48 -28 -45q4 -4 21 -4q60 0 117 86q4 5 5 4q3 0 8 -20
q5 -23 -6 -36q-54 -71 -131 -71q-21 0 -40 8z" />
    <glyph glyph-name="c" unicode="c" horiz-adv-x="321" 
d="M253 324q-51 0 -113 -78q-62 -79 -62 -142q0 -49 55 -49q116 0 256 195q5 5 7 5q6 0 6 -18q0 -25 -6 -32q-138 -205 -315 -205q-90 0 -90 81q0 85 89 185q92 104 184 104q31 0 48 -16q18 -15 18 -39q0 -27 -16 -46q-17 -20 -43 -20q-36 0 -36 30q0 14 12 26q13 11 24 11
q0 8 -18 8z" />
    <glyph glyph-name="d" unicode="d" horiz-adv-x="426" 
d="M306 330l143 250q10 22 2 33q-11 14 -11 10q0 4 5 7q19 12 47 12q32 0 44 -17t-3 -47l-162 -280q-37 -58 -104 -179q-16 -28 -16 -44q0 -21 19 -21q82 0 222 195q2 2 3 2q8 0 8 -34q0 -15 -32 -56q-125 -164 -248 -164q-64 0 -64 53q-56 -52 -112 -52q-39 0 -60 25
q-19 22 -19 56q0 87 87 185q91 103 186 103q47 0 65 -37zM54 109q0 -48 36 -48q20 0 48 18q37 24 60 65l74 130q5 12 5 18q0 39 -40 39q-49 0 -117 -86q-66 -84 -66 -136z" />
    <glyph glyph-name="e" unicode="e" horiz-adv-x="285" 
d="M58 106q0 -51 55 -51q80 0 178 101q46 46 82 100q3 4 10 -3q7 -8 7 -20q0 -13 -12 -31q-139 -202 -317 -202q-90 0 -90 81q0 85 89 185q92 104 184 104q56 0 56 -56q0 -53 -68 -100q-71 -49 -157 -44q-17 -37 -17 -64zM95 207q58 0 116 38q52 34 52 64q0 24 -25 24
q-32 0 -78 -45q-38 -37 -65 -81z" />
    <glyph glyph-name="f" unicode="f" horiz-adv-x="330" 
d="M175 1q-146 -254 -253 -254q-67 0 -67 74q0 89 264 516q-55 16 -55 61q0 22 13 39q14 20 38 20q21 0 25 -12q0 -1 -8 -7q-10 -7 -10 -19q0 -24 25 -31q207 324 311 324q57 0 57 -61q0 -87 -99 -186t-210 -122q-286 -461 -286 -516q0 -30 25 -30q26 0 86 72q61 74 109 162
q-12 18 -12 81q0 54 27 102q27 47 54 47q35 0 35 -57q0 -75 -46 -163q73 0 142 114q3 4 4 4q10 0 10 -34q0 -43 -49 -85q-50 -44 -105 -44q-15 0 -25 5zM455 673q-43 0 -126 -120q-23 -33 -60 -95q-31 -51 -41 -67q85 35 160 107q85 82 85 151q0 24 -18 24z" />
    <glyph glyph-name="g" unicode="g" horiz-adv-x="363" 
d="M100 -65q-64 0 -144 -49q-87 -52 -87 -104q0 -29 32 -29q53 0 116 64q55 55 83 118zM284 121l-80 -147q33 0 55 -17q22 -16 22 -45q0 -23 -16 -39t-41 -16q-31 0 -31 16q15 11 15 33q0 25 -26 27q-130 -216 -282 -216q-68 0 -68 60q0 79 105 140q91 53 185 59l33 59
q-49 -35 -91 -35q-39 0 -60 25q-19 22 -19 56q0 88 87 185q91 103 186 103q47 0 65 -37q28 37 66 37q49 0 49 -23q0 1 -1.5 0t-5 -2.5t-7.5 -4.5q-20 -14 -40 -47q-35 -55 -100 -171zM71 111q0 -48 36 -48q19 0 48 18q37 24 60 65l74 130q5 12 5 18q0 39 -40 39
q-49 0 -117 -86q-66 -84 -66 -136z" />
    <glyph glyph-name="h" unicode="h" horiz-adv-x="383" 
d="M433 672q-51 0 -194 -233q79 34 145 109q60 69 60 111q0 13 -11 13zM211 390l-69 -108q3 4 3 0l2 2q88 86 148 86q62 0 62 -50q0 -42 -38 -110l-64 -112q-4 -9 -4 -15q0 -24 27 -24q39 0 191 194q3 4 6 4q11 0 11 -21q0 -17 -22 -48q-128 -185 -226 -185q-71 0 -71 60
q0 43 52 120q51 78 51 94q0 19 -22 19q-58 0 -130 -91q-66 -83 -84 -154q-4 -14 10 -24q3 -1 3 -5q0 -5 -5 -8q-19 -13 -57 -13q-41 0 -42 37q0 33 92 191q91 157 91 152q-30 5 -48 23q-20 20 -20 42q0 47 51 47q35 0 35 -15q0 -3 -7 -10q-8 -10 -8 -18q0 -20 23 -28
q190 285 280 285q50 0 50 -47q0 -63 -85 -151q-87 -93 -186 -119z" />
    <glyph glyph-name="i" unicode="i" horiz-adv-x="226" 
d="M282 239q10 16 17 16q9 0 9 -22q0 -17 -34 -63q-129 -169 -247 -169q-27 0 -47 14q-21 17 -21 44q0 23 15 48q101 173 110 191q7 13 7 24q0 9 -7 15t-7 7q0 4 5 7q19 12 47 12q47 0 47 -38q0 -17 -10 -33q-3 -5 -57 -97q-32 -52 -55 -99q-5 -10 -5 -18q0 -19 23 -19
q76 0 210 180zM272 496q0 -24 -20 -46q-21 -22 -46 -22q-34 0 -34 31q0 26 22 48q21 22 48 22q30 0 30 -33z" />
    <glyph glyph-name="j" unicode="j" horiz-adv-x="162" 
d="M-7 -22h3q31 0 53 -17q20 -17 20 -44q0 -23 -16 -39t-41 -16q-31 0 -31 16q12 4 12 28q0 26 -25 26q-128 -212 -279 -212q-68 0 -68 59q0 77 108 142q95 58 183 62q61 96 188 325q7 11 7 25q0 9 -7 15t-7 7q0 3 6 7q16 10 38 12h8q47 0 47 -35q0 -15 -12 -36
q-98 -173 -187 -325zM-310 -243q76 0 197 181q-63 -8 -141 -54q-88 -51 -88 -98q0 -29 32 -29zM243 547q30 0 30 -33q0 -24 -20 -46q-21 -22 -46 -22q-34 0 -34 31q0 26 22 48q21 22 48 22z" />
    <glyph glyph-name="k" unicode="k" horiz-adv-x="412" 
d="M499 274q5 7 11 2q7 -5 8 -15q4 -16 -9 -35l-33 -48q-39 -54 -59 -76q-89 -102 -157 -102q-42 0 -67 49q-24 43 -24 96q0 35 4 63q0 3 -2 1q6 9 -42 -33q-46 -40 -75 -89q-19 -34 -19 -46q0 -10 7 -17q7 -6 7 -8q0 -6 -17 -12q-16 -6 -34 -6q-51 0 -51 36q0 6 4 17
q6 13 172 299l172 297q-4 -7 -6 7q-1 12 -1 40q0 3 5 6q20 12 47 12q34 0 45 -18q11 -20 -8 -52q-3 -7 -117 -200q-113 -196 -120 -208q0 -3 1 -4q167 158 245 158q27 0 44 -17q17 -15 17 -38q0 -25 -16 -44q-17 -20 -42 -20q-15 0 -26 11q-12 12 -12 27q0 37 38 37q5 0 5 4
t-5 4q-53 0 -154 -86q-6 -36 -6 -57q0 -146 69 -146q41 0 112 89q11 13 52 70q33 48 37 52z" />
    <glyph glyph-name="l" unicode="l" horiz-adv-x="207" 
d="M428 672q-49 0 -228 -272q85 28 163 103q83 80 83 151q0 18 -18 18zM10 0q-81 0 -81 56q0 22 16 50q90 158 137 236q-52 15 -52 60q0 22 13 39q14 20 38 20q20 0 25 -12q0 -1 -8 -7q-10 -7 -10 -19q0 -24 25 -31q61 94 125 174q122 147 196 147q23 0 37 -17
q12 -16 12 -37q0 -99 -104 -200q-100 -96 -215 -117q-14 -24 -64 -117q-42 -78 -51 -92q-20 -35 -20 -53q0 -23 28 -23q53 0 146 97q98 101 89 99q8 2 8 -23q0 -20 -9 -31q-157 -199 -281 -199z" />
    <glyph glyph-name="m" unicode="m" horiz-adv-x="567" 
d="M439 298q-65 0 -138 -114q-64 -100 -64 -141q0 -9 9 -14q4 -1 4 -6q0 -3 -3 -5q-23 -20 -59 -20q-42 0 -42 43q0 23 54 111q59 99 62 108q2 8 2 10q0 23 -22 23q-58 0 -130 -91q-66 -83 -84 -154q-4 -14 10 -24q3 -2 3 -5q0 -5 -5 -8q-19 -13 -57 -13q-41 0 -41 38
q0 28 29 78l51 84q48 75 64 112q6 15 6 22q0 10 -6 16l-7 7q0 13 38 13q50 0 50 -32q0 -22 -27 -57q3 5 3 0l2 2q88 86 148 86q64 0 64 -50q0 -7 -3 -15l-1 -4l3 2q82 63 136 63q61 0 61 -60q0 12 -101 -208q-4 -7 -4 -15q0 -26 27 -26q29 0 90 70q51 59 86 114q13 21 18 21
q11 0 11 -21q0 -17 -3 -23q0 -20 -80 -112q-92 -104 -156 -104q-77 0 -77 61q0 43 52 120q51 78 51 94q0 24 -24 24z" />
    <glyph glyph-name="n" unicode="n" horiz-adv-x="405" 
d="M275 274q0 19 -22 19q-58 0 -130 -91q-66 -83 -84 -154q-4 -14 10 -24q3 -2 3 -5q0 -5 -5 -8q-19 -13 -57 -13q-41 0 -41 38q0 28 29 78l51 84q64 99 69 128q2 14 -4 21l-8 8q0 13 36 13q52 0 52 -30q0 -23 -27 -59q3 5 3 0l2 2q88 86 148 86q62 0 62 -50q0 -42 -38 -110
l-64 -112q-4 -7 -4 -15q0 -24 30 -24q50 0 193 203q14 0 14 -26q0 -17 -10 -30q-66 -91 -93 -119q-80 -84 -147 -84q-71 0 -71 60q0 43 52 120q51 78 51 94z" />
    <glyph glyph-name="o" unicode="o" horiz-adv-x="332" 
d="M187 105q-29 17 -29 45q0 20 15 37q15 15 35 15q24 0 37 -12q44 59 44 109q0 36 -37 36q-51 0 -118 -87q-68 -86 -68 -153q0 -42 41 -42q34 0 80 52zM224 95q-82 -93 -160 -93q-81 0 -81 81q0 87 88 184q91 103 185 103q72 0 72 -62q0 -59 -67 -163q54 -13 139 106
q3 4 7 4q8 0 8 -27q0 -15 -12 -32q-82 -105 -179 -101z" />
    <glyph glyph-name="p" unicode="p" horiz-adv-x="379" 
d="M214 55q-9 -6 -9 -9q0 -4 3 -3q122 15 255 207q5 5 7 5q6 0 6 -18q0 -25 -6 -32q-138 -205 -314 -205q-64 0 -96 21q-13 7 -13 25q0 11 6 11l17 -2q18 -2 25 -2q67 1 124 64q57 65 57 136q0 60 -45 60q-59 0 -112 -92l-238 -413q-15 -26 -15 -44q0 -13 14 -13h1q3 0 3 -4
q0 -2 -4 -5q-32 -20 -59 -20q-22 0 -32.5 9.5t-9.5 28.5q2 20 107 202q50 86 165 286q33 57 33 81q0 20 -15 29q-3 2 -3 5t4 6q19 11 44 11q19 0 32 -13q12 -13 12 -32q0 -8 -3 -17q-2 -4 2 -1l6 6q53 48 105 47q38 -2 60 -28q20 -26 20 -63q0 -140 -134 -224z" />
    <glyph glyph-name="q" unicode="q" horiz-adv-x="356" 
d="M368 291q-69 -109 -150 -262q-105 -203 -108 -203q0 -28 24 -28q21 0 70 52q46 49 69 92q1 1 5 -4q4 -6 6 -12q6 -19 -8 -44q-89 -146 -202 -146q-19 0 -35 16q-19 19 -19 51q0 35 40 102l70 122q-37 -28 -82 -28q-39 0 -60 25q-19 22 -19 56q0 88 87 185q91 103 186 103
q47 0 65 -37q28 37 66 37q49 0 49 -23q0 1 -1.5 0t-5 -2.5t-7.5 -4.5q-20 -14 -40 -47zM53 103q0 -48 36 -48q57 0 111 93l59 102q17 32 17 51q0 31 -37 31q-49 0 -118 -90q-68 -88 -68 -139z" />
    <glyph glyph-name="r" unicode="r" horiz-adv-x="326" 
d="M297 368q25 0 42 -20q14 -17 14 -38t-17 -40q-16 -18 -38 -18q-38 0 -38 37q0 12 17 29q1 1 1 3q0 3 -4 3q-40 0 -131 -124q-89 -122 -89 -169q0 -11 14 -11q4 0 4 -4q0 -1 -5 -6q-16 -10 -39 -10q-53 0 -53 44q0 28 67 140q67 113 67 137q0 23 -12 23q-4 0 -4 4t7 7
q25 13 44 13q38 0 38 -44q0 -15 -10 -32q63 76 125 76z" />
    <glyph glyph-name="s" unicode="s" horiz-adv-x="340" 
d="M209 278q-1 -2 -1 -8q0 -10 27 -53t27 -78q0 -43 -44 -90q-3 0 -3 -2t4 -2q102 27 151 108q5 7 8.5 11t5.5 3q9 -1 9 -27q0 -22 -11 -36q-86 -111 -257 -111q-50 0 -87 19q-40 19 -40 48q0 10 7 20q6 10 12 10q-5 0 12 -20q18 -21 48 -21q51 0 83 41q28 37 28 90
q0 37 -13 63q-42 -56 -46 -55q-5 5 -8 19t0 19q34 46 34 50q-3 46 39 96q39 46 69 46q23 0 23 -26q0 -18 -26 -58q-28 -40 -51 -56z" />
    <glyph glyph-name="t" unicode="t" horiz-adv-x="199" 
d="M297 383q3 0 3 -6q-10 -48 -58 -48h-66q-52 -88 -113 -196q-20 -35 -20 -53q0 -23 18 -23q54 0 134 83q51 54 88 112q2 2 3 2q10 0 10 -37q0 -10 -34 -53q-125 -164 -249 -164q-65 0 -65 59q0 50 145 270l-51 1q-13 0 -20 -4q-7 -3 -8 1q-1 2 1 7q4 9 10 18q10 16 28 21
q16 3 69 2q38 63 45 88q5 14 -3 22q-6 7 -3 9q17 12 39 12q52 0 52 -35q0 -15 -12 -36q-2 -4 -35 -60h3q25 0 42 -1q40 0 47 9z" />
    <glyph glyph-name="u" unicode="u" 
d="M478 238l17 22q8 0 8 -28q0 -19 -32 -62q-131 -170 -248 -170q-68 0 -68 59q-71 -59 -130 -59q-68 0 -68 58q0 22 15 48l113 197q7 13 7 23q0 9 -7 16q-7 6 -7 7q0 4 5 7q20 12 46 12q50 0 50 -35q0 -15 -12 -36q-72 -118 -115 -202q-5 -10 -5 -18q0 -19 23 -19
q74 0 173 176q47 83 47 92t-7 16q-7 6 -7 7q0 4 5 7q19 12 46 12q50 0 50 -35q0 -15 -12 -36q-72 -118 -115 -202q-5 -10 -5 -18q0 -19 23 -19q80 0 210 180z" />
    <glyph glyph-name="v" unicode="v" horiz-adv-x="330" 
d="M425 216q-29 -57 -96 -57q-18 0 -40 5l-11 -19q-70 -114 -170 -139q-13 -4 -45 -4q-84 0 -84 70q0 36 75 162q43 73 43 103q0 20 -13 20q-4 0 -4 4q0 2 4 5q32 20 56 20q45 0 45 -44q0 -26 -41 -97q-78 -131 -78 -160q0 -34 33 -34q34 0 73 33q55 47 84 98q-27 24 -31 55
q-8 49 5 83q20 56 62 56q31 0 38 -52q5 -51 -14 -100l-10 -25q7 -3 23 -3q32 0 57 28q5 6 15 20l9 17q8 17 12 12q9 -9 9 -28q0 -15 -6 -29z" />
    <glyph glyph-name="w" unicode="w" horiz-adv-x="468" 
d="M457 153q-23 0 -36 4q-29 -64 -67 -102q-51 -55 -112 -55q-60 0 -83 42q-58 -43 -122 -43q-84 0 -84 70q0 36 75 162q43 73 43 103q0 20 -13 20q-4 0 -4 4q0 2 4 5q32 20 56 20q45 0 45 -44q0 -26 -41 -97q-78 -130 -78 -160q0 -34 33 -34q34 0 73 33q0 60 35 125
q57 108 101 108q18 0 18 -26q0 -38 -38 -109q-42 -77 -77 -104q0 -2 5 -12q13 -25 53 -25t79 39q43 43 65 95q-30 23 -34 59q-8 47 5 83q18 56 62 56q31 0 38 -52q5 -51 -14 -100l-10 -25q8 -3 23 -3q32 0 57 28q5 6 15 20l9 17q8 17 12 12q10 -10 9 -28q-3 -36 -36 -62
q-31 -24 -66 -24z" />
    <glyph glyph-name="x" unicode="x" horiz-adv-x="423" 
d="M67 232q82 124 133 124q58 0 40 -129q107 134 170 134q56 0 56 -54q0 -27 -15 -47q-15 -21 -40 -21q-36 0 -36 31q0 38 32 43q4 1 4 5q-1 3 -6 3q-26 0 -94 -68q-62 -64 -62 -70q0 -135 45 -135q69 0 189 186l29 42q6 0 6 -17q0 -30 -17 -56q-125 -203 -232 -203
q-47 0 -64 26q-18 27 -19 94q0 -8 -52 -57q-63 -60 -112 -60q-42 0 -42 32q0 9 9 17q2 2 10 -5q10 -8 25 -7q55 5 155 123q20 25 4 108q-3 17 -14 17q-13 -2 -93 -102q-5 -8 -10 2t-5 22q0 11 6 22z" />
    <glyph glyph-name="y" unicode="y" horiz-adv-x="366" 
d="M-87 -284q82 0 195 239q-65 -20 -140 -99q-72 -76 -72 -118q0 -22 17 -22zM192 -32q-82 -136 -119 -180q-89 -107 -168 -107q-48 0 -48 49q0 44 51 113q94 128 225 160l34 57q-71 -59 -130 -59q-68 0 -68 58q0 23 15 48q101 175 112 197q7 13 7 23q0 9 -7 16q-7 6 -7 7
q0 4 5 7q20 12 46 12q50 0 50 -35q0 -15 -12 -36q-65 -105 -114 -202q-5 -10 -5 -18q0 -19 23 -19q71 0 174 175q45 82 45 93q0 9 -7 16q-7 6 -7 7q0 4 5 7q20 12 46 12q50 0 50 -35q0 -15 -12 -36q-123 -198 -163 -291q33 0 55 -17q22 -16 22 -45q0 -23 -16 -39t-41 -16
q-31 0 -31 16q16 12 16 35q0 25 -26 27z" />
    <glyph glyph-name="z" unicode="z" horiz-adv-x="354" 
d="M376 352q0 -50 -58 -126q-54 -70 -117 -111q29 -21 39 -61q10 -43 -11 -87q49 -13 49 -60q0 -26 -17 -43t-35 -17q-25 0 -31 16q26 6 26 33q0 18 -15 24q-44 -83 -143 -157q-100 -74 -171 -74q-83 0 -83 63q0 91 129 163q113 64 218 64q40 78 5 104q-62 -35 -94 -35
q-35 0 -35 28q0 20 30 37q30 18 61 19q18 1 37 -2q92 64 145 155q1 4 0 4t-3 -2q-96 -96 -196 -96q-51 0 -51 53q0 45 32 95q35 53 71 53q21 0 21 -32q0 -56 -63 -119l-3 -4q51 0 148 67q97 66 90 66q25 0 25 -18zM-111 -274q62 0 156 100q85 88 85 115h-7q-69 0 -170 -60
q-107 -65 -107 -122q0 -33 43 -33z" />
    <glyph glyph-name="braceleft" unicode="{" horiz-adv-x="340" 
d="M156 259q0 10 11 10q87 0 118 52q147 238 173 276q80 116 192 116h48q5 0 5 -3q0 -16 -18 -16q-96 0 -176 -140q-48 -82 -135 -215q-56 -84 -138 -84q-15 0 -15 -4q0 -3 4 -4q38 -23 32 -72q-5 -40 -107 -205q-12 -12 -39 -62q-38 -68 -38 -105t18 -62q16 -23 18 -23
q0 -9 -15 -9q-26 0 -51 39q-25 38 -25 80q0 64 54 147q34 34 114 196q15 30 15 54q0 21 -11 27q-6 3 -28 3q-6 0 -6 4z" />
    <glyph glyph-name="bar" unicode="|" horiz-adv-x="504" 
d="M661 773l-581 -965q-17 -27 -61 -56t-60 -29t16 54l581 964q16 27 61 56q44 29 60 29t-16 -53z" />
    <glyph glyph-name="braceright" unicode="}" horiz-adv-x="410" 
d="M350 245q-4 -4 -9 -4h-9q-42 0 -83 -33q17 14 -242 -364q-74 -107 -167 -107q-53 0 -54 10q4 9 15 9q75 2 154 140q36 64 185 290q16 25 58 45q38 18 69 18q17 0 17 4q0 1 -8 7q-37 28 -37 67q0 41 70 153q6 6 44 73q44 77 44 103q0 41 -20 75q-2 4 -2 5q0 6 6 6
q3 0 6 -3q63 -71 63 -123q0 -53 -58 -141q-9 -9 -70 -121q-19 -34 -19 -57q0 -43 44 -43q6 0 6 -4q0 -2 -3 -5z" />
    <glyph glyph-name="asciitilde" unicode="~" horiz-adv-x="833" 
d="M255 233q-43 0 -71 -19q-13 -8 -18.5 -12t-4.5 -5q-6 0 -4 8q5 18 34 46q37 36 73 36q40 0 84 -19q42 -19 60 -19q34 0 61 28q28 28 25 28q5 0 5 -8q0 -20 -28 -57q-34 -46 -78 -46q-25 0 -76 20q-48 19 -62 19z" />
    <glyph glyph-name="exclamdown" unicode="&#xa1;" horiz-adv-x="333" 
d="M171 229q32 49 73 29q18 -11 18 -31q1 -22 -15 -46q-15 -22 -37 -28q-22 -4 -38 7q-33 24 -1 69zM-132 -397q-47 0 -47 23l29 20q39 27 113 179q126 256 211 256q7 0 10.5 -1.5t2.5 -3.5q0 2 -15 -9q-75 -54 -141 -263q-40 -124 -84 -169q-32 -32 -79 -32z" />
    <glyph glyph-name="cent" unicode="&#xa2;" horiz-adv-x="324" 
d="M275 333q-56 -5 -119 -88q-61 -80 -61 -141q0 -49 55 -49q80 0 179 102q50 50 83 101q7 0 7 -21q0 -25 -6 -32q-139 -205 -315 -205h-13l-67 -109h-38l71 117q-43 19 -43 73q0 83 84 180q89 101 179 108l60 100h38l-62 -103q40 -13 40 -51q0 -27 -18 -46q-20 -20 -46 -20
q-15 0 -28 11q-12 10 -12 25q0 19 13 29q11 10 25 10q5 0 5 4q0 5 -11 5z" />
    <glyph glyph-name="sterling" unicode="&#xa3;" horiz-adv-x="779" 
d="M200 261l-124 -1l26 37q0 -1 113 -1q48 195 151 286q79 70 173 70q55 0 86 -27t31 -70q0 -78 -69 -140q-65 -56 -132 -56q-28 0 -28 20q0 6 4 13q64 1 110 52q44 50 44 106q0 32 -21 48q-16 15 -41 15q-139 0 -251 -313q96 0 141 1l-24 -35l-129 -1q-36 -83 -120 -175
q150 -64 160 -64q66 0 121 55q16 16 31 37l11 17q5 0 9 -9q5 -10 5 -14q0 -58 -54 -107q-55 -50 -120 -50q-55 0 -122 47q-65 47 -80 47q-41 -45 -128 -45q-21 0 -37 11q-15 11 -15 27q0 37 49 56q36 14 67 14q21 0 46 -5l19 -5q46 35 98 159z" />
    <glyph glyph-name="yen" unicode="&#xa5;" horiz-adv-x="871" 
d="M225 430q0 -35 15 -50q1 -1 1 -2q0 -6 -10 -7q-12 -2 -21 2q-31 10 -31 59q0 81 62 141q62 59 145 59q35 0 89 -25q53 -24 100 -26q33 0 65 24l31 24q10 0 11 -22q2 -23 -12 -35q-287 -245 -287 -385q0 -29 23 -49q20 -16 48 -16q44 0 115 46q71 45 87 82q66 147 140 231
q59 68 97 68q18 0 18 -21q0 -73 -196 -290q2 2 -4 -26.5t-20 -90t-35 -148.5q130 -5 147 9q5 -20 -19 -41q-22 -19 -44 -19l-96 1q-42 -107 -140 -175q-101 -68 -218 -68q-77 0 -133 50q-53 47 -53 112q0 48 28 79q29 32 76 32q26 0 42 -18q15 -17 15 -39q0 -57 -52 -57
q-19 0 -33 17q-3 4 -7 8.5t-5 5.5l-1 2q-12 0 -12 -33q0 -39 34 -72q37 -39 99 -39q167 0 255 196q-159 3 -172 -10q-6 2 -6 12q0 15 23 32q26 17 56 17h124l3 4l69 187q-142 -118 -233 -118q-50 0 -84 32q-33 31 -33 77q0 122 138 257q43 43 95 82l43 34l-11 -2
q-22 -2 -32 -2q-22 0 -73 16q-52 15 -80 15q-67 0 -108 -44q-33 -36 -33 -83z" />
    <glyph glyph-name="brokenbar" unicode="&#xa6;" horiz-adv-x="581" 
d="M603 692l-231 -383q-6 -11 -40 -23q-33 -11 -49 -11q-17 0 -3 21l231 384q6 10 40 22q32 12 49 12q16 0 3 -22zM292 176l-231 -383q-6 -11 -40 -23q-33 -11 -49 -11t-3 21l231 384q6 10 40 22q33 11 49 11q18 0 3 -21z" />
    <glyph glyph-name="section" unicode="&#xa7;" horiz-adv-x="833" 
d="M643 525q0 19 13 33q14 18 39 18q-20 29 -79 29q-41 0 -75 -29q-39 -34 -39 -94q0 -47 34 -134t34 -150q0 -78 -42 -137q-39 -55 -105 -81q-30 -90 -105 -140q-59 -38 -120 -38q-60 0 -100 31q-43 34 -43 93q0 36 26 64q24 26 53 26q55 0 55 -57q0 -50 -48 -50
q-27 0 -37 25q-4 -9 -4 -21q0 -31 32 -52q29 -20 64 -20q56 0 102 40q51 43 51 110q0 59 -31 149t-31 142q0 126 137 183q9 71 66 127q58 58 134 58q62 0 99 -29q36 -29 36 -77q0 -26 -17 -46q-16 -22 -42 -22t-42 15q-15 14 -15 34zM369 315q0 -43 31 -127q32 -88 31 -160
q61 36 61 116q0 54 -33 148q-33 95 -33 131q-57 -23 -57 -108z" />
    <glyph glyph-name="dieresis" unicode="&#xa8;" horiz-adv-x="833" 
d="M305 530q0 -21 -17 -41q-18 -21 -40 -21q-29 0 -29 27q0 23 18 43q19 19 43 19q25 0 25 -27zM423 530q0 -21 -17 -41q-18 -21 -40 -21q-29 0 -29 27q0 23 18 43q19 19 43 19q25 0 25 -27z" />
    <glyph glyph-name="copyright" unicode="&#xa9;" horiz-adv-x="589" 
d="M524 231q-16 -33 -77 -67q-70 -40 -145 -40q-89 0 -142 46q-55 46 -55 127q0 100 86 183q89 83 197 83q164 0 164 -125q0 -81 -64 -145q-66 -68 -153 -68q-91 0 -91 67q0 56 50 115q51 60 107 60q45 0 45 -37q0 -38 -32 -38q-21 0 -21 19q0 7 8 18q7 7 4 11v-1
q-25 15 -65 -37q-41 -53 -41 -95q0 -49 55 -49q51 0 100 55t49 118q0 104 -111 104q-79 0 -154 -72q-78 -75 -78 -162q0 -62 41 -98q40 -37 110 -37q123 0 203 95q4 4 10 -7q6 -13 0 -23z" />
    <glyph glyph-name="ordfeminine" unicode="&#xaa;" horiz-adv-x="432" 
d="M148 438q0 -36 28 -36q45 0 86 71l46 79q12 20 12 39q0 24 -27 24q-38 0 -92 -69q-53 -68 -53 -108zM231 398q-44 -40 -86 -40q-61 0 -61 63q0 67 67 143q70 79 144 79q36 0 50 -29q23 29 51 29q37 0 37 -18q0 1 -2 -0.5t-8 -5.5q-14 -8 -31 -35q-89 -142 -89 -167
q0 -27 31 -27q27 0 65 31q36 30 52 57l9 11q10 0 10 -21q0 -7 -8 -18q-68 -98 -156 -98q-26 0 -46 14t-20 32q0 4 -3 4t-6 -4z" />
    <glyph glyph-name="guillemotleft" unicode="&#xab;" horiz-adv-x="293" 
d="M106 20q37 49 37 98q0 52 -21 99q-20 43 -45 56q-10 6 -10 12q0 11 18 11q69 0 151 60q68 50 99 97q1 3 4 3q6 0 6 -14q0 -22 -50 -81q-57 -67 -114 -81q-4 -1 -4 -4l2 -6q21 -40 21 -87q0 -68 -35 -123q-30 -47 -56 -47q-10 0 -3 7z" />
    <glyph glyph-name="registered" unicode="&#xae;" horiz-adv-x="771" 
d="M275 319q0 16 5 21t33 13q25 8 47 30q23 23 23 41q0 13 -16 13q-35 0 -76 -59q-90 -130 -107 -130q-7 0 -14 4q-9 5 -5 9q42 45 83 122q13 25 13 43q0 15 -12 15q-24 0 -56 -29q-4 0 -4 7l1 8q3 15 30 30q26 15 51 15t25 -30q0 -10 -3 -24l-4 -13q-4 0 31 32q34 31 63 31
q42 0 42 -40q0 -30 -35 -59q-32 -28 -71 -35q-3 -9 -3 -20q0 -45 36 -45q33 0 70 52q39 54 39 110q0 100 -124 100q-93 0 -166 -70q-75 -71 -75 -160q0 -56 38 -99q40 -46 110 -46q133 0 216 101q1 1 2 1q6 0 6 -21q0 -35 -69 -76q-74 -43 -158 -43q-89 0 -141 55
q-51 52 -51 134q0 100 91 178q91 79 208 79q71 0 116 -36q47 -38 47 -98q0 -71 -59 -133q-56 -59 -115 -59q-62 0 -62 81z" />
    <glyph glyph-name="degree" unicode="&#xb0;" horiz-adv-x="253" 
d="M45 590q16 34 52 57q35 23 68 23q34 0 45 -23q10 -23 -6 -57q-40 -79 -121 -79q-33 0 -44 23t6 56zM77 590q-11 -20 -3 -33q8 -14 26 -14q48 0 72 47q11 20 3 34t-27 14q-47 0 -71 -48z" />
    <glyph glyph-name="plusminus" unicode="&#xb1;" horiz-adv-x="435" 
d="M247 305h44q39 0 62 12l18 12h-1q4 -1 4 -7q0 -22 -14 -45q-19 -31 -50 -31q-1 0 -95 2q-49 -88 -49 -110q0 -16 12 -17q-9 -19 -34 -19q-42 0 -42 39q0 21 54 110l-73 -1q-27 0 -40 -7q-10 -6 -10 -8q-8 0 -8 9q0 23 22 45q22 23 41 22l100 -3q46 83 46 96q0 16 -12 17
q7 19 34 19q42 0 42 -39q0 -12 -51 -96zM69 88q-28 0 -42 -14q-13 -15 -10 -15q-8 0 -8 9q0 21 22 46t37 25l242 -5q52 0 75 12q6 3 11 8q3 4 4 4q4 -1 4 -7q0 -15 -20 -41q-23 -26 -38 -26q-10 0 -28 0.5t-50.5 1t-58.5 0.5q-136 2 -140 2z" />
    <glyph glyph-name="uni00B2" unicode="&#xb2;" horiz-adv-x="369" 
d="M240 669q-26 0 -51 -23q-23 -23 -23 -41q0 -15 8 -15v1q-2 7 2 11q4 6 13 6q16 0 16 -18q0 -21 -25 -21q-33 0 -33 34q0 27 27 53q30 30 74 30q24 0 41 -12q18 -14 18 -33q0 -63 -117 -107q-54 -18 -74 -51q10 6 15 6q14 0 31 -4t28 -4q21 0 37 13q15 11 16 21q0 6 4 2
q5 -5 5 -14q0 -10 -21 -31q-25 -25 -57 -25q-11 0 -35 6q-15 5 -33 5q-15 0 -17 -5l-3 -2l-2 2q-5 5 -5 10q23 60 119 97q32 14 54 40q20 25 20 41q0 28 -32 28z" />
    <glyph glyph-name="uni00B3" unicode="&#xb3;" horiz-adv-x="352" 
d="M168 566q12 0 30 5q-16 12 -34 12q-20 0 -20 -6q0 -11 24 -11zM287 631q0 -41 -55 -66q11 -14 11 -37q0 -31 -34 -55q-37 -26 -87 -26q-30 0 -47 16q-16 13 -16 32q0 33 29 33q19 0 19 -18t-15 -18q-10 0 -13 8q-1 0 -1 -1q0 -34 41 -34q37 0 65 27q30 28 21 61
q-17 -5 -37 -5q-43 0 -43 28q0 24 39 24q33 0 53 -20q35 18 35 51q0 37 -43 37q-19 0 -32 -9q-14 -9 -14 -18q0 -8 6 -8h7q5 3 5 -6q0 -17 -22 -17q-21 0 -21 22q0 20 19 36q23 18 57 18q43 0 63 -26q10 -13 10 -29z" />
    <glyph glyph-name="acute" unicode="&#xb4;" horiz-adv-x="833" 
d="M299 562q27 0 27 -26q0 -38 -66 -72q-59 -30 -98 -30q-13 0 -13 10l31 19q33 20 55 42q57 57 64 57z" />
    <glyph glyph-name="paragraph" unicode="&#xb6;" horiz-adv-x="569" 
d="M463 688q41 0 66 -12q18 -9 19 -8q68 44 124 27q55 40 97 40q32 0 32 -29q0 -20 -20 -26q-4 13 -25 13q-61 0 -196 -200q-16 -23 -115 -175q-78 -120 -110 -161q-82 -109 -185 -109q-21 0 -36 4q4 0 -5 -5l-31 -17q-44 -23 -84 -23q-62 0 -99 31q-35 30 -35 78
q0 28 20 50q23 23 57 23q20 0 34 -14q12 -12 12 -28q0 -28 -14 -36q-3 12 -21 12q-24 0 -24 -28q0 -15 14 -29q19 -17 50 -17q97 0 202 131q31 38 70 100q41 64 44 67q2 5 -2 5q6 0 -33 -24l-13 -8q-52 -33 -98 -33q-73 0 -73 75q0 86 117 201q128 125 261 125zM175 90
q74 0 154 122q275 420 314 448h-8q-71 0 -147 -103q-62 -84 -154 -231q-98 -152 -122 -184q-41 -53 -44 -49q0 -1 1 -2t6 -1zM511 643q-90 39 -215 -71q-117 -104 -117 -183v-5q1 -25 25 -28q41 -6 107 45q59 46 86 90q95 152 114 152z" />
    <glyph glyph-name="middot" unicode="&#xb7;" horiz-adv-x="833" 
 />
    <glyph glyph-name="cedilla" unicode="&#xb8;" horiz-adv-x="833" 
d="M335 -35q0 -13 24 -30t24 -37q0 -30 -33 -48q-26 -16 -55 -16q-60 0 -70 49q-4 18 26 30q6 -47 44 -47q29 0 29 26q0 10 -18 30q-19 18 -19 33q0 27 40 46h74q-66 -17 -66 -36z" />
    <glyph glyph-name="uni00B9" unicode="&#xb9;" horiz-adv-x="375" 
d="M309 639q25 -4 25 -29q0 -24 -77 -125t-77 -124q0 -11 10 -11q4 0 5 1q-11 -23 -43 -23q-27 0 -27 26q0 44 111 161q21 21 35 38q-52 -43 -85 -43q-30 0 -30 20l15 1q22 3 39 10q62 26 99 98z" />
    <glyph glyph-name="ordmasculine" unicode="&#xba;" horiz-adv-x="317" 
d="M102 513q-19 10 -19 29q0 34 33 34q13 0 24 -8q29 41 29 71q0 24 -25 24q-33 0 -77 -57q-44 -58 -44 -100q0 -27 27 -27q22 0 52 34zM129 509q-55 -64 -107 -64q-53 0 -53 53q0 56 57 120q60 67 121 67q47 0 47 -40q0 -38 -43 -105q33 0 86 63q2 2 4 2q8 0 8 -17
q0 -8 -3 -12q-52 -67 -117 -67z" />
    <glyph glyph-name="guillemotright" unicode="&#xbb;" horiz-adv-x="363" 
d="M275 449q-37 -49 -37 -98q0 -53 21 -98q19 -43 45 -57q10 -6 10 -12q0 -11 -18 -11q-69 0 -151 -60q-68 -50 -99 -97q-2 -3 -4 -3q-6 0 -6 14q0 22 50 81q57 68 114 81q4 1 4 4q0 1 -1 3t-1 3q-21 41 -21 87q0 68 35 123q30 47 56 47q10 0 3 -7z" />
    <glyph glyph-name="onequarter" unicode="&#xbc;" horiz-adv-x="473" 
d="M422 198q-35 -52 -56 -96q26 -9 35 -9q13 0 15 8q2 6 -5 10q25 7 25 -22q0 -10 -8 -21q-10 -15 -27 -15q-26 0 -53 10q-14 -34 -14 -46q0 -21 13 -22q5 -2 5 -4q-15 -17 -46 -17q-20 0 -31 12q-13 15 -4 45q5 19 20 47q-18 2 -22 2q-55 0 -72 -24q-15 0 -15 15
q0 17 33 64q37 52 83 87q113 91 201 91q10 0 10 -6q0 -2 -23 -28q-31 -34 -64 -81zM455 281q-77 -25 -134 -73q-55 -45 -87 -91q-8 -11 0 -12q6 -1 13 3q30 8 53 8q11 0 14 -1q50 75 141 166zM129 537q16 -6 64 15q68 31 109 102q21 -8 21 -38q0 -6 -14 -40q-22 -35 -43 -65
l-46 -66q-50 -77 -50 -111q0 -20 9 -24q-13 -22 -36 -22q-35 0 -35 38q0 43 68 123q87 104 102 128q2 3 1 4t-3 -2q-17 -21 -53 -46q-43 -30 -68 -30q-30 0 -26 34zM109 46q0 -14 13 -10q0 -36 -41 -36q-31 0 -31 34q0 68 187 292q186 224 186 277q0 21 -12 21q15 17 40 16
q26 -2 26 -31q0 -53 -184 -276t-184 -287z" />
    <glyph glyph-name="onehalf" unicode="&#xbd;" horiz-adv-x="508" 
d="M230 48q-4 -4 3 -3q10 7 29 7q17 0 48 -14q30 -15 41 -15q47 0 75 55q8 -6 8 -17q0 -23 -21 -49q-30 -36 -83 -36q-20 0 -54 20t-49 20q-12 0 -26 -14q-11 -11 -11 -13l-8 5q-8 5 -7 9q14 72 141 133q63 32 85 49q38 32 38 72q0 19 -13 32q-14 14 -37 14q-51 0 -77 -38
q-8 -14 -10 -27q0 -12 7 -12v1q0 1 1.5 4l3.5 7q6 11 20 11q23 0 23 -27q0 -16 -10 -27q-12 -12 -29 -12q-45 0 -45 44q0 42 38 74q39 33 91 33q45 0 70 -19q26 -20 26 -53q0 -98 -167 -155q-70 -25 -101 -59zM129 537q16 -6 64 15q68 31 109 102q21 -8 21 -38q0 -6 -14 -40
q-22 -35 -43 -65l-46 -66q-50 -77 -50 -111q0 -20 9 -24q-13 -22 -36 -22q-35 0 -35 38q0 43 68 123q87 104 102 128q2 3 1 4t-3 -2q-17 -21 -53 -46q-43 -30 -68 -30q-30 0 -26 34zM109 46q0 -14 13 -10q0 -36 -41 -36q-31 0 -31 34q0 68 187 292q186 224 186 277
q0 21 -12 21q15 17 40 16q26 -2 26 -31q0 -53 -184 -276t-184 -287z" />
    <glyph glyph-name="threequarters" unicode="&#xbe;" horiz-adv-x="469" 
d="M211 635q110 0 110 -79q0 -54 -76 -88q20 -32 20 -60q0 -54 -54 -83q-45 -24 -106 -24q-41 0 -70 18q-35 21 -35 56q0 17 12 29t30 12q32 0 32 -31q0 -22 -20 -22q-16 0 -22 9q-4 4 -4 -2q0 -41 69 -41q49 0 84 33q33 32 33 77q0 9 -3 16q-23 -6 -55 -6q-66 0 -66 38
q0 28 56 28q32 0 72 -22q53 27 53 71q0 49 -58 49q-25 0 -44 -10q-20 -11 -20 -24q0 -15 13 -15q8 0 13 6q2 -6 2 -14q0 -26 -35 -26q-42 0 -42 36q0 25 30 46q34 23 81 23zM117 483q0 -10 29 -10q22 0 46 8q-20 11 -41 11q-34 0 -34 -9zM422 198q-35 -52 -56 -96
q26 -9 35 -9q13 0 15 8q2 6 -5 10q25 7 25 -22q0 -10 -8 -21q-10 -15 -27 -15q-26 0 -53 10q-14 -34 -14 -46q0 -21 13 -22q5 -2 5 -4q-15 -17 -46 -17q-20 0 -31 12q-13 15 -4 45q5 19 20 47q-18 2 -22 2q-55 0 -72 -24q-15 0 -15 15q0 17 33 64q37 52 83 87q113 91 201 91
q10 0 10 -6q0 -2 -23 -28q-31 -34 -64 -81zM455 281q-77 -25 -134 -73q-55 -45 -87 -91q-8 -11 0 -12q6 -1 13 3q30 8 53 8q11 0 14 -1q50 75 141 166zM128 46q0 -14 13 -10q0 -36 -41 -36q-31 0 -31 34q0 68 187 292q186 224 186 277q0 21 -12 21q15 17 40 16q26 -2 26 -31
q0 -53 -184 -276t-184 -287z" />
    <glyph glyph-name="questiondown" unicode="&#xbf;" horiz-adv-x="333" 
d="M149 117q46 0 46 -52q0 -42 -47 -83q-27 -24 -103 -72q-151 -94 -151 -173q0 -53 39 -83q34 -26 80 -26q50 0 97 36q48 38 48 81t-27 43q-23 0 -31 -20q-2 -6 -7 5q-6 11 -6 20q0 20 13 36q20 24 58 24q28 0 49 -22q21 -23 21 -59q0 -83 -70 -138q-68 -54 -159 -54
t-140 45q-45 41 -45 105q0 65 83 133q28 21 163 108q94 58 94 118q0 16 -5 28zM268 177q-37 -50 -77 -28q-18 10 -19 31q-2 22 14 45q17 26 41 33q25 8 43 -2q16 -9 15 -33q-2 -24 -17 -46z" />
    <glyph glyph-name="Agrave" unicode="&#xc0;" horiz-adv-x="937" 
d="M647 -57q-100 0 -100 79q0 88 124 272q-27 1 -65 8l-57 9q-122 -207 -178 -274q-110 -128 -234 -128q-53 0 -89 24q-42 27 -42 76q0 37 20 62q20 23 50 23q53 0 53 -50q0 -49 -40 -49q-10 0 -16 3q-6 2 -6 -6q0 -10 14 -19q18 -12 48 -12q104 0 199 110q56 66 161 245
q-12 1 -62 1q-34 0 -56 -16q-24 -17 -24 -38q0 -14 11 -23q12 -7 28 0q4 4 5 -4q0 -11 -7 -22q-17 -24 -45 -26q-25 -2 -43 11q-30 21 -30 55q0 115 167 115q52 0 85 -4q99 166 176 237q110 105 241 105q68 0 111 -43q44 -42 44 -104q0 -106 -82 -176q-89 -77 -247 -90
q-115 -197 -115 -254q0 -40 39 -40q43 0 130 84q4 4 7 4q7 0 7 -18q0 -7 -1 -10q-12 -34 -60 -71q-58 -46 -121 -46zM578 359q87 -7 132 -10q157 214 230 214q8 0 8 -3q0 -2 -6 -8q-59 -62 -146 -200q102 12 170 68q72 58 72 140q0 41 -26 67q-28 28 -78 28q-107 0 -202 -89
q-68 -63 -154 -207zM799 907q16 0 28 -18q-1 0 2 -6l9.5 -19l15.5 -31q12 -21 30 -47l18 -24q0 -7 -9 -7q-21 0 -68 41q-51 45 -51 82q0 29 25 29z" />
    <glyph glyph-name="Aacute" unicode="&#xc1;" horiz-adv-x="982" 
d="M647 -57q-100 0 -100 79q0 88 124 272q-27 1 -65 8l-57 9q-122 -207 -178 -274q-110 -128 -234 -128q-53 0 -89 24q-42 27 -42 76q0 37 20 62q20 23 50 23q53 0 53 -50q0 -49 -40 -49q-10 0 -16 3q-6 2 -6 -6q0 -10 14 -19q18 -12 48 -12q104 0 199 110q56 66 161 245
q-12 1 -62 1q-34 0 -56 -16q-24 -17 -24 -38q0 -14 11 -23q12 -7 28 0q4 4 5 -4q0 -11 -7 -22q-17 -24 -45 -26q-25 -2 -43 11q-30 21 -30 55q0 115 167 115q52 0 85 -4q99 166 176 237q110 105 241 105q68 0 111 -43q44 -42 44 -104q0 -106 -82 -176q-89 -77 -247 -90
q-115 -197 -115 -254q0 -40 39 -40q43 0 130 84q4 4 7 4q7 0 7 -18q0 -7 -1 -10q-12 -34 -60 -71q-58 -46 -121 -46zM578 359q87 -7 132 -10q157 214 230 214q8 0 8 -3q0 -2 -6 -8q-59 -62 -146 -200q102 12 170 68q72 58 72 140q0 41 -26 67q-28 28 -78 28q-107 0 -202 -89
q-68 -63 -154 -207zM1108 904q27 0 27 -26q0 -38 -66 -72q-59 -30 -98 -30q-13 0 -13 10l31 19q33 20 55 42q57 57 64 57z" />
    <glyph glyph-name="Acircumflex" unicode="&#xc2;" horiz-adv-x="937" 
d="M647 -57q-100 0 -100 79q0 88 124 272q-27 1 -65 8l-57 9q-122 -207 -178 -274q-110 -128 -234 -128q-53 0 -89 24q-42 27 -42 76q0 37 20 62q20 23 50 23q53 0 53 -50q0 -49 -40 -49q-10 0 -16 3q-6 2 -6 -6q0 -10 14 -19q18 -12 48 -12q104 0 199 110q56 66 161 245
q-12 1 -62 1q-34 0 -56 -16q-24 -17 -24 -38q0 -14 11 -23q12 -7 28 0q4 4 5 -4q0 -11 -7 -22q-17 -24 -45 -26q-25 -2 -43 11q-30 21 -30 55q0 115 167 115q52 0 85 -4q99 166 176 237q110 105 241 105q68 0 111 -43q44 -42 44 -104q0 -106 -82 -176q-89 -77 -247 -90
q-115 -197 -115 -254q0 -40 39 -40q43 0 130 84q4 4 7 4q7 0 7 -18q0 -7 -1 -10q-12 -34 -60 -71q-58 -46 -121 -46zM578 359q87 -7 132 -10q157 214 230 214q8 0 8 -3q0 -2 -6 -8q-59 -62 -146 -200q102 12 170 68q72 58 72 140q0 41 -26 67q-28 28 -78 28q-107 0 -202 -89
q-68 -63 -154 -207zM990 801q-86 -61 -141 -61q-10 0 -10 9q0 -8 99 58q80 56 80 61q-11 0 44 -91q5 -8 9.5 -14.5t7.5 -11t5 -8t3 -4.5l1 -1q0 -3 -4 -3q-73 1 -94 66z" />
    <glyph glyph-name="Atilde" unicode="&#xc3;" horiz-adv-x="916" 
d="M651 -57q-100 0 -100 79q0 88 124 272q-27 1 -65 8l-57 9q-122 -207 -178 -274q-110 -128 -234 -128q-53 0 -89 24q-42 27 -42 76q0 37 20 62q20 23 50 23q53 0 53 -50q0 -49 -40 -49q-10 0 -16 3q-6 2 -6 -6q0 -10 14 -19q18 -12 48 -12q104 0 199 110q56 66 161 245
q-12 1 -62 1q-34 0 -56 -16q-24 -17 -24 -38q0 -14 11 -23q12 -7 28 0q4 4 5 -4q0 -11 -7 -22q-17 -24 -45 -26q-25 -2 -43 11q-30 21 -30 55q0 115 167 115q52 0 85 -4q99 166 176 237q110 105 241 105q68 0 111 -43q44 -42 44 -104q0 -106 -82 -176q-89 -77 -247 -90
q-115 -197 -115 -254q0 -40 39 -40q43 0 130 84q4 4 7 4q7 0 7 -18q0 -7 -1 -10q-12 -34 -60 -71q-58 -46 -121 -46zM582 359q87 -7 132 -10q157 214 230 214q8 0 8 -3q0 -2 -6 -8q-59 -62 -146 -200q102 12 170 68q72 58 72 140q0 41 -26 67q-28 28 -78 28q-107 0 -202 -89
q-68 -63 -154 -207zM908 815q-23 0 -45 -8l-10 -5l-9 -4q-2 0 -2 3q0 12 36 33q38 23 69 23q26 0 59 -16q34 -17 52 -17q31 0 54 19q22 17 20 17q4 -1 4 -5q0 -14 -28 -42q-34 -36 -74 -36q-23 0 -61 19t-65 19z" />
    <glyph glyph-name="Adieresis" unicode="&#xc4;" horiz-adv-x="942" 
d="M647 -57q-100 0 -100 79q0 88 124 272q-27 1 -65 8l-57 9q-122 -207 -178 -274q-110 -128 -234 -128q-53 0 -89 24q-42 27 -42 76q0 37 20 62q20 23 50 23q53 0 53 -50q0 -49 -40 -49q-10 0 -16 3q-6 2 -6 -6q0 -10 14 -19q18 -12 48 -12q104 0 199 110q56 66 161 245
q-12 1 -62 1q-34 0 -56 -16q-24 -17 -24 -38q0 -14 11 -23q12 -7 28 0q4 4 5 -4q0 -11 -7 -22q-17 -24 -45 -26q-25 -2 -43 11q-30 21 -30 55q0 115 167 115q52 0 85 -4q99 166 176 237q110 105 241 105q68 0 111 -43q44 -42 44 -104q0 -106 -82 -176q-89 -77 -247 -90
q-115 -197 -115 -254q0 -40 39 -40q43 0 130 84q4 4 7 4q7 0 7 -18q0 -7 -1 -10q-12 -34 -60 -71q-58 -46 -121 -46zM578 359q87 -7 132 -10q157 214 230 214q8 0 8 -3q0 -2 -6 -8q-59 -62 -146 -200q102 12 170 68q72 58 72 140q0 41 -26 67q-28 28 -78 28q-107 0 -202 -89
q-68 -63 -154 -207zM977 836q0 -21 -17 -41q-18 -21 -40 -21q-29 0 -29 27q0 23 18 43q19 19 43 19q25 0 25 -27zM1095 836q0 -21 -17 -41q-18 -21 -40 -21q-29 0 -29 27q0 23 18 43q19 19 43 19q25 0 25 -27z" />
    <glyph glyph-name="Aring" unicode="&#xc5;" horiz-adv-x="916" 
d="M1002 852q16 34 52 57q35 23 68 23q34 0 45 -23t-6 -57q-40 -79 -121 -79q-33 0 -44 23t6 56zM1034 852q-10 -20 -3 -33q8 -14 26 -14q48 0 72 47q11 20 3 34t-27 14q-47 0 -71 -48zM652 -57q-100 0 -100 79q0 88 124 272q-27 1 -65 8l-57 9q-122 -207 -178 -274
q-110 -128 -234 -128q-53 0 -89 24q-42 27 -42 76q0 37 20 62q20 23 50 23q53 0 53 -50q0 -49 -40 -49q-10 0 -16 3q-6 2 -6 -6q0 -10 14 -19q18 -12 48 -12q104 0 199 110q56 66 161 245q-12 1 -62 1q-34 0 -56 -16q-24 -17 -24 -38q0 -14 11 -23q12 -7 28 0q4 4 5 -4
q0 -11 -7 -22q-17 -24 -45 -26q-25 -2 -43 11q-30 21 -30 55q0 115 167 115q52 0 85 -4q99 166 176 237q109 105 241 105q68 0 111 -43q44 -42 44 -104q0 -106 -82 -176q-89 -77 -247 -90q-115 -197 -115 -254q0 -40 39 -40q43 0 130 84q4 4 7 4q7 0 7 -18q0 -7 -1 -10
q-12 -34 -60 -71q-58 -46 -121 -46zM583 359q87 -7 132 -10q157 214 230 214q8 0 8 -3q0 -2 -6 -8q-59 -62 -146 -200q102 12 170 68q72 58 72 140q0 41 -26 67q-28 28 -78 28q-107 0 -202 -89q-68 -63 -154 -207z" />
    <glyph glyph-name="AE" unicode="&#xc6;" horiz-adv-x="938" 
d="M604 205q-54 -88 -121 -149q159 -36 172 -36q85 -7 150 83q3 4 9 -8l1 -3q7 -15 1 -26q-22 -39 -72 -73q-55 -37 -103 -37q-68 0 -133 34q-58 30 -69 28l-3 -1q-71 -52 -116 -52q-37 0 -37 27q0 20 39 46q41 28 87 28q15 0 32 -3q66 60 134 269l-116 -2
q-112 -198 -183 -280q-115 -133 -237 -133q-53 0 -90 24q-42 27 -42 77q0 37 20 62q19 24 51 24q53 0 53 -51q0 -49 -40 -49q-10 0 -16 3q-6 1 -6 -6q0 -9 14 -20q18 -12 48 -12q106 0 197 112q53 66 152 248q-66 -1 -72 -3q-4 -1 -1 6q2 5 7 14q12 22 26 22h61
q89 162 164 236q107 105 238 105q43 0 98 -24q56 -24 85 -24q39 0 68 26q29 25 23 25q18 0 18 -19q0 -31 -36 -67q-41 -41 -87 -41q-33 0 -96 31q-63 30 -123 30q-75 0 -147 -83q-49 -57 -127 -195h111q47 98 145 171q79 60 120 60q8 0 8 -3q0 -4 -6 -8q-91 -59 -173 -219
q119 2 159 4l31 2q5 0 -4 -21q-10 -21 -24 -21q-123 0 -180 -1l-32 -65q-26 -54 -30 -62z" />
    <glyph glyph-name="Ccedilla" unicode="&#xc7;" horiz-adv-x="555" 
d="M508 772q80 0 118 -39q30 -31 30 -77q0 -39 -22 -64q-21 -24 -53 -24q-20 0 -35 15q-15 17 -15 36q0 9 5 21q4 -10 19 -10t26 10q13 12 13 31q0 49 -75 49q-136 0 -277 -185q-137 -179 -137 -334q0 -71 38 -109q35 -35 94 -35q93 0 181 68q66 49 110 121q8 11 11 11
q16 0 16 -31q0 -8 -1 -10q-21 -67 -105 -133q-103 -80 -219 -80h-10q-31 -50 -31 -60q0 -2 1 -2q13 7 40 7q58 0 58 -57q0 -51 -60 -100q-56 -46 -104 -46q-28 0 -35 21q-2 6 -2 11q0 7 3 5q3 -1 15 -1q40 0 78 26q42 28 42 65q0 32 -33 32q-14 0 -31 -10t-21 -10
q-11 0 -11 12q0 4 1 5q40 92 46 105v7q-165 29 -165 231q0 166 173 348q171 180 324 180z" />
    <glyph glyph-name="Egrave" unicode="&#xc8;" horiz-adv-x="723" 
d="M274 2q28 96 112 163q84 66 171 66q35 0 58 -18q27 -19 27 -57q0 -80 -88 -149q-93 -72 -216 -72h-13q-4 -47 23 -73q19 -19 46 -19q41 0 41 26q0 15 -9 21q-6 4 -8 5.5t-2 0.5q0 7 10 14q9 9 25 11q19 1 36 -9q22 -13 22 -41q0 -32 -28 -57q-32 -29 -79 -29
q-61 0 -100 41q-42 44 -44 123q-95 4 -161 49q-71 50 -71 129q0 91 83 174q79 78 174 96q-45 36 -45 84q0 100 106 170q101 66 226 66q124 0 195 -58q65 -51 65 -127q0 -46 -27 -79t-64 -33q-74 0 -74 59q0 22 13 38q14 17 32 17q5 0 5 -6q0 -19 18 -19q28 1 28 39
q0 44 -42 75q-54 39 -157 39q-93 0 -169 -59q-72 -55 -72 -119q0 -41 25 -66q47 10 112 10q39 0 78 -11q56 -17 56 -48q0 -54 -113 -54q-90 0 -157 49q-75 -21 -124 -75q-59 -62 -59 -145q0 -53 40 -93q37 -37 95 -49zM551 180q-64 0 -131 -50q-75 -57 -90 -139
q75 -13 169 45q91 55 91 108q0 36 -39 36zM549 904q16 0 28 -18q-1 0 2 -6l9.5 -19l15.5 -31q12 -21 30 -47l18 -24q0 -7 -9 -7q-21 0 -68 41q-51 45 -51 82q0 29 25 29z" />
    <glyph glyph-name="Eacute" unicode="&#xc9;" horiz-adv-x="723" 
d="M274 2q28 96 112 163q84 66 171 66q35 0 58 -18q27 -19 27 -57q0 -80 -88 -149q-93 -72 -216 -72h-13q-4 -47 23 -73q19 -19 46 -19q41 0 41 26q0 15 -9 21q-6 4 -8 5.5t-2 0.5q0 7 10 14q9 9 25 11q19 1 36 -9q22 -13 22 -41q0 -32 -28 -57q-32 -29 -79 -29
q-61 0 -100 41q-42 44 -44 123q-95 4 -161 49q-71 50 -71 129q0 91 83 174q79 78 174 96q-45 36 -45 84q0 100 106 170q101 66 226 66q124 0 195 -58q65 -51 65 -127q0 -46 -27 -79t-64 -33q-74 0 -74 59q0 22 13 38q14 17 32 17q5 0 5 -6q0 -19 18 -19q28 1 28 39
q0 44 -42 75q-54 39 -157 39q-93 0 -169 -59q-72 -55 -72 -119q0 -41 25 -66q47 10 112 10q39 0 78 -11q56 -17 56 -48q0 -54 -113 -54q-90 0 -157 49q-75 -21 -124 -75q-59 -62 -59 -145q0 -53 40 -93q37 -37 95 -49zM551 180q-64 0 -131 -50q-75 -57 -90 -139
q75 -13 169 45q91 55 91 108q0 36 -39 36zM756 905q27 0 27 -26q0 -37 -66 -72q-59 -30 -98 -30q-13 0 -13 10l31 19q33 20 55 42q57 57 64 57z" />
    <glyph glyph-name="Ecircumflex" unicode="&#xca;" horiz-adv-x="723" 
d="M274 2q28 96 112 163q84 66 171 66q35 0 58 -18q27 -19 27 -57q0 -80 -88 -149q-93 -72 -216 -72h-13q-4 -47 23 -73q19 -19 46 -19q41 0 41 26q0 15 -9 21q-6 4 -8 5.5t-2 0.5q0 7 10 14q9 9 25 11q19 1 36 -9q22 -13 22 -41q0 -32 -28 -57q-32 -29 -79 -29
q-61 0 -100 41q-42 44 -44 123q-95 4 -161 49q-71 50 -71 129q0 91 83 174q79 78 174 96q-45 36 -45 84q0 100 106 170q101 66 226 66q124 0 195 -58q65 -51 65 -127q0 -46 -27 -79t-64 -33q-74 0 -74 59q0 22 13 38q14 17 32 17q5 0 5 -6q0 -19 18 -19q28 1 28 39
q0 44 -42 75q-54 39 -157 39q-93 0 -169 -59q-72 -55 -72 -119q0 -41 25 -66q47 10 112 10q39 0 78 -11q56 -17 56 -48q0 -54 -113 -54q-90 0 -157 49q-75 -21 -124 -75q-59 -62 -59 -145q0 -53 40 -93q37 -37 95 -49zM551 180q-64 0 -131 -50q-75 -57 -90 -139
q75 -13 169 45q91 55 91 108q0 36 -39 36zM663 799q-86 -61 -141 -61q-10 0 -10 9q0 -8 99 58q80 56 80 61q-11 0 44 -91q5 -8 9.5 -14.5t7.5 -11t5 -8t3 -4.5l1 -1q0 -3 -4 -3q-73 1 -94 66z" />
    <glyph glyph-name="Edieresis" unicode="&#xcb;" horiz-adv-x="723" 
d="M274 2q28 96 112 163q84 66 171 66q35 0 58 -18q27 -19 27 -57q0 -80 -88 -149q-93 -72 -216 -72h-13q-4 -47 23 -73q19 -19 46 -19q41 0 41 26q0 15 -9 21q-6 4 -8 5.5t-2 0.5q0 7 10 14q9 9 25 11q19 1 36 -9q22 -13 22 -41q0 -32 -28 -57q-32 -29 -79 -29
q-61 0 -100 41q-42 44 -44 123q-95 4 -161 49q-71 50 -71 129q0 91 83 174q79 78 174 96q-45 36 -45 84q0 100 106 170q101 66 226 66q124 0 195 -58q65 -51 65 -127q0 -46 -27 -79t-64 -33q-74 0 -74 59q0 22 13 38q14 17 32 17q5 0 5 -6q0 -19 18 -19q28 1 28 39
q0 44 -42 75q-54 39 -157 39q-93 0 -169 -59q-72 -55 -72 -119q0 -41 25 -66q47 10 112 10q39 0 78 -11q56 -17 56 -48q0 -54 -113 -54q-90 0 -157 49q-75 -21 -124 -75q-59 -62 -59 -145q0 -53 40 -93q37 -37 95 -49zM551 180q-64 0 -131 -50q-75 -57 -90 -139
q75 -13 169 45q91 55 91 108q0 36 -39 36zM642 837q0 -21 -17 -41q-18 -21 -40 -21q-29 0 -29 27q0 24 18 43q19 19 43 19q25 0 25 -27zM760 837q0 -21 -17 -41q-18 -21 -40 -21q-29 0 -29 27q0 24 18 43q19 19 43 19q25 0 25 -27z" />
    <glyph glyph-name="Igrave" unicode="&#xcc;" horiz-adv-x="598" 
d="M171 2q128 0 215 121q22 30 134 253q74 142 204 240q1 1 1 7q-22 -13 -70 -13q-31 0 -85 16t-86 16q-110 0 -176 -83q-54 -67 -54 -145q0 -36 18 -62q18 -27 45 -27q5 0 3 6q-10 16 -10 32q0 21 15 35q14 14 35 14q20 0 35 -17t15 -42q0 -31 -22 -53q-26 -26 -70 -26
q-48 0 -79 37q-36 41 -36 117q0 105 95 195q95 89 199 89q35 0 113 -22t104 -22q37 2 68 23q32 22 29 23q14 0 14 -36q0 -13 -41 -57q-56 -61 -84 -102q-21 -29 -79 -150q-61 -124 -102 -188q-149 -230 -344 -230q-57 0 -98 25q-51 30 -51 86q0 34 26 60q25 23 50 23
q67 0 67 -57q0 -29 -26 -41q-23 -11 -35 2q8 7 6 18q-2 12 -13 12q-21 0 -21 -22q0 -55 91 -55zM541 907q16 0 28 -18q-1 0 2 -6l9.5 -19l15.5 -31q12 -21 30 -47l18 -24q0 -7 -9 -7q-21 0 -68 41q-51 45 -51 82q0 29 25 29z" />
    <glyph glyph-name="Iacute" unicode="&#xcd;" horiz-adv-x="602" 
d="M175 2q128 0 215 121q22 30 134 253q74 142 204 240q1 1 1 7q-22 -13 -70 -13q-31 0 -85 16t-86 16q-110 0 -176 -83q-54 -67 -54 -145q0 -36 18 -62q18 -27 45 -27q5 0 3 6q-10 16 -10 32q0 21 15 35q14 14 35 14q20 0 35 -17t15 -42q0 -31 -22 -53q-26 -26 -70 -26
q-48 0 -79 37q-36 41 -36 117q0 105 95 195q95 89 199 89q35 0 113 -22t104 -22q37 2 68 23q32 22 29 23q14 0 14 -36q0 -13 -41 -57q-56 -61 -84 -102q-21 -29 -79 -150q-61 -124 -102 -188q-149 -230 -344 -230q-57 0 -98 25q-51 30 -51 86q0 34 26 60q25 23 50 23
q67 0 67 -57q0 -29 -26 -41q-23 -11 -35 2q8 7 6 18q-2 12 -13 12q-21 0 -21 -22q0 -55 91 -55zM815 908q-7 0 -64 -57q-22 -22 -55 -42l-31 -19q0 -10 13 -10q40 0 98 30q66 34 66 72q0 26 -27 26z" />
    <glyph glyph-name="Icircumflex" unicode="&#xce;" horiz-adv-x="600" 
d="M173 2q128 0 215 121q22 30 134 253q74 142 204 240q1 1 1 7q-22 -13 -70 -13q-31 0 -85 16t-86 16q-110 0 -176 -83q-54 -67 -54 -145q0 -36 18 -62q18 -27 45 -27q5 0 3 6q-10 16 -10 32q0 21 15 35q14 14 35 14q20 0 35 -17t15 -42q0 -31 -22 -53q-26 -26 -70 -26
q-48 0 -79 37q-36 41 -36 117q0 105 95 195q95 89 199 89q35 0 113 -22t104 -22q37 2 68 23q32 22 29 23q14 0 14 -36q0 -13 -41 -57q-56 -61 -84 -102q-21 -29 -79 -150q-61 -124 -102 -188q-149 -230 -344 -230q-57 0 -98 25q-51 30 -51 86q0 34 26 60q25 23 50 23
q67 0 67 -57q0 -29 -26 -41q-23 -11 -35 2q8 7 6 18q-2 12 -13 12q-21 0 -21 -22q0 -55 91 -55zM731 797q21 -65 94 -66q4 0 4 3l-1 1q-1 1 -3 4.5t-5 8t-7.5 11t-9.5 14.5q-55 91 -44 91q5 0 -16 -16l-64 -45q-99 -66 -99 -58q0 -9 10 -9q55 0 141 61z" />
    <glyph glyph-name="Idieresis" unicode="&#xcf;" horiz-adv-x="600" 
d="M173 2q128 0 215 121q22 30 134 253q74 142 204 240q1 1 1 7q-22 -13 -70 -13q-31 0 -85 16t-86 16q-110 0 -176 -83q-54 -67 -54 -145q0 -36 18 -62q18 -27 45 -27q5 0 3 6q-10 16 -10 32q0 21 15 35q14 14 35 14q20 0 35 -17t15 -42q0 -31 -22 -53q-26 -26 -70 -26
q-48 0 -79 37q-36 41 -36 117q0 105 95 195q95 89 199 89q35 0 113 -22t104 -22q37 2 68 23q32 22 29 23q14 0 14 -36q0 -13 -41 -57q-56 -61 -84 -102q-21 -29 -79 -150q-61 -124 -102 -188q-149 -230 -344 -230q-57 0 -98 25q-51 30 -51 86q0 34 26 60q25 23 50 23
q67 0 67 -57q0 -29 -26 -41q-23 -11 -35 2q8 7 6 18q-2 12 -13 12q-21 0 -21 -22q0 -55 91 -55zM656 836q0 27 -25 27q-24 0 -43 -19q-18 -20 -18 -43q0 -27 29 -27q22 0 40 21q17 20 17 41zM774 836q0 27 -25 27q-24 0 -43 -19q-18 -20 -18 -43q0 -27 29 -27q22 0 40 21
q17 20 17 41z" />
    <glyph glyph-name="Ntilde" unicode="&#xd1;" horiz-adv-x="750" 
d="M33 24q90 0 150 68q37 44 87 156q55 120 90 169q62 84 156 110l7 1q5 0 5 -5q0 -4 -9 -13q-70 -66 -120 -173q-85 -181 -144 -251q-93 -111 -219 -111q-49 0 -81 29t-32 70q0 31 20 54q18 20 46 20h2q53 -2 53 -52q0 -15 -11 -29q-12 -13 -29 -13q-5 0 -8 1l-6 1
q-5 0 -5 -5q0 -9 14 -18q15 -9 34 -9zM380 667q-106 0 -192 -85q-83 -83 -83 -173q0 -36 16 -56q15 -20 39 -20q30 0 30 13q0 1 -3 1q-11 0 -18 12q-8 11 -8 23q0 22 16 35q14 14 31 14q25 0 40 -17q15 -16 15 -39q0 -39 -31 -69q-32 -30 -71 -30q-45 0 -76 26
q-40 34 -40 107q0 112 92 204q108 108 282 108q106 -2 168 -61q61 -58 61 -154q0 -41 -58 -197t-58 -205q0 -54 15 -55q4 0 11 22q68 215 191 400q164 245 323 245q71 0 71 -47q0 -13 -8 -26q-8 -11 -17 -11q-7 0 -9 2q1 3 1 9q0 19 -44 19q-134 0 -299 -279
q-137 -229 -168 -384q-8 -35 -28 -35q-37 0 -66 38q-30 40 -30 104q0 76 40 202q39 128 39 191q0 87 -52 130q-46 38 -122 38zM703 810q-23 0 -45 -8q-4 -2 -10 -4l-9 -5q-2 0 -2 3q0 12 36 33q38 23 69 23q26 0 59 -16q34 -17 52 -17q31 0 54 19q22 17 20 17q4 -1 4 -5
q0 -14 -28 -42q-35 -36 -74 -36q-23 0 -61 19t-65 19z" />
    <glyph glyph-name="Ograve" unicode="&#xd2;" horiz-adv-x="696" 
d="M201 657q0 49 45 86q51 42 135 42q117 0 176 -96q21 12 63 12q58 0 96 -44t38 -119q0 -223 -164 -404q-173 -191 -411 -191q-178 0 -178 176q0 111 106 254q97 132 204 195q27 15 55 15q11 0 11 -4q0 -3 -7 -9q-92 -74 -179 -209q-97 -148 -97 -248q0 -115 102 -115
q162 0 328 184q167 185 167 368q0 44 -18 72q-19 30 -53 30q-13 0 -31 -5l-12 -5h1q8 -21 8 -53q0 -101 -58 -192q-63 -97 -144 -97q-27 0 -44 20q-19 20 -19 56q0 74 55 156q56 83 136 132q-42 70 -132 70q-43 0 -73 -21q-26 -20 -26 -40q0 -27 26 -27q2 0 6 2l5 2
q7 0 7 -15q0 -17 -15 -29q-17 -14 -41 -14q-29 0 -48 18q-20 20 -20 47zM533 576q0 25 -4 40q-67 -44 -114 -120q-43 -70 -43 -119q0 -25 21 -25q47 0 94 75q46 73 46 149zM570 907q16 0 28 -18q-1 0 2 -6l9.5 -19l15.5 -31q12 -21 30 -47l18 -24q0 -7 -9 -7q-21 0 -68 41
q-51 45 -51 82q0 29 25 29z" />
    <glyph glyph-name="Oacute" unicode="&#xd3;" horiz-adv-x="695" 
d="M201 657q0 49 45 86q51 42 135 42q117 0 176 -96q21 12 63 12q58 0 96 -44t38 -119q0 -223 -164 -404q-173 -191 -411 -191q-178 0 -178 176q0 111 106 254q97 132 204 195q27 15 55 15q11 0 11 -4q0 -3 -7 -9q-92 -74 -179 -209q-97 -148 -97 -248q0 -115 102 -115
q162 0 328 184q167 185 167 368q0 44 -18 72q-19 30 -53 30q-13 0 -31 -5l-12 -5h1q8 -21 8 -53q0 -101 -58 -192q-63 -97 -144 -97q-27 0 -44 20q-19 20 -19 56q0 74 55 156q56 83 136 132q-42 70 -132 70q-43 0 -73 -21q-26 -20 -26 -40q0 -27 26 -27q2 0 6 2l5 2
q7 0 7 -15q0 -17 -15 -29q-17 -14 -41 -14q-29 0 -48 18q-20 20 -20 47zM533 576q0 25 -4 40q-67 -44 -114 -120q-43 -70 -43 -119q0 -25 21 -25q47 0 94 75q46 73 46 149zM756 911q27 0 27 -26q0 -37 -66 -72q-59 -30 -98 -30q-13 0 -13 10l31 19q33 20 55 42q57 57 64 57z
" />
    <glyph glyph-name="Ocircumflex" unicode="&#xd4;" horiz-adv-x="695" 
d="M200 657q0 49 45 86q51 42 135 42q118 0 176 -96q21 12 63 12q58 0 96 -44t38 -119q0 -223 -164 -404q-173 -191 -411 -191q-178 0 -178 176q0 111 106 254q98 132 204 195q27 15 55 15q11 0 11 -4q0 -3 -7 -9q-92 -74 -179 -209q-97 -148 -97 -248q0 -115 102 -115
q162 0 328 184q167 185 167 368q0 44 -18 72q-20 30 -53 30q-13 0 -31 -5l-12 -5h1q8 -21 8 -53q0 -101 -58 -192q-63 -97 -144 -97q-27 0 -44 20q-19 20 -19 56q0 74 55 156q56 83 136 132q-42 70 -132 70q-43 0 -73 -21q-26 -20 -26 -40q0 -27 26 -27q2 0 6 2l5 2
q7 0 7 -15q0 -17 -15 -29q-17 -14 -41 -14q-28 0 -48 18q-20 20 -20 47zM532 576q0 25 -4 40q-68 -44 -114 -120q-43 -70 -43 -119q0 -25 21 -25q48 0 94 75q46 73 46 149zM735 800q-86 -61 -141 -61q-10 0 -10 9q0 -8 99 58q80 56 80 61q-11 0 44 -91q5 -8 9.5 -14.5
t7.5 -11t5 -8t3 -4.5l1 -1q0 -3 -4 -3q-73 1 -94 66z" />
    <glyph glyph-name="Otilde" unicode="&#xd5;" horiz-adv-x="694" 
d="M200 657q0 49 45 86q51 42 135 42q118 0 176 -96q21 12 63 12q58 0 96 -44t38 -119q0 -223 -164 -404q-173 -191 -411 -191q-178 0 -178 176q0 111 106 254q98 132 204 195q27 15 55 15q11 0 11 -4q0 -3 -7 -9q-92 -74 -179 -209q-97 -148 -97 -248q0 -115 102 -115
q162 0 328 184q167 185 167 368q0 44 -18 72q-20 30 -53 30q-13 0 -31 -5l-12 -5h1q8 -21 8 -53q0 -101 -58 -192q-63 -97 -144 -97q-27 0 -44 20q-19 20 -19 56q0 74 55 156q56 83 136 132q-42 70 -132 70q-43 0 -73 -21q-26 -20 -26 -40q0 -27 26 -27q2 0 6 2l5 2
q7 0 7 -15q0 -17 -15 -29q-17 -14 -41 -14q-28 0 -48 18q-20 20 -20 47zM532 576q0 25 -4 40q-68 -44 -114 -120q-43 -70 -43 -119q0 -25 21 -25q48 0 94 75q46 73 46 149zM651 810q-23 0 -45 -8q-4 -2 -10 -4l-9 -5q-2 0 -2 3q0 12 36 33q38 23 69 23q26 0 59 -16
q34 -17 52 -17q31 0 54 19q22 17 20 17q4 -1 4 -5q0 -14 -28 -42q-35 -36 -74 -36q-23 0 -61 19t-65 19z" />
    <glyph glyph-name="Odieresis" unicode="&#xd6;" horiz-adv-x="696" 
d="M201 657q0 49 45 86q51 42 135 42q117 0 176 -96q21 12 63 12q58 0 96 -44t38 -119q0 -223 -164 -404q-173 -191 -411 -191q-178 0 -178 176q0 111 106 254q97 132 204 195q27 15 55 15q11 0 11 -4q0 -3 -7 -9q-92 -74 -179 -209q-97 -148 -97 -248q0 -115 102 -115
q162 0 328 184q167 185 167 368q0 44 -18 72q-19 30 -53 30q-13 0 -31 -5l-12 -5h1q8 -21 8 -53q0 -101 -58 -192q-63 -97 -144 -97q-27 0 -44 20q-19 20 -19 56q0 74 55 156q56 83 136 132q-42 70 -132 70q-43 0 -73 -21q-26 -20 -26 -40q0 -27 26 -27q2 0 6 2l5 2
q7 0 7 -15q0 -17 -15 -29q-17 -14 -41 -14q-29 0 -48 18q-20 20 -20 47zM533 576q0 25 -4 40q-67 -44 -114 -120q-43 -70 -43 -119q0 -25 21 -25q47 0 94 75q46 73 46 149zM726 837q0 -21 -17 -41q-18 -21 -40 -21q-29 0 -29 27q0 24 18 43q19 19 43 19q25 0 25 -27z
M844 837q0 -21 -17 -41q-18 -21 -40 -21q-29 0 -29 27q0 24 18 43q19 19 43 19q25 0 25 -27z" />
    <glyph glyph-name="Oslash" unicode="&#xd8;" horiz-adv-x="695" 
d="M77 130q0 -101 68 -121q16 30 39 67l38 66q50 88 171 297l156 266q7 13 7 24q0 9 -7 15t-7 7q0 4 5 7q19 12 47 12q31 0 41 -16q11 -17 -2 -44q55 -2 89 -33q38 -35 38 -95q0 -192 -174 -401q-183 -217 -384 -228v-9q0 -13 14 -13h1q3 0 3 -4q0 -2 -4 -5q-32 -20 -59 -20
q-22 0 -32.5 9.5t-9.5 28.5q0 5 4 17q-135 24 -135 163q0 105 92 235q76 107 186 192q59 47 107 48q8 0 8 -5q0 -4 -55 -50q-71 -62 -110 -106q-135 -154 -135 -304zM641 659q-24 0 -39 -4l-376 -650q141 26 311 227q172 202 172 345q0 38 -19 60q-18 22 -49 22z" />
    <glyph glyph-name="Ugrave" unicode="&#xd9;" horiz-adv-x="879" 
d="M1038 652q35 0 57 -5q7 -1 7 -6q0 -2 -14 -19q-106 -106 -225 -306q-136 -226 -136 -340q0 -60 34 -94q32 -31 85 -31q18 0 40 7l22 7q2 0 2 -2q0 -22 -35 -45q-38 -23 -84 -23q-71 0 -114 42q-46 42 -46 113q0 99 128 316q119 199 219 301q2 2 2 3q-1 7 -6 7l-5 -1
q-61 -32 -279 -348q-192 -278 -344 -278q-66 0 -103 37q-35 33 -35 81q0 124 172 303q192 198 206 239q-50 -24 -102 -24q-30 0 -97 32t-125 32q-80 0 -142 -51q-64 -54 -64 -128q0 -62 35 -88q2 -2 6 -2q5 0 3 6q-3 7 -3 16q0 19 15 32q16 14 36 14q21 0 36 -15
q15 -17 15 -37q0 -30 -22 -52t-53 -22q-47 0 -80 37q-39 42 -39 119q0 103 90 170q88 66 221 66q31 0 116 -35q87 -35 116 -35q44 0 74 30q10 9 17 16l10 10t2 3q13 0 13 -34q0 -69 -178 -283q-179 -215 -179 -295q0 -69 66 -69t155 98q48 54 163 217q109 152 171 216
q96 98 176 98zM728 902q16 0 28 -18q-1 0 2 -6l9.5 -19l15.5 -31q12 -21 30 -47l18 -24q0 -7 -9 -7q-21 0 -68 41q-51 45 -51 82q0 29 25 29z" />
    <glyph glyph-name="Uacute" unicode="&#xda;" horiz-adv-x="879" 
d="M1038 652q35 0 57 -5q7 -1 7 -6q0 -2 -14 -19q-106 -106 -225 -306q-136 -226 -136 -340q0 -60 34 -94q32 -31 85 -31q18 0 40 7l22 7q2 0 2 -2q0 -22 -35 -45q-38 -23 -84 -23q-71 0 -114 42q-46 42 -46 113q0 99 128 316q119 199 219 301q2 2 2 3q-1 7 -6 7l-5 -1
q-61 -32 -279 -348q-192 -278 -344 -278q-66 0 -103 37q-35 33 -35 81q0 124 172 303q192 198 206 239q-50 -24 -102 -24q-30 0 -97 32t-125 32q-80 0 -142 -51q-64 -54 -64 -128q0 -62 35 -88q2 -2 6 -2q5 0 3 6q-3 7 -3 16q0 19 15 32q16 14 36 14q21 0 36 -15
q15 -17 15 -37q0 -30 -22 -52t-53 -22q-47 0 -80 37q-39 42 -39 119q0 103 90 170q88 66 221 66q31 0 116 -35q87 -35 116 -35q44 0 74 30q10 9 17 16l10 10t2 3q13 0 13 -34q0 -69 -178 -283q-179 -215 -179 -295q0 -69 66 -69t155 98q48 54 163 217q109 152 171 216
q96 98 176 98zM975 908q27 0 27 -26q0 -38 -66 -72q-58 -30 -98 -30q-13 0 -13 10l31 19q33 20 55 42q57 57 64 57z" />
    <glyph glyph-name="Ucircumflex" unicode="&#xdb;" horiz-adv-x="903" 
d="M1036 652q35 0 57 -5q7 -1 7 -6q0 -2 -14 -19q-106 -106 -225 -306q-136 -226 -136 -340q0 -60 34 -94q32 -31 85 -31q18 0 40 7l22 7q2 0 2 -2q0 -22 -35 -45q-38 -23 -84 -23q-71 0 -114 42q-46 42 -46 113q0 99 128 316q119 199 219 301q2 2 2 3q-1 7 -6 7l-5 -1
q-61 -32 -279 -348q-192 -278 -344 -278q-66 0 -103 37q-35 33 -35 81q0 124 172 303q192 198 206 239q-50 -24 -102 -24q-30 0 -97 32t-125 32q-80 0 -142 -51q-64 -54 -64 -128q0 -62 35 -88q2 -2 6 -2q5 0 3 6q-3 7 -3 16q0 19 15 32q16 14 36 14q21 0 36 -15
q15 -17 15 -37q0 -30 -22 -52t-53 -22q-47 0 -80 37q-39 42 -39 119q0 103 90 170q88 66 221 66q31 0 116 -35q87 -35 116 -35q44 0 74 30q10 9 17 16l10 10t2 3q13 0 13 -34q0 -69 -178 -283q-179 -215 -179 -295q0 -69 66 -69t155 98q48 54 163 217q109 152 171 216
q96 98 176 98zM934 801q-86 -61 -141 -61q-10 0 -10 9q0 -8 99 58q80 56 80 61q-11 0 44 -91q5 -8 9.5 -14.5t7.5 -11t5 -8t3 -4.5l1 -1q0 -3 -4 -3q-73 1 -94 66z" />
    <glyph glyph-name="Udieresis" unicode="&#xdc;" horiz-adv-x="879" 
d="M1038 652q35 0 57 -5q7 -1 7 -6q0 -2 -14 -19q-106 -106 -225 -306q-136 -226 -136 -340q0 -60 34 -94q32 -31 85 -31q18 0 40 7l22 7q2 0 2 -2q0 -22 -35 -45q-38 -23 -84 -23q-71 0 -114 42q-46 42 -46 113q0 99 128 316q119 199 219 301q2 2 2 3q-1 7 -6 7l-5 -1
q-61 -32 -279 -348q-192 -278 -344 -278q-66 0 -103 37q-35 33 -35 81q0 124 172 303q192 198 206 239q-50 -24 -102 -24q-30 0 -97 32t-125 32q-80 0 -142 -51q-64 -54 -64 -128q0 -62 35 -88q2 -2 6 -2q5 0 3 6q-3 7 -3 16q0 19 15 32q16 14 36 14q21 0 36 -15
q15 -17 15 -37q0 -30 -22 -52t-53 -22q-47 0 -80 37q-39 42 -39 119q0 103 90 170q88 66 221 66q31 0 116 -35q87 -35 116 -35q44 0 74 30q10 9 17 16l10 10t2 3q13 0 13 -34q0 -69 -178 -283q-179 -215 -179 -295q0 -69 66 -69t155 98q48 54 163 217q109 152 171 216
q96 98 176 98zM916 837q0 -21 -17 -41q-18 -21 -40 -21q-29 0 -29 27q0 24 18 43q19 19 43 19q25 0 25 -27zM1034 837q0 -21 -17 -41q-18 -21 -40 -21q-29 0 -29 27q0 24 18 43q19 19 43 19q25 0 25 -27z" />
    <glyph glyph-name="Yacute" unicode="&#xdd;" horiz-adv-x="746" 
d="M535 4q248 381 344 481q-1 1 -6 1q-11 0 -27 -11q-14 -10 -234 -236q-176 -183 -306 -183q-50 0 -80 30t-30 82q0 108 189 269q198 167 202 191q-75 -22 -114 -20q-28 1 -91 23q-57 19 -88 19q-98 0 -162 -55q-63 -53 -63 -128q0 -34 16 -59q15 -27 36 -27q7 0 3 7
q-12 23 3 44t41 21q18 0 32 -15q14 -14 14 -33q0 -33 -23 -53q-23 -22 -65 -22q-44 0 -75 36q-34 40 -34 102q0 96 91 172q93 78 216 78q49 0 124 -28t112 -28q66 0 106 39q6 0 6 -16q0 -40 -25 -68q-28 -35 -102 -110q-97 -99 -114 -118q-131 -140 -131 -207q0 -46 60 -46
q104 0 303 222q102 114 147 153q80 69 139 69q37 0 67 -34q-172 -136 -400 -566q84 -41 84 -110q0 -30 -20 -53q-21 -23 -50 -23q-35 0 -52 17q-7 7 -8 12q-2 5 1 5q16 -4 31 8q19 13 19 42q0 34 -34 47q-174 -246 -405 -246q-157 0 -157 113q0 83 119 152q122 71 276 71
q46 0 115 -11zM172 -269q173 0 327 223q-33 12 -75 12q-128 0 -235 -57q-104 -56 -104 -122q0 -56 87 -56zM924 903q27 0 27 -26q0 -37 -66 -72q-59 -30 -98 -30q-13 0 -13 10l31 19q33 20 55 42q57 57 64 57z" />
    <glyph glyph-name="germandbls" unicode="&#xdf;" horiz-adv-x="449" 
d="M193 300q-144 -257 -229 -364q-146 -186 -270 -186q-41 0 -68 21q-30 23 -30 62q0 56 57 56q43 0 43 -40q0 -9 -4 -16q-1 -1 -2 -3l-2 -3q0 10 -12 10q-22 0 -22 -22q0 -30 43 -30q86 0 216 199q44 68 109 182q101 177 101 178q115 201 203 283q95 89 196 89q40 0 65 -23
q22 -22 22 -54q0 -91 -118 -175q-99 -70 -116 -65q67 -28 67 -101q0 -105 -107 -214q-113 -113 -231 -113q-53 0 -53 39q0 30 20 30q5 0 7 -5q2 -26 33 -26q75 2 160 107q85 104 85 190q0 62 -49 62q-10 0 -45 -13q-3 -1 -4.5 1t-1.5 7q0 29 21 34q88 20 180 106
q91 85 91 143q0 36 -34 36q-57 0 -127 -82q-76 -89 -194 -300z" />
    <glyph glyph-name="agrave" unicode="&#xe0;" horiz-adv-x="422" 
d="M321 562q15 0 25 -16l25 -52q10 -18 28 -44q2 -2 4 -6l12 -15q0 -7 -8 -7q-19 0 -62 38q-47 41 -47 75q0 27 23 27zM500 252q2 2 3 2q8 0 8 -34q0 -15 -32 -56q-125 -164 -248 -164q-64 0 -64 53q-56 -52 -112 -52q-39 0 -60 25q-19 22 -19 56q0 88 87 185
q91 103 186 103q47 0 65 -37q28 37 66 37q49 0 49 -23q0 1 -1.5 0t-5 -2.5t-7.5 -4.5q-20 -14 -40 -47q-35 -55 -100 -171q-16 -28 -16 -44q0 -21 19 -21q82 0 222 195zM62 112q0 -48 36 -48q20 0 48 18q37 24 60 65l74 130q5 12 5 18q0 39 -40 39q-49 0 -117 -86
q-66 -84 -66 -136z" />
    <glyph glyph-name="aacute" unicode="&#xe1;" horiz-adv-x="422" 
d="M463 577q27 0 27 -26q0 -37 -66 -72q-59 -30 -98 -30q-13 0 -13 10l31 19q33 20 55 42q57 57 64 57zM500 252q2 2 3 2q8 0 8 -34q0 -15 -32 -56q-125 -164 -248 -164q-64 0 -64 53q-56 -52 -112 -52q-39 0 -60 25q-19 22 -19 56q0 88 87 185q91 103 186 103q47 0 65 -37
q28 37 66 37q49 0 49 -23q0 1 -1.5 0t-5 -2.5t-7.5 -4.5q-20 -14 -40 -47q-35 -55 -100 -171q-16 -28 -16 -44q0 -21 19 -21q82 0 222 195zM62 112q0 -48 36 -48q20 0 48 18q37 24 60 65l74 130q5 12 5 18q0 39 -40 39q-49 0 -117 -86q-66 -84 -66 -136z" />
    <glyph glyph-name="acircumflex" unicode="&#xe2;" horiz-adv-x="422" 
d="M355 469q-86 -61 -141 -61q-10 0 -10 9q0 -8 99 58q80 56 80 61q-11 0 44 -91q5 -8 9.5 -14.5t7.5 -11t5 -8t3 -4.5l1 -1q0 -3 -4 -3q-73 1 -94 66zM500 252q2 2 3 2q8 0 8 -34q0 -15 -32 -56q-125 -164 -248 -164q-64 0 -64 53q-56 -52 -112 -52q-39 0 -60 25
q-19 22 -19 56q0 88 87 185q91 103 186 103q47 0 65 -37q28 37 66 37q49 0 49 -23q0 1 -1.5 0t-5 -2.5t-7.5 -4.5q-20 -14 -40 -47q-35 -55 -100 -171q-16 -28 -16 -44q0 -21 19 -21q82 0 222 195zM62 112q0 -48 36 -48q20 0 48 18q37 24 60 65l74 130q5 12 5 18
q0 39 -40 39q-49 0 -117 -86q-66 -84 -66 -136z" />
    <glyph glyph-name="atilde" unicode="&#xe3;" horiz-adv-x="433" 
d="M243 481q-23 0 -45 -8l-10 -5l-9 -4q-2 0 -2 3q0 12 36 33q38 23 69 23q26 0 59 -16q34 -17 52 -17q31 0 54 19q22 17 20 17q4 -1 4 -5q0 -14 -28 -42q-35 -36 -74 -36q-23 0 -61 19t-65 19zM480 252q2 2 3 2q8 0 8 -34q0 -15 -32 -56q-125 -164 -248 -164q-64 0 -64 53
q-56 -52 -112 -52q-39 0 -60 25q-19 22 -19 56q0 88 87 185q91 103 186 103q47 0 65 -37q28 37 66 37q49 0 49 -23q0 1 -1.5 0t-5 -2.5t-7.5 -4.5q-20 -14 -40 -47q-35 -55 -100 -171q-16 -28 -16 -44q0 -21 19 -21q82 0 222 195zM42 112q0 -48 36 -48q20 0 48 18
q37 24 60 65l74 130q5 12 5 18q0 39 -40 39q-49 0 -117 -86q-66 -84 -66 -136z" />
    <glyph glyph-name="adieresis" unicode="&#xe4;" horiz-adv-x="422" 
d="M321 509q0 -21 -17 -41q-18 -21 -40 -21q-29 0 -29 27q0 24 18 43q19 19 43 19q25 0 25 -27zM439 509q0 -21 -17 -41q-18 -21 -40 -21q-29 0 -29 27q0 24 18 43q19 19 43 19q25 0 25 -27zM500 252q2 2 3 2q8 0 8 -34q0 -15 -32 -56q-125 -164 -248 -164q-64 0 -64 53
q-56 -52 -112 -52q-39 0 -60 25q-19 22 -19 56q0 88 87 185q91 103 186 103q47 0 65 -37q28 37 66 37q49 0 49 -23q0 1 -1.5 0t-5 -2.5t-7.5 -4.5q-20 -14 -40 -47q-35 -55 -100 -171q-16 -28 -16 -44q0 -21 19 -21q82 0 222 195zM62 112q0 -48 36 -48q20 0 48 18
q37 24 60 65l74 130q5 12 5 18q0 39 -40 39q-49 0 -117 -86q-66 -84 -66 -136z" />
    <glyph glyph-name="aring" unicode="&#xe5;" horiz-adv-x="433" 
d="M480 252q2 2 3 2q8 0 8 -34q0 -15 -32 -56q-125 -164 -248 -164q-64 0 -64 53q-56 -52 -112 -52q-39 0 -60 25q-19 22 -19 56q0 88 87 185q91 103 186 103q47 0 65 -37q28 37 66 37q49 0 49 -23q0 1 -1.5 0t-5 -2.5t-7.5 -4.5q-20 -14 -40 -47q-35 -55 -100 -171
q-16 -28 -16 -44q0 -21 19 -21q82 0 222 195zM42 112q0 -48 36 -48q20 0 48 18q37 24 60 65l74 130q5 12 5 18q0 39 -40 39q-49 0 -117 -86q-66 -84 -66 -136zM290 513q16 34 52 57q35 23 68 23q34 0 45 -23q11 -22 -6 -57q-40 -79 -121 -79q-33 0 -44 23t6 56zM322 513
q-10 -19 -3 -33q8 -14 26 -14q48 0 72 47q11 20 3 34t-27 14q-47 0 -71 -48z" />
    <glyph glyph-name="ae" unicode="&#xe6;" horiz-adv-x="525" 
d="M282 104q0 -51 55 -51q80 0 179 102q50 50 83 101q7 0 7 -21q0 -25 -6 -32q-139 -205 -315 -205q-85 0 -90 74q-72 -72 -140 -71q-79 1 -79 81q0 88 87 185q91 103 186 103q47 0 65 -37l20 28q14 14 36 14q40 0 40 -14q0 -4 -1 -5q30 12 59 12q56 0 56 -56q0 -52 -64 -97
q-68 -47 -150 -47h-11q-17 -37 -17 -64zM62 112q0 -48 36 -48q20 0 48 18q37 24 60 65q31 57 36 64q43 76 43 84q0 39 -40 39q-49 0 -117 -86q-66 -84 -66 -136zM320 205q58 0 116 38q52 34 52 64q0 24 -25 24q-31 0 -78 -45q-38 -37 -65 -81z" />
    <glyph glyph-name="ccedilla" unicode="&#xe7;" horiz-adv-x="313" 
d="M78 -31q0 -13 24 -30t24 -37q0 -30 -33 -48q-26 -16 -55 -16q-60 0 -70 49q-4 18 26 30q6 -47 44 -47q29 0 29 26q0 10 -18 30q-19 18 -19 33q0 27 40 46h74q-66 -17 -66 -36zM237 324q-51 0 -113 -78q-62 -79 -62 -142q0 -49 55 -49q116 0 256 195q5 5 7 5q6 0 6 -18
q0 -25 -6 -32q-138 -205 -315 -205q-90 0 -90 81q0 85 89 185q92 104 184 104q31 0 48 -16q18 -15 18 -39q0 -27 -16 -46q-17 -20 -43 -20q-36 0 -36 30q0 14 12 26q13 11 24 11q0 8 -18 8z" />
    <glyph glyph-name="egrave" unicode="&#xe8;" horiz-adv-x="301" 
d="M58 106q0 -51 55 -51q80 0 178 101q46 46 82 100q3 4 10 -3q7 -8 7 -20q0 -13 -12 -31q-133 -202 -317 -202q-90 0 -90 81q0 85 89 185q92 104 184 104q56 0 56 -56q0 -53 -68 -100q-71 -49 -157 -44q-17 -37 -17 -64zM95 207q58 0 116 38q52 34 52 64q0 24 -25 24
q-32 0 -78 -45q-38 -37 -65 -81zM201 574q16 0 28 -18q-1 0 2 -6l9.5 -19l15.5 -31q12 -21 30 -47l18 -24q0 -7 -9 -7q-21 0 -68 41q-51 45 -51 82q0 29 25 29z" />
    <glyph glyph-name="eacute" unicode="&#xe9;" horiz-adv-x="301" 
d="M58 106q0 -51 55 -51q80 0 178 101q46 46 82 100q3 4 10 -3q7 -8 7 -20q0 -13 -12 -31q-133 -202 -317 -202q-90 0 -90 81q0 85 89 185q92 104 184 104q56 0 56 -56q0 -53 -68 -100q-71 -49 -157 -44q-17 -37 -17 -64zM95 207q58 0 116 38q52 34 52 64q0 24 -25 24
q-32 0 -78 -45q-38 -37 -65 -81zM341 561q27 0 27 -26q0 -37 -66 -72q-58 -30 -98 -30q-13 0 -13 10l31 19q33 20 55 42q57 57 64 57z" />
    <glyph glyph-name="ecircumflex" unicode="&#xea;" horiz-adv-x="301" 
d="M58 106q0 -51 55 -51q80 0 178 101q46 46 82 100q3 4 10 -3q7 -8 7 -20q0 -13 -12 -31q-133 -202 -317 -202q-90 0 -90 81q0 85 89 185q92 104 184 104q56 0 56 -56q0 -53 -68 -100q-71 -49 -157 -44q-17 -37 -17 -64zM95 207q58 0 116 38q52 34 52 64q0 24 -25 24
q-32 0 -78 -45q-38 -37 -65 -81zM261 468q-86 -61 -141 -61q-10 0 -10 9q0 -8 99 58q80 56 80 61q-11 0 44 -91q5 -8 9.5 -14.5t7.5 -11t5 -8t3 -4.5l1 -1q0 -3 -4 -3q-73 1 -94 66z" />
    <glyph glyph-name="edieresis" unicode="&#xeb;" horiz-adv-x="301" 
d="M58 106q0 -51 55 -51q80 0 178 101q46 46 82 100q3 4 10 -3q7 -8 7 -20q0 -13 -12 -31q-133 -202 -317 -202q-90 0 -90 81q0 85 89 185q92 104 184 104q56 0 56 -56q0 -53 -68 -100q-71 -49 -157 -44q-17 -37 -17 -64zM95 207q58 0 116 38q52 34 52 64q0 24 -25 24
q-32 0 -78 -45q-38 -37 -65 -81zM221 512q0 -21 -17 -41q-18 -21 -40 -21q-29 0 -29 27q0 23 18 43q19 19 43 19q25 0 25 -27zM339 512q0 -21 -17 -41q-18 -21 -40 -21q-29 0 -29 27q0 23 18 43q19 19 43 19q25 0 25 -27z" />
    <glyph glyph-name="igrave" unicode="&#xec;" horiz-adv-x="226" 
d="M298 261q4 0 9 -21q3 -22 -33 -70q-129 -169 -247 -169q-27 0 -47 14q-21 17 -21 44q0 23 15 48q116 200 116 201q7 13 7 24q0 9 -7 15t-7 7q0 4 5 7q20 12 47 12q49 0 49 -35q0 -15 -12 -36l-53 -91q-46 -79 -47 -82q3 9 -18 -33q-5 -10 -5 -18q0 -19 23 -19
q76 0 210 180q15 22 16 22zM94 573q16 0 28 -18q-1 0 2 -6l9.5 -19l15.5 -31q12 -21 30 -47l18 -24q0 -7 -9 -7q-21 0 -68 41q-51 45 -51 82q0 29 25 29z" />
    <glyph glyph-name="iacute" unicode="&#xed;" horiz-adv-x="237" 
d="M298 261q4 0 9 -21q3 -22 -33 -70q-129 -169 -247 -169q-27 0 -47 14q-21 17 -21 44q0 23 15 48q116 200 116 201q7 13 7 24q0 9 -7 15t-7 7q0 4 5 7q20 12 47 12q49 0 49 -35q0 -15 -12 -36l-53 -91q-46 -79 -47 -82q3 9 -18 -33q-5 -10 -5 -18q0 -19 23 -19
q76 0 210 180q15 22 16 22zM292 556q27 0 27 -26q0 -38 -66 -72q-59 -30 -98 -30q-13 0 -13 10l31 19q33 20 55 42q57 57 64 57z" />
    <glyph glyph-name="icircumflex" unicode="&#xee;" horiz-adv-x="226" 
d="M298 261q4 0 9 -21q3 -22 -33 -70q-129 -169 -247 -169q-27 0 -47 14q-21 17 -21 44q0 23 15 48q116 200 116 201q7 13 7 24q0 9 -7 15t-7 7q0 4 5 7q20 12 47 12q49 0 49 -35q0 -15 -12 -36l-53 -91q-46 -79 -47 -82q3 9 -18 -33q-5 -10 -5 -18q0 -19 23 -19
q76 0 210 180q15 22 16 22zM205 469q-86 -61 -141 -61q-10 0 -10 9q0 -8 99 58q80 56 80 61q-11 0 44 -91q5 -8 9.5 -14.5t7.5 -11t5 -8t3 -4.5l1 -1q0 -3 -4 -3q-73 1 -94 66z" />
    <glyph glyph-name="idieresis" unicode="&#xef;" horiz-adv-x="226" 
d="M298 261q4 0 9 -21q3 -22 -33 -70q-129 -169 -247 -169q-27 0 -47 14q-21 17 -21 44q0 23 15 48q116 200 116 201q7 13 7 24q0 9 -7 15t-7 7q0 4 5 7q20 12 47 12q49 0 49 -35q0 -15 -12 -36l-53 -91q-46 -79 -47 -82q3 9 -18 -33q-5 -10 -5 -18q0 -19 23 -19
q76 0 210 180q15 22 16 22zM182 513q0 -21 -17 -41q-18 -21 -40 -21q-29 0 -29 27q0 24 18 43q19 19 43 19q25 0 25 -27zM300 513q0 -21 -17 -41q-18 -21 -40 -21q-29 0 -29 27q0 24 18 43q19 19 43 19q25 0 25 -27z" />
    <glyph glyph-name="ntilde" unicode="&#xf1;" horiz-adv-x="421" 
d="M277 274q0 19 -22 19q-58 0 -130 -91q-66 -83 -84 -154q-4 -14 10 -24q3 -2 3 -5q0 -5 -5 -8q-19 -13 -57 -13q-41 0 -41 38q0 28 29 78l51 84q64 99 69 128q2 14 -4 21l-8 8q0 13 36 13q52 0 52 -30q0 -23 -27 -59q3 5 3 0l2 2q88 86 148 86q62 0 62 -50q0 -42 -38 -110
l-64 -112q-4 -7 -4 -15q0 -24 30 -24q50 0 193 203q14 0 14 -26q0 -17 -10 -30q-66 -91 -93 -119q-80 -84 -147 -84q-71 0 -71 60q0 43 52 120q51 78 51 94zM211 478q-23 0 -45 -8q-4 -2 -10 -4l-9 -5q-2 0 -2 3q0 12 36 33q38 23 69 23q26 0 59 -16q34 -17 52 -17
q31 0 54 19q22 17 20 17q4 -1 4 -5q0 -14 -28 -42q-35 -36 -74 -36q-23 0 -61 19t-65 19z" />
    <glyph glyph-name="ograve" unicode="&#xf2;" horiz-adv-x="336" 
d="M174 102q-29 17 -29 45q0 21 15 37q15 15 35 15q23 0 37 -12q44 59 44 109q0 36 -37 36q-51 0 -118 -87q-68 -86 -68 -153q0 -42 41 -42q34 0 80 52zM216 97q-86 -98 -165 -98q-39 0 -61 25q-20 23 -20 56q0 87 88 184q91 103 185 103q72 0 72 -62q0 -57 -66 -161
q53 0 131 96q4 4 7 4q12 0 12 -26q0 -12 -5 -19q-80 -102 -178 -102zM254 565q16 0 28 -18q-1 0 2 -6l9.5 -19l15.5 -31q12 -21 30 -47l18 -24q0 -7 -9 -7q-21 0 -68 41q-51 45 -51 82q0 29 25 29z" />
    <glyph glyph-name="oacute" unicode="&#xf3;" horiz-adv-x="336" 
d="M174 102q-29 17 -29 45q0 21 15 37q15 15 35 15q23 0 37 -12q44 59 44 109q0 36 -37 36q-51 0 -118 -87q-68 -86 -68 -153q0 -42 41 -42q34 0 80 52zM216 97q-86 -98 -165 -98q-39 0 -61 25q-20 23 -20 56q0 87 88 184q91 103 185 103q72 0 72 -62q0 -57 -66 -161
q53 0 131 96q4 4 7 4q12 0 12 -26q0 -12 -5 -19q-80 -102 -178 -102zM365 562q27 0 27 -26q0 -38 -66 -72q-58 -30 -98 -30q-13 0 -13 10l31 19q33 20 55 42q57 57 64 57z" />
    <glyph glyph-name="ocircumflex" unicode="&#xf4;" horiz-adv-x="336" 
d="M174 102q-29 17 -29 45q0 21 15 37q15 15 35 15q23 0 37 -12q44 59 44 109q0 36 -37 36q-51 0 -118 -87q-68 -86 -68 -153q0 -42 41 -42q34 0 80 52zM216 97q-86 -98 -165 -98q-39 0 -61 25q-20 23 -20 56q0 87 88 184q91 103 185 103q72 0 72 -62q0 -57 -66 -161
q53 0 131 96q4 4 7 4q12 0 12 -26q0 -12 -5 -19q-80 -102 -178 -102zM298 471q-86 -61 -141 -61q-10 0 -10 9q0 -8 99 58q80 56 80 61q-11 0 44 -91q5 -8 9.5 -14.5t7.5 -11t5 -8t3 -4.5l1 -1q0 -3 -4 -3q-73 1 -94 66z" />
    <glyph glyph-name="otilde" unicode="&#xf5;" horiz-adv-x="344" 
d="M138 102q-29 17 -29 45q0 21 15 37q15 15 35 15q23 0 37 -12q44 59 44 109q0 36 -37 36q-51 0 -118 -87q-68 -86 -68 -153q0 -42 41 -42q34 0 80 52zM180 97q-86 -98 -165 -98q-39 0 -61 25q-20 23 -20 56q0 87 88 184q91 103 185 103q72 0 72 -62q0 -57 -66 -161
q53 0 131 96q4 4 7 4q12 0 12 -26q0 -12 -5 -19q-80 -102 -178 -102zM191 478q-23 0 -45 -8q-4 -2 -10 -4l-9 -5q-2 0 -2 3q0 12 36 33q38 23 69 23q26 0 59 -16q34 -17 52 -17q31 0 54 19q22 17 20 17q4 -1 4 -5q0 -14 -28 -42q-35 -36 -74 -36q-23 0 -61 19t-65 19z" />
    <glyph glyph-name="odieresis" unicode="&#xf6;" horiz-adv-x="336" 
d="M174 102q-29 17 -29 45q0 21 15 37q15 15 35 15q23 0 37 -12q44 59 44 109q0 36 -37 36q-51 0 -118 -87q-68 -86 -68 -153q0 -42 41 -42q34 0 80 52zM216 97q-86 -98 -165 -98q-39 0 -61 25q-20 23 -20 56q0 87 88 184q91 103 185 103q72 0 72 -62q0 -57 -66 -161
q53 0 131 96q4 4 7 4q12 0 12 -26q0 -12 -5 -19q-80 -102 -178 -102zM261 511q0 -21 -17 -41q-18 -21 -40 -21q-29 0 -29 27q0 24 18 43q19 19 43 19q25 0 25 -27zM379 511q0 -21 -17 -41q-18 -21 -40 -21q-29 0 -29 27q0 24 18 43q19 19 43 19q25 0 25 -27z" />
    <glyph glyph-name="divide" unicode="&#xf7;" horiz-adv-x="445" 
d="M69 142q-28 0 -42 -14q-13 -15 -10 -15q-8 0 -8 9q0 21 22 46t37 25l242 -5q52 0 75 12q6 3 11 8q3 4 4 4q4 -1 4 -7q0 -15 -20 -41q-23 -26 -38 -26q-10 0 -28 0.5t-50.5 1t-58.5 0.5q-136 2 -140 2zM201 68q0 -22 -18 -41q-20 -20 -41 -20q-31 0 -31 28q0 23 20 43
t43 20q27 0 27 -30zM317 308q0 -22 -18 -41q-20 -20 -42 -20q-30 0 -30 28q0 24 19 43q20 20 44 20q27 0 27 -30z" />
    <glyph glyph-name="oslash" unicode="&#xf8;" horiz-adv-x="300" 
d="M318 306q0 -82 -81 -187q-87 -113 -174 -119q-2 0 -2 -3q-4 -7 -4 -15q2 -7 5 -9q5 -3 5 -4q0 -5 -12 -11q-13 -5 -21 -5q-12 0 -12 8q0 4 17 40q-66 9 -66 80q0 87 88 184q91 103 185 103h6q1 0 1 1q5 10 5 16t-4 10q-5 3 -5 4q0 2 3 5q14 8 31 8q12 0 12 -7l-22 -41
q45 -13 45 -58zM92 51h5q46 0 115 97q67 94 67 149q0 30 -25 34zM71 57l25 42l136 233q-53 -11 -114 -92q-62 -85 -62 -147q0 -25 15 -36z" />
    <glyph glyph-name="ugrave" unicode="&#xf9;" 
d="M494 260q9 0 9 -28q0 -19 -32 -62q-131 -170 -248 -170q-68 0 -68 59q-71 -59 -130 -59q-68 0 -68 58q0 22 15 48l113 197q7 13 7 23q0 9 -7 16q-7 6 -7 7q0 4 5 7q20 12 46 12q50 0 50 -35q0 -15 -12 -36q-72 -118 -115 -202q-5 -10 -5 -18q0 -19 23 -19q74 0 173 176
q47 83 47 92t-7 16q-7 6 -7 7q0 4 5 7q19 12 46 12q50 0 50 -35q0 -15 -12 -36q-72 -118 -115 -202q-5 -10 -5 -18q0 -19 23 -19q70 0 210 180q4 6 9 12t6 8zM180 574q16 0 28 -18q-1 0 2 -6l9.5 -19l15.5 -31q12 -21 30 -47l18 -24q0 -7 -9 -7q-21 0 -68 41q-51 45 -51 82
q0 29 25 29z" />
    <glyph glyph-name="uacute" unicode="&#xfa;" 
d="M494 260q9 0 9 -28q0 -19 -32 -62q-131 -170 -248 -170q-68 0 -68 59q-71 -59 -130 -59q-68 0 -68 58q0 22 15 48l113 197q7 13 7 23q0 9 -7 16q-7 6 -7 7q0 4 5 7q20 12 46 12q50 0 50 -35q0 -15 -12 -36q-72 -118 -115 -202q-5 -10 -5 -18q0 -19 23 -19q74 0 173 176
q47 83 47 92t-7 16q-7 6 -7 7q0 4 5 7q19 12 46 12q50 0 50 -35q0 -15 -12 -36q-72 -118 -115 -202q-5 -10 -5 -18q0 -19 23 -19q70 0 210 180q4 6 9 12t6 8zM345 574q27 0 27 -26q0 -38 -66 -72q-58 -30 -98 -30q-13 0 -13 10l31 19q33 20 55 42q57 57 64 57z" />
    <glyph glyph-name="ucircumflex" unicode="&#xfb;" 
d="M494 260q9 0 9 -28q0 -19 -32 -62q-131 -170 -248 -170q-68 0 -68 59q-71 -59 -130 -59q-68 0 -68 58q0 22 15 48l113 197q7 13 7 23q0 9 -7 16q-7 6 -7 7q0 4 5 7q20 12 46 12q50 0 50 -35q0 -15 -12 -36q-72 -118 -115 -202q-5 -10 -5 -18q0 -19 23 -19q74 0 173 176
q47 83 47 92t-7 16q-7 6 -7 7q0 4 5 7q19 12 46 12q50 0 50 -35q0 -15 -12 -36q-72 -118 -115 -202q-5 -10 -5 -18q0 -19 23 -19q70 0 210 180q4 6 9 12t6 8zM285 469q-86 -61 -141 -61q-10 0 -10 9q0 -8 99 58q80 56 80 61q-11 0 44 -91q5 -8 9.5 -14.5t7.5 -11t5 -8
t3 -4.5l1 -1q0 -3 -4 -3q-73 1 -94 66z" />
    <glyph glyph-name="udieresis" unicode="&#xfc;" 
d="M494 260q9 0 9 -28q0 -19 -32 -62q-131 -170 -248 -170q-68 0 -68 59q-71 -59 -130 -59q-68 0 -68 58q0 22 15 48l113 197q7 13 7 23q0 9 -7 16q-7 6 -7 7q0 4 5 7q20 12 46 12q50 0 50 -35q0 -15 -12 -36q-72 -118 -115 -202q-5 -10 -5 -18q0 -19 23 -19q74 0 173 176
q47 83 47 92t-7 16q-7 6 -7 7q0 4 5 7q19 12 46 12q50 0 50 -35q0 -15 -12 -36q-72 -118 -115 -202q-5 -10 -5 -18q0 -19 23 -19q70 0 210 180q4 6 9 12t6 8zM248 513q0 -21 -17 -41q-18 -21 -40 -21q-29 0 -29 27q0 24 18 43q19 19 43 19q25 0 25 -27zM366 513
q0 -21 -17 -41q-18 -21 -40 -21q-29 0 -29 27q0 24 18 43q19 19 43 19q25 0 25 -27z" />
    <glyph glyph-name="yacute" unicode="&#xfd;" horiz-adv-x="366" 
d="M-87 -284q82 0 195 239q-65 -20 -140 -99q-72 -76 -72 -118q0 -22 17 -22zM192 -32q-82 -136 -119 -180q-89 -107 -168 -107q-48 0 -48 49q0 44 51 113q94 128 225 160l34 57q-71 -59 -130 -59q-68 0 -68 58q0 23 15 48q101 175 112 197q7 13 7 23q0 9 -7 16q-7 6 -7 7
q0 4 5 7q20 12 46 12q50 0 50 -35q0 -15 -12 -36q-65 -105 -114 -202q-5 -10 -5 -18q0 -19 23 -19q71 0 174 175q45 82 45 93q0 9 -7 16q-7 6 -7 7q0 4 5 7q20 12 46 12q50 0 50 -35q0 -15 -12 -36q-123 -198 -163 -291q33 0 55 -17q22 -16 22 -45q0 -23 -16 -39t-41 -16
q-31 0 -31 16q16 12 16 35q0 25 -26 27zM370 573q27 0 27 -26q0 -37 -66 -72q-59 -30 -98 -30q-13 0 -13 10l31 19q33 20 55 42q57 57 64 57z" />
    <glyph glyph-name="ydieresis" unicode="&#xff;" horiz-adv-x="366" 
d="M279 512q0 -21 -17 -41q-18 -21 -40 -21q-29 0 -29 27q0 23 18 43q19 19 43 19q25 0 25 -27zM397 512q0 -21 -17 -41q-18 -21 -40 -21q-29 0 -29 27q0 23 18 43q19 19 43 19q25 0 25 -27zM-87 -284q82 0 195 239q-65 -20 -140 -99q-72 -76 -72 -118q0 -22 17 -22z
M192 -32q-82 -136 -119 -180q-89 -107 -168 -107q-48 0 -48 49q0 44 51 113q94 128 225 160l34 57q-71 -59 -130 -59q-68 0 -68 58q0 23 15 48q101 175 112 197q7 13 7 23q0 9 -7 16q-7 6 -7 7q0 4 5 7q20 12 46 12q50 0 50 -35q0 -15 -12 -36q-65 -105 -114 -202
q-5 -10 -5 -18q0 -19 23 -19q71 0 174 175q45 82 45 93q0 9 -7 16q-7 6 -7 7q0 4 5 7q20 12 46 12q50 0 50 -35q0 -15 -12 -36q-123 -198 -163 -291q33 0 55 -17q22 -16 22 -45q0 -23 -16 -39t-41 -16q-31 0 -31 16q16 12 16 35q0 25 -26 27z" />
    <glyph glyph-name="Abreve" unicode="&#x102;" horiz-adv-x="937" 
d="M647 -57q-100 0 -100 79q0 88 124 272q-27 1 -65 8l-57 9q-122 -207 -178 -274q-110 -128 -234 -128q-53 0 -89 24q-42 27 -42 76q0 37 20 62q20 23 50 23q53 0 53 -50q0 -49 -40 -49q-10 0 -16 3q-6 2 -6 -6q0 -10 14 -19q18 -12 48 -12q104 0 199 110q56 66 161 245
q-12 1 -62 1q-34 0 -56 -16q-24 -17 -24 -38q0 -14 11 -23q12 -7 28 0q4 4 5 -4q0 -11 -7 -22q-17 -24 -45 -26q-25 -2 -43 11q-30 21 -30 55q0 115 167 115q52 0 85 -4q99 166 176 237q110 105 241 105q68 0 111 -43q44 -42 44 -104q0 -106 -82 -176q-89 -77 -247 -90
q-115 -197 -115 -254q0 -40 39 -40q43 0 130 84q4 4 7 4q7 0 7 -18q0 -7 -1 -10q-12 -34 -60 -71q-58 -46 -121 -46zM578 359q87 -7 132 -10q157 214 230 214q8 0 8 -3q0 -2 -6 -8q-59 -62 -146 -200q102 12 170 68q72 58 72 140q0 41 -26 67q-28 28 -78 28q-107 0 -202 -89
q-68 -63 -154 -207zM1014 751q-82 0 -88 63q-8 58 21 66q14 4 22.5 -8t12.5 -40q7 -43 65 -29q40 6 105 64q4 3 6 3q6 0 6 -15q0 -5 -1 -8q-10 -27 -49 -58q-50 -38 -100 -38z" />
    <glyph glyph-name="abreve" unicode="&#x103;" 
d="M500 252q2 2 3 2q8 0 8 -34q0 -15 -32 -56q-125 -164 -248 -164q-64 0 -64 53q-56 -52 -112 -52q-39 0 -60 25q-19 22 -19 56q0 88 87 185q91 103 186 103q47 0 65 -37q28 37 66 37q49 0 49 -23q0 1 -1.5 0t-5 -2.5t-7.5 -4.5q-20 -14 -40 -47q-35 -55 -100 -171
q-16 -28 -16 -44q0 -21 19 -21q82 0 222 195zM62 112q0 -48 36 -48q20 0 48 18q37 24 60 65l74 130q5 12 5 18q0 39 -40 39q-49 0 -117 -86q-66 -84 -66 -136zM293 406q-82 0 -88 63q-7 59 21 66q14 4 22.5 -8t12.5 -40q7 -43 65 -29q40 6 105 64q5 3 6 3q6 0 6 -15
q0 -5 -1 -8q-10 -27 -49 -58q-50 -38 -100 -38z" />
    <glyph glyph-name="Dcroat" unicode="&#x110;" horiz-adv-x="922" 
d="M506 200q-73 -133 -124 -175q63 -26 94 -26q146 0 266 143q115 137 115 287q0 129 -76 201q-70 67 -189 67q-121 0 -213 -92q-88 -88 -88 -196q0 -40 19 -65q18 -27 46 -27q2 0 3 3t-1 5q-16 10 -16 32q0 38 42 38q53 0 53 -54q0 -30 -21 -51q-24 -24 -60 -24
q-49 0 -82 39q-34 40 -34 99q0 141 113 245q110 101 248 101q158 0 253 -95q90 -89 90 -222q0 -181 -130 -327q-141 -158 -338 -158q-49 0 -125 32q-1 1 -5 1q-9 0 -53 -14q-45 -14 -88 -14q-88 0 -88 58q0 60 87 60q77 0 136 -31q46 46 90 157q0 1 1 3t1 3h-42
q-28 0 -42 -14q-14 -15 -10 -15q-8 0 -8 9q0 21 22 46t37 25l63 -2q39 93 47 106q98 168 226 174q13 0 13 -5q0 -3 -3 -4q-105 -73 -157 -181q-31 -65 -46 -93h13q53 0 75 12q6 3 11 8q3 4 4 4q4 -1 4 -7q0 -15 -20 -41q-23 -26 -38 -26q-44 0 -75 1z" />
    <glyph glyph-name="dslash" unicode="&#x111;" horiz-adv-x="426" 
d="M90 61q20 0 48 18q37 24 60 65l74 130q5 12 5 18q0 39 -40 39q-49 0 -117 -86q-66 -84 -66 -136q0 -48 36 -48zM329 496l71 -2l49 86q10 22 2 33q-11 14 -11 10q0 4 5 7q19 12 47 12q32 0 44 -17t-3 -47l-50 -87h2q53 0 75 12q6 3 11 8q3 4 4 4q4 -1 4 -7q0 -15 -20 -41
q-23 -26 -38 -26q-40 0 -67 1l-83 -144q-37 -58 -104 -179q-16 -28 -16 -44q0 -21 19 -21q82 0 222 195q2 2 3 2q8 0 8 -34q0 -15 -32 -56q-125 -164 -248 -164q-64 0 -64 53q-56 -52 -112 -52q-39 0 -60 25q-19 22 -19 56q0 87 87 185q91 103 186 103q47 0 65 -37l66 115
h-42q-28 0 -42 -14q-14 -15 -10 -15q-8 0 -8 9q0 21 22 46t37 25z" />
    <glyph glyph-name="Itilde" unicode="&#x128;" horiz-adv-x="600" 
d="M174 2q128 0 215 121q22 30 134 253q73 142 204 240q1 1 1 7q-22 -13 -70 -13q-31 0 -85 16t-86 16q-110 0 -176 -83q-54 -67 -54 -145q0 -36 18 -62q18 -27 45 -27q4 0 3 6q-10 16 -10 32q0 21 15 35q14 14 35 14q20 0 35 -17t15 -42q0 -31 -22 -53q-26 -26 -70 -26
q-48 0 -79 37q-36 41 -36 117q0 105 95 195q95 89 199 89q35 0 113 -22t104 -22q37 2 68 23q32 22 29 23q14 0 14 -36q0 -13 -41 -57q-55 -61 -84 -102q-21 -29 -79 -150q-61 -124 -102 -188q-149 -230 -344 -230q-57 0 -98 25q-51 30 -51 86q0 34 26 60q25 23 50 23
q67 0 67 -57q0 -29 -26 -41q-23 -11 -35 2q7 7 6 18q-1 12 -13 12q-21 0 -21 -22q0 -55 91 -55zM724 803q-23 0 -45 -8l-10 -5l-9 -4q-2 0 -2 3q0 12 36 33q38 23 69 23q26 0 59 -16q34 -17 52 -17q31 0 54 19q22 17 20 17q4 -1 4 -5q0 -14 -28 -42q-34 -36 -74 -36
q-23 0 -61 19t-65 19z" />
    <glyph glyph-name="itilde" unicode="&#x129;" horiz-adv-x="222" 
d="M295 261q5 0 9 -21q3 -22 -33 -70q-129 -169 -247 -169q-27 0 -47 14q-21 17 -21 44q0 23 15 48q116 200 116 201q7 13 7 24q0 9 -7 15t-7 7q0 4 5 7q20 12 47 12q49 0 49 -35q0 -15 -12 -36l-53 -91q-46 -79 -47 -82q3 9 -18 -33q-5 -10 -5 -18q0 -19 23 -19
q77 0 210 180q15 22 16 22zM82 460q-23 0 -45 -8q-4 -2 -10 -4l-9 -5q-2 0 -2 3q0 12 36 33q38 23 69 23q26 0 59 -16q34 -17 52 -17q31 0 54 19q22 17 20 17q4 -1 4 -5q0 -14 -28 -42q-34 -36 -74 -36q-23 0 -61 19t-65 19z" />
    <glyph glyph-name="dotlessi" unicode="&#x131;" horiz-adv-x="222" 
d="M295 261q5 0 9 -21q3 -22 -33 -70q-129 -169 -247 -169q-27 0 -47 14q-21 17 -21 44q0 23 15 48q116 200 116 201q7 13 7 24q0 9 -7 15t-7 7q0 4 5 7q20 12 47 12q49 0 49 -35q0 -15 -12 -36l-53 -91q-46 -79 -47 -82q3 9 -18 -33q-5 -10 -5 -18q0 -19 23 -19
q77 0 210 180q15 22 16 22z" />
    <glyph glyph-name="OE" unicode="&#x152;" horiz-adv-x="949" 
d="M361 729q-47 0 -72 -19q-22 -16 -22 -37q0 -27 20 -27q1 0 9 3q4 1 6 -3q6 -20 -9 -34q-16 -16 -51 -16q-55 0 -55 63q0 47 45 82q51 39 135 39q120 0 174 -87q46 18 89 18q47 0 82 -26q36 -27 45 -76q89 70 136 70q27 0 57 -5q28 -6 51 -6q26 0 57 29q25 25 30 22
q23 -14 11 -35q-51 -92 -146 -92q-29 2 -54 6q-26 6 -34 6q-56 0 -107 -62q-9 -81 -51 -171q172 -5 244 -5q9 0 -2 -21q-10 -21 -27 -26q-18 -4 -241 0q-63 -115 -155 -204q3 -96 64 -96q25 0 106 37t118 37q57 0 86 -28q27 -25 27 -67q0 -31 -20 -51q0 24 -16 40
q-22 25 -71 25q-40 0 -109 -34q-72 -35 -130 -35q-100 0 -103 130q-149 -122 -292 -122q-201 0 -201 175q0 108 87 232q74 104 181 189q54 45 116 47q8 0 8 -5q0 -4 -55 -50q-71 -62 -110 -106q-134 -154 -134 -297q0 -65 36 -101q33 -33 85 -33q119 0 291 177q22 97 73 197
q52 102 145 190l1 10q0 37 -23 60q-21 23 -53 23q-36 0 -72 -13q7 -25 7 -58q0 -92 -57 -186q-61 -102 -135 -102q-30 0 -52 20q-22 21 -22 56q0 75 55 160q55 87 138 135q-34 58 -134 58zM353 377q0 -25 19 -25q48 0 97 82q48 79 47 142q0 27 -4 46q-70 -45 -115 -122
q-44 -73 -44 -123z" />
    <glyph glyph-name="oe" unicode="&#x153;" horiz-adv-x="534" 
d="M306 170q70 8 131 58q56 47 55 81q0 24 -25 24q-33 0 -89 -56q-55 -55 -72 -107zM287 106q0 -51 55 -51q80 0 179 102q50 50 83 101q7 0 7 -21q0 -25 -6 -32q-139 -205 -315 -205q-87 0 -90 76q-76 -79 -151 -79q-39 0 -60 25q-19 22 -19 56q0 87 88 184q91 103 185 103
q72 0 72 -62q0 -8 -1 -10q83 77 159 77q56 0 56 -56q0 -72 -91 -132q-83 -54 -149 -53q-2 -14 -2 -23zM177 178q0 44 46 44q19 0 28 -10q26 54 26 82q0 36 -37 36q-50 0 -118 -87q-68 -86 -68 -153q0 -42 41 -42q46 0 111 89q-29 11 -29 41z" />
    <glyph glyph-name="Scaron" unicode="&#x160;" horiz-adv-x="583" 
d="M157 132q21 8 21 29q0 20 -19 20t-34 -20q-16 -20 -16 -47q0 -46 40 -77q46 -37 127 -37q91 0 150 50q52 45 52 101q0 67 -88 167q-88 101 -88 176q0 84 74 150q77 70 187 70q106 0 159 -44q46 -37 46 -98q0 -46 -30 -78t-74 -32q-30 0 -49 15q-24 17 -24 47q0 22 14 39
t37 17q18 0 31 -13q12 -12 12 -28q0 -2 -2 -10q-1 -3 1 -4.5t6 -1.5q8 0 18 13q12 16 12 42q0 38 -36 64q-38 26 -96 26q-89 0 -144 -43q-54 -42 -54 -104q0 -61 90 -167q89 -107 89 -174q0 -94 -89 -162q-90 -66 -216 -66q-83 0 -142 41q-67 46 -67 128q0 41 30 79
q35 44 92 44q33 0 54 -21q19 -19 19 -46q0 -25 -17 -47q-18 -21 -41 -21t-35 23zM704 812q100 70 161 70q11 0 11 -11q0 -1 -98 -57q-34 -20 -72 -53q-26 -25 -33 -25q-11 0 -19 29q-11 43 -31 75q-13 18 -21 28q-12 15 -12 16q0 3 8 3q84 -2 106 -75z" />
    <glyph glyph-name="scaron" unicode="&#x161;" horiz-adv-x="329" 
d="M72 0q-51 0 -79 19q-26 17 -26 39q0 21 14 21q-4 0 13 -17t43 -17q45 0 70 33q24 30 24 78t-30 88q-24 -32 -41 -54t-25.5 -32t-10.5 -8q-5 5 -8 20t0 20q59 76 59 82q-3 46 39 96q39 46 69 46q23 0 23 -26q0 -18 -26 -58q-28 -40 -51 -56q1 1 9.5 -8t24.5 -28
q36 -44 36 -85q0 -62 -54 -101q-3 -3 -3 -5t5 -2q69 8 142 96q26 31 47 64l26 39q2 2 3 2q11 0 11 -34q0 -11 -4 -18q-70 -120 -145 -161q-59 -33 -155 -33zM223 576q100 70 161 70q11 0 11 -11q0 -1 -98 -57q-34 -20 -72 -53q-26 -25 -33 -25q-11 0 -19 29q-11 43 -31 75
q-13 18 -21 28q-12 15 -12 16q0 3 8 3q84 -2 106 -75z" />
    <glyph glyph-name="Utilde" unicode="&#x168;" horiz-adv-x="879" 
d="M1040 652q35 0 57 -5q7 -1 7 -6q0 -2 -14 -19q-106 -106 -225 -306q-136 -226 -136 -340q0 -60 34 -94q32 -31 85 -31q18 0 40 7l22 7q2 0 2 -2q0 -22 -35 -45q-38 -23 -84 -23q-71 0 -114 42q-46 42 -46 113q0 99 128 316q119 199 219 301q2 2 2 3q-1 7 -6 7l-5 -1
q-61 -32 -279 -348q-192 -278 -344 -278q-66 0 -103 37q-35 33 -35 81q0 124 172 303q192 198 206 239q-50 -24 -102 -24q-30 0 -97 32t-125 32q-80 0 -142 -51q-64 -54 -64 -128q0 -62 35 -88q2 -2 6 -2q5 0 3 6q-3 7 -3 16q0 19 15 32q16 14 36 14q21 0 36 -15
q15 -17 15 -37q0 -30 -22 -52t-53 -22q-47 0 -80 37q-39 42 -39 119q0 103 90 170q88 66 221 66q31 0 116 -35q87 -35 116 -35q44 0 74 30q10 9 17 16l10 10t2 3q13 0 13 -34q0 -69 -178 -283q-179 -215 -179 -295q0 -69 66 -69t155 98q48 54 163 217q109 152 171 216
q96 98 176 98zM786 767q-23 0 -45 -8l-10 -5l-9 -4q-2 0 -2 3q0 12 36 33q38 23 69 23q26 0 59 -16q34 -17 52 -17q31 0 54 19q22 17 20 17q4 -1 4 -5q0 -14 -28 -42q-34 -36 -74 -36q-23 0 -61 19t-65 19z" />
    <glyph glyph-name="utilde" unicode="&#x169;" 
d="M478 238l17 22q8 0 8 -28q0 -19 -32 -62q-131 -170 -248 -170q-68 0 -68 59q-71 -59 -130 -59q-68 0 -68 58q0 22 15 48l113 197q7 13 7 23q0 9 -7 16q-7 6 -7 7q0 4 5 7q20 12 46 12q50 0 50 -35q0 -15 -12 -36q-72 -118 -115 -202q-5 -10 -5 -18q0 -19 23 -19
q74 0 173 176q47 83 47 92t-7 16q-7 6 -7 7q0 4 5 7q19 12 46 12q50 0 50 -35q0 -15 -12 -36q-72 -118 -115 -202q-5 -10 -5 -18q0 -19 23 -19q80 0 210 180zM180 469q-23 0 -45 -8l-10 -5l-9 -4q-2 0 -2 3q0 12 36 33q38 23 69 23q26 0 59 -16q34 -17 52 -17q31 0 54 19
q22 17 20 17q4 -1 4 -5q0 -14 -28 -42q-34 -36 -74 -36q-23 0 -61 19t-65 19z" />
    <glyph glyph-name="Ydieresis" unicode="&#x178;" horiz-adv-x="743" 
d="M535 4q248 381 344 481q-1 1 -6 1q-11 0 -27 -11q-14 -10 -234 -236q-176 -183 -306 -183q-50 0 -80 30t-30 82q0 108 189 269q198 167 202 191q-75 -22 -114 -20q-28 1 -91 23q-57 19 -88 19q-98 0 -162 -55q-63 -53 -63 -128q0 -34 16 -59q15 -27 36 -27q7 0 3 7
q-12 23 3 44t41 21q18 0 32 -15q14 -14 14 -33q0 -33 -23 -53q-23 -22 -65 -22q-44 0 -75 36q-34 40 -34 102q0 96 91 172q93 78 216 78q49 0 124 -28t112 -28q66 0 106 39q6 0 6 -16q0 -40 -25 -68q-28 -35 -102 -110q-97 -99 -114 -118q-131 -140 -131 -207q0 -46 60 -46
q104 0 303 222q102 114 147 153q80 69 139 69q37 0 67 -34q-172 -136 -400 -566q84 -41 84 -110q0 -30 -20 -53q-21 -23 -50 -23q-35 0 -52 17q-7 7 -8 12q-2 5 1 5q16 -4 31 8q19 13 19 42q0 34 -34 47q-174 -246 -405 -246q-157 0 -157 113q0 83 119 152q122 71 276 71
q46 0 115 -11zM172 -269q173 0 327 223q-33 12 -75 12q-128 0 -235 -57q-104 -56 -104 -122q0 -56 87 -56zM830 833q0 -21 -17 -41q-18 -21 -40 -21q-29 0 -29 27q0 24 18 43q19 19 43 19q25 0 25 -27zM948 833q0 -21 -17 -41q-18 -21 -40 -21q-29 0 -29 27q0 24 18 43
q19 19 43 19q25 0 25 -27z" />
    <glyph glyph-name="Zcaron" unicode="&#x17d;" horiz-adv-x="980" 
d="M270 39l-2 1q141 -30 170 -30q136 0 213 54q24 16 40 37q14 17 13 17q11 0 11 -27q0 -39 -65 -92q-76 -60 -168 -60q-73 0 -157 30q-84 29 -104 29q-82 -47 -150 -47q-100 0 -100 44q0 33 58 51q49 15 119 15q18 0 74 -9q94 91 171 205q-17 4 -44 4q-43 0 -61 -20
q-2 -5 -6 -5t-4 13q0 61 89 61l61 -1q135 199 253 277q-39 -10 -87 -10q-46 0 -136 29t-141 29q-89 0 -159 -75q-69 -73 -69 -163q0 -31 14 -57q10 -20 23 -25l5 -2q6 0 4 5q-10 22 5 44q15 20 43 20q22 0 37 -16q15 -17 15 -38q0 -31 -24 -50q-22 -19 -54 -19q-61 0 -95 46
q-29 41 -29 104q0 107 103 201q107 98 240 98q58 0 139 -37q84 -38 114 -38h1q89 2 152 54q14 0 14 -38q0 -18 -86 -106q-116 -116 -198 -243h37q28 0 50 11l18 10q2 0 2 -12q0 -62 -101 -62l-46 1q-113 -154 -202 -208zM713 788q100 70 161 70q11 0 11 -11q0 -1 -98 -57
q-34 -20 -72 -53q-26 -25 -33 -25q-11 0 -19 29q-11 43 -31 75q-13 18 -21 28q-12 15 -12 16q0 3 8 3q84 -2 106 -75z" />
    <glyph glyph-name="zcaron" unicode="&#x17e;" horiz-adv-x="278" 
d="M329 512q62 30 110 30q11 0 11 -9q0 -7 -17 -10q-85 -17 -149 -81q-9 -9 -13 -9q-10 0 -8 14q11 56 -7 82q-8 12 -25 20q-13 6 -13 11q0 6 10 6q48 0 77 -27t24 -27zM339 352q0 -50 -58 -126q-54 -70 -117 -111q29 -21 39 -61q10 -43 -11 -87q49 -13 49 -60
q0 -26 -17 -43t-35 -17q-25 0 -31 16q26 6 26 33q0 18 -15 24q-44 -83 -143 -157q-100 -74 -171 -74q-83 0 -83 63q0 91 129 163q113 64 218 64q40 78 5 104q-62 -35 -94 -35q-35 0 -35 28q0 20 30 37q30 18 61 19q18 1 37 -2q92 64 145 155q1 4 0 4t-3 -2q-96 -96 -196 -96
q-51 0 -51 53q0 45 32 95q35 53 71 53q21 0 21 -32q0 -56 -63 -119l-3 -4q51 0 148 67q98 66 90 66q25 0 25 -18zM-148 -274q62 0 156 100q85 88 85 115h-7q-69 0 -170 -60q-107 -65 -107 -122q0 -33 43 -33z" />
    <glyph glyph-name="florin" unicode="&#x192;" horiz-adv-x="340" 
d="M-253 -38q43 0 43 -40q0 -9 -4 -16q-1 -1 -2 -3l-2 -3q0 10 -12 10q-22 0 -22 -22q0 -30 43 -30q84 0 198 171q37 55 102 168q88 150 107 180l-54 1q-16 0 -27 -8q-6 -4 -8.5 -6t-1.5 -2q-8 0 7 26t39 26l67 -3q177 273 327 273q49 0 77 -24q26 -23 26 -58q0 -22 -18 -42
q-20 -18 -42 -18q-40 0 -40 39q0 15 12 29q12 12 28 12q8 0 8 4q0 20 -41 20q-99 0 -244 -235q62 -3 65 -2q30 0 30 6q4 0 -7 -17q-20 -26 -46 -25l-64 1q-182 -303 -229 -365q-142 -186 -274 -186q-41 0 -68 21q-30 22 -30 62q0 56 57 56z" />
    <glyph glyph-name="Ohorn" unicode="&#x1a0;" horiz-adv-x="695" 
d="M529 616q-67 -44 -114 -120q-43 -70 -43 -119q0 -25 21 -25q47 0 94 75q46 73 46 149q0 25 -4 40zM750 585q4 -20 4 -47q0 -223 -164 -404q-173 -191 -411 -191q-178 0 -178 176q0 111 106 254q97 132 204 195q27 15 55 15q11 0 11 -4q0 -3 -7 -9q-92 -74 -179 -209
q-97 -148 -97 -248q0 -115 102 -115q162 0 328 184q167 185 167 368q0 44 -18 72q-19 30 -53 30q-13 0 -31 -5l-12 -5h1q8 -21 8 -53q0 -101 -58 -192q-63 -97 -144 -97q-27 0 -44 20q-19 20 -19 56q0 74 55 156q56 83 136 132q-42 70 -132 70q-43 0 -73 -21
q-26 -20 -26 -40q0 -27 26 -27q2 0 6 2l5 2q7 0 7 -15q0 -17 -15 -29q-17 -14 -41 -14q-29 0 -48 18q-20 20 -20 47q0 49 45 86q51 42 135 42q117 0 176 -96q21 12 63 12q58 0 96 -44q0 -1 4 -5.5t6 -7.5q10 0 28 -8q24 -14 35 -9q26 8 17 36q-11 36 -59 27q3 33 22 34
q53 5 69 -52q9 -26 1 -57q-9 -37 -39 -46q-20 -6 -43 11q-1 1 -3.5 2.5t-3.5 2.5z" />
    <glyph glyph-name="ohorn" unicode="&#x1a1;" horiz-adv-x="332" 
d="M158 150q0 20 15 37q15 15 35 15q24 0 37 -12q44 59 44 109q0 36 -37 36q-51 0 -118 -87q-68 -86 -68 -153q0 -42 41 -42q34 0 80 52q-29 17 -29 45zM327 297q-5 -56 -66 -152q54 -13 139 106q3 4 7 4q8 0 8 -27q0 -15 -12 -32q-82 -105 -179 -101q-82 -93 -160 -93
q-81 0 -81 81q0 87 88 184q91 103 185 103q30 0 46 -10q13 -2 24 -8q24 -14 35 -9q26 8 17 36q-11 36 -59 27q3 33 22 34q53 5 69 -52q9 -26 1 -57q-9 -37 -39 -46q-20 -6 -43 11q-1 1 -2 1z" />
    <glyph glyph-name="Uhorn" unicode="&#x1af;" horiz-adv-x="879" 
d="M1064 595q-93 -102 -199 -279q-136 -226 -136 -340q0 -60 34 -94q32 -31 85 -31q18 0 40 7l22 7q2 0 2 -2q0 -22 -35 -45q-38 -23 -84 -23q-71 0 -114 42q-46 42 -46 113q0 99 128 316q119 199 219 301q2 2 2 3q-1 7 -6 7l-5 -1q-61 -32 -279 -348q-192 -278 -344 -278
q-66 0 -103 37q-35 33 -35 81q0 124 172 303q192 198 206 239q-50 -24 -102 -24q-30 0 -97 32t-125 32q-80 0 -142 -51q-64 -54 -64 -128q0 -62 35 -88q2 -2 6 -2q5 0 3 6q-3 7 -3 16q0 19 15 32q16 14 36 14q21 0 36 -15q15 -17 15 -37q0 -30 -22 -52t-53 -22q-47 0 -80 37
q-39 42 -39 119q0 103 90 170q88 66 221 66q31 0 116 -35q87 -35 116 -35q44 0 74 30q10 9 17 16l10 10t2 3q13 0 13 -34q0 -69 -178 -283q-179 -215 -179 -295q0 -69 66 -69t155 98q48 54 163 217q109 152 171 216q96 98 176 98q35 0 57 -5q7 -1 7 -6v-1q-1 -1 -2.5 -3
t-2.5 -4q19 -9 28 -6q26 8 17 36q-11 36 -59 27q3 33 22 34q53 5 69 -52q9 -26 1 -57q-9 -37 -39 -46q-20 -6 -43 11q-20 14 -31 15z" />
    <glyph glyph-name="uhorn" unicode="&#x1b0;" 
d="M362 292q-75 -125 -112 -197q-5 -10 -5 -18q0 -19 23 -19q80 0 210 180l17 22q8 0 8 -28q0 -19 -32 -62q-131 -170 -248 -170q-68 0 -68 59q-71 -59 -130 -59q-68 0 -68 58q0 22 15 48l113 197q7 13 7 23q0 9 -7 16q-7 6 -7 7q0 4 5 7q20 12 46 12q50 0 50 -35
q0 -15 -12 -36q-72 -118 -115 -202q-5 -10 -5 -18q0 -19 23 -19q74 0 173 176q47 83 47 92t-7 16q-7 6 -7 7q0 4 5 7q19 12 46 12q42 0 49 -25q8 -2 13 0q26 8 17 36q-11 36 -59 27q3 33 22 34q53 5 69 -52q9 -26 1 -57q-9 -37 -39 -46q-19 -5 -38 7z" />
    <glyph glyph-name="circumflex" unicode="&#x2c6;" horiz-adv-x="833" 
d="M308 562q-86 -61 -141 -61q-10 0 -10 9q0 -8 99 58q80 56 80 61q-11 0 44 -91q5 -8 9.5 -14.5t7.5 -11t5 -8t3 -4.5l1 -1q0 -3 -4 -3q-73 1 -94 66z" />
    <glyph glyph-name="caron" unicode="&#x2c7;" horiz-adv-x="833" 
d="M319 616q100 70 161 70q11 0 11 -11q0 -1 -98 -57q-34 -20 -72 -53q-26 -25 -33 -25q-11 0 -19 29q-11 43 -31 75q-13 18 -21 28q-12 15 -12 16q0 3 8 3q84 -2 106 -75z" />
    <glyph glyph-name="breve" unicode="&#x2d8;" horiz-adv-x="401" 
d="M186 722q-82 0 -88 63q-8 59 21 66q14 4 22.5 -8t12.5 -40q7 -43 65 -29q40 6 105 64q4 3 6 3q6 0 6 -15q0 -5 -1 -8q-10 -27 -49 -58q-50 -38 -100 -38z" />
    <glyph glyph-name="dotaccent" unicode="&#x2d9;" horiz-adv-x="833" 
d="M259 506q0 -24 -20 -46q-21 -22 -46 -22q-34 0 -34 31q0 26 22 48q21 22 48 22q30 0 30 -33z" />
    <glyph glyph-name="ring" unicode="&#x2da;" horiz-adv-x="833" 
d="M259 582q16 34 52 57q35 23 68 23q34 0 45 -23q10 -23 -6 -57q-40 -79 -121 -79q-33 0 -44 23t6 56zM291 582q-11 -20 -3 -33q8 -14 26 -14q48 0 72 47q11 20 3 34t-27 14q-47 0 -71 -48z" />
    <glyph glyph-name="ogonek" unicode="&#x2db;" horiz-adv-x="833" 
 />
    <glyph glyph-name="tilde" unicode="&#x2dc;" horiz-adv-x="833" 
d="M229 573q-23 0 -45 -8l-10 -5l-9 -4q-2 0 -2 3q0 12 36 33q38 23 69 23q26 0 59 -16q34 -17 52 -17q31 0 54 19q22 17 20 17q4 -1 4 -5q0 -14 -28 -42q-35 -36 -74 -36q-23 0 -61 19t-65 19z" />
    <glyph glyph-name="gravecomb" unicode="&#x300;" horiz-adv-x="833" 
d="M166 562q16 0 28 -18q-1 0 2 -6l9.5 -19l15.5 -31q12 -21 30 -47l18 -24q0 -7 -9 -7q-21 0 -68 41q-51 45 -51 82q0 29 25 29z" />
    <glyph glyph-name="acutecomb" unicode="&#x301;" horiz-adv-x="833" 
d="M299 562q27 0 27 -26q0 -38 -66 -72q-59 -30 -98 -30q-13 0 -13 10l31 19q33 20 55 42q57 57 64 57z" />
    <glyph glyph-name="tildecomb" unicode="&#x303;" horiz-adv-x="833" 
d="M229 573q-23 0 -45 -8l-10 -5l-9 -4q-2 0 -2 3q0 12 36 33q38 23 69 23q26 0 59 -16q34 -17 52 -17q31 0 54 19q22 17 20 17q4 -1 4 -5q0 -14 -28 -42q-35 -36 -74 -36q-23 0 -61 19t-65 19z" />
    <glyph glyph-name="hookabovecomb" unicode="&#x309;" horiz-adv-x="316" 
d="M148 911l12 5q7 4 29 4q44 0 44 -36q0 -28 -42 -60q-38 -28 -73 -28q-23 0 -29 15q-1 2 -1 6q0 8 10 5h8q24 0 49 15t25 36q0 16 -17 16q-5 0 -17 -5q-13 -6 -17 -6q-13 0 -13 9q0 2 1 3q20 17 31 21z" />
    <glyph glyph-name="uni031B" unicode="&#x31b;" horiz-adv-x="0" 
 />
    <glyph glyph-name="dotbelowcomb" unicode="&#x323;" horiz-adv-x="204" 
d="M144 -84q0 -21 -17 -41q-18 -21 -40 -21q-29 0 -29 27q0 23 18 43q19 19 43 19q25 0 25 -27z" />
    <glyph glyph-name="uni1EA0" unicode="&#x1ea0;" horiz-adv-x="937" 
d="M647 -57q-100 0 -100 79q0 88 124 272q-27 1 -65 8l-57 9q-122 -207 -178 -274q-110 -128 -234 -128q-53 0 -89 24q-42 27 -42 76q0 37 20 62q20 23 50 23q53 0 53 -50q0 -49 -40 -49q-10 0 -16 3q-6 2 -6 -6q0 -10 14 -19q18 -12 48 -12q104 0 199 110q56 66 161 245
q-12 1 -62 1q-34 0 -56 -16q-24 -17 -24 -38q0 -14 11 -23q12 -7 28 0q4 4 5 -4q0 -11 -7 -22q-17 -24 -45 -26q-25 -2 -43 11q-30 21 -30 55q0 115 167 115q52 0 85 -4q99 166 176 237q110 105 241 105q68 0 111 -43q44 -42 44 -104q0 -106 -82 -176q-89 -77 -247 -90
q-115 -197 -115 -254q0 -40 39 -40q43 0 130 84q4 4 7 4q7 0 7 -18q0 -7 -1 -10q-12 -34 -60 -71q-58 -46 -121 -46zM578 359q87 -7 132 -10q157 214 230 214q8 0 8 -3q0 -2 -6 -8q-59 -62 -146 -200q102 12 170 68q72 58 72 140q0 41 -26 67q-28 28 -78 28q-107 0 -202 -89
q-68 -63 -154 -207zM458 -110q0 -21 -17 -41q-18 -21 -40 -21q-29 0 -29 27q0 23 18 43q19 19 43 19q25 0 25 -27z" />
    <glyph glyph-name="uni1EA1" unicode="&#x1ea1;" 
d="M500 252q2 2 3 2q8 0 8 -34q0 -15 -32 -56q-125 -164 -248 -164q-64 0 -64 53q-56 -52 -112 -52q-39 0 -60 25q-19 22 -19 56q0 88 87 185q91 103 186 103q47 0 65 -37q28 37 66 37q49 0 49 -23q0 1 -1.5 0t-5 -2.5t-7.5 -4.5q-20 -14 -40 -47q-35 -55 -100 -171
q-16 -28 -16 -44q0 -21 19 -21q82 0 222 195zM62 112q0 -48 36 -48q20 0 48 18q37 24 60 65l74 130q5 12 5 18q0 39 -40 39q-49 0 -117 -86q-66 -84 -66 -136zM106 -84q0 -21 -17 -41q-18 -21 -40 -21q-29 0 -29 27q0 23 18 43q19 19 43 19q25 0 25 -27z" />
    <glyph glyph-name="uni1EA2" unicode="&#x1ea2;" horiz-adv-x="937" 
d="M647 -57q-100 0 -100 79q0 88 124 272q-27 1 -65 8l-57 9q-122 -207 -178 -274q-110 -128 -234 -128q-53 0 -89 24q-42 27 -42 76q0 37 20 62q20 23 50 23q53 0 53 -50q0 -49 -40 -49q-10 0 -16 3q-6 2 -6 -6q0 -10 14 -19q18 -12 48 -12q104 0 199 110q56 66 161 245
q-12 1 -62 1q-34 0 -56 -16q-24 -17 -24 -38q0 -14 11 -23q12 -7 28 0q4 4 5 -4q0 -11 -7 -22q-17 -24 -45 -26q-25 -2 -43 11q-30 21 -30 55q0 115 167 115q52 0 85 -4q99 166 176 237q110 105 241 105q68 0 111 -43q44 -42 44 -104q0 -106 -82 -176q-89 -77 -247 -90
q-115 -197 -115 -254q0 -40 39 -40q43 0 130 84q4 4 7 4q7 0 7 -18q0 -7 -1 -10q-12 -34 -60 -71q-58 -46 -121 -46zM578 359q87 -7 132 -10q157 214 230 214q8 0 8 -3q0 -2 -6 -8q-59 -62 -146 -200q102 12 170 68q72 58 72 140q0 41 -26 67q-28 28 -78 28q-107 0 -202 -89
q-68 -63 -154 -207zM1018 883l12 5q7 4 29 4q44 0 44 -36q0 -28 -42 -60q-38 -28 -73 -28q-23 0 -29 15q-1 2 -1 6q0 8 10 5h8q24 0 49 15t25 36q0 16 -17 16q-5 0 -17 -5q-14 -6 -17 -6q-13 0 -13 9q0 2 1 3q20 17 31 21z" />
    <glyph glyph-name="uni1EA3" unicode="&#x1ea3;" 
d="M500 252q2 2 3 2q8 0 8 -34q0 -15 -32 -56q-125 -164 -248 -164q-64 0 -64 53q-56 -52 -112 -52q-39 0 -60 25q-19 22 -19 56q0 88 87 185q91 103 186 103q47 0 65 -37q28 37 66 37q49 0 49 -23q0 1 -1.5 0t-5 -2.5t-7.5 -4.5q-20 -14 -40 -47q-35 -55 -100 -171
q-16 -28 -16 -44q0 -21 19 -21q82 0 222 195zM62 112q0 -48 36 -48q20 0 48 18q37 24 60 65l74 130q5 12 5 18q0 39 -40 39q-49 0 -117 -86q-66 -84 -66 -136zM343 541l12 5q7 4 29 4q44 0 44 -36q0 -28 -42 -60q-38 -28 -73 -28q-23 0 -29 15q-1 2 -1 6q0 8 10 5h8
q23 0 49 15q25 15 25 36q0 16 -17 16q-5 0 -17 -5q-13 -6 -17 -6q-13 0 -13 9q0 2 1 3q20 17 31 21z" />
    <glyph glyph-name="uni1EA4" unicode="&#x1ea4;" horiz-adv-x="937" 
d="M647 -57q-100 0 -100 79q0 88 124 272q-27 1 -65 8l-57 9q-122 -207 -178 -274q-110 -128 -234 -128q-53 0 -89 24q-42 27 -42 76q0 37 20 62q20 23 50 23q53 0 53 -50q0 -49 -40 -49q-10 0 -16 3q-6 2 -6 -6q0 -10 14 -19q18 -12 48 -12q104 0 199 110q56 66 161 245
q-12 1 -62 1q-34 0 -56 -16q-24 -17 -24 -38q0 -14 11 -23q12 -7 28 0q4 4 5 -4q0 -11 -7 -22q-17 -24 -45 -26q-25 -2 -43 11q-30 21 -30 55q0 115 167 115q52 0 85 -4q99 166 176 237q110 105 241 105q68 0 111 -43q44 -42 44 -104q0 -106 -82 -176q-89 -77 -247 -90
q-115 -197 -115 -254q0 -40 39 -40q43 0 130 84q4 4 7 4q7 0 7 -18q0 -7 -1 -10q-12 -34 -60 -71q-58 -46 -121 -46zM578 359q87 -7 132 -10q157 214 230 214q8 0 8 -3q0 -2 -6 -8q-59 -62 -146 -200q102 12 170 68q72 58 72 140q0 41 -26 67q-28 28 -78 28q-107 0 -202 -89
q-68 -63 -154 -207zM990 801q-86 -61 -141 -61q-10 0 -10 9q0 -8 99 58q80 56 80 61q-11 0 44 -91q5 -8 9.5 -14.5t7.5 -11t5 -8t3 -4.5l1 -1q0 -3 -4 -3q-73 1 -94 66zM1233 967q27 0 27 -26q0 -37 -66 -72q-58 -30 -98 -30q-13 0 -13 10l31 19q33 20 55 42q57 57 64 57z
" />
    <glyph glyph-name="uni1EA5" unicode="&#x1ea5;" 
d="M500 252q2 2 3 2q8 0 8 -34q0 -15 -32 -56q-125 -164 -248 -164q-64 0 -64 53q-56 -52 -112 -52q-39 0 -60 25q-19 22 -19 56q0 88 87 185q91 103 186 103q47 0 65 -37q28 37 66 37q49 0 49 -23q0 1 -1.5 0t-5 -2.5t-7.5 -4.5q-20 -14 -40 -47q-35 -55 -100 -171
q-16 -28 -16 -44q0 -21 19 -21q82 0 222 195zM62 112q0 -48 36 -48q20 0 48 18q37 24 60 65l74 130q5 12 5 18q0 39 -40 39q-49 0 -117 -86q-66 -84 -66 -136zM332 465q-86 -61 -141 -61q-10 0 -10 9q0 -8 99 58q80 56 80 61q-11 0 44 -91q5 -8 9.5 -14.5t7.5 -11t5 -8
t3 -4.5l1 -1q0 -3 -4 -3q-73 1 -94 66zM572 625q27 0 27 -26q0 -37 -66 -72q-59 -30 -98 -30q-13 0 -13 10l31 19q33 20 55 42q57 57 64 57z" />
    <glyph glyph-name="uni1EA6" unicode="&#x1ea6;" horiz-adv-x="937" 
d="M647 -57q-100 0 -100 79q0 88 124 272q-27 1 -65 8l-57 9q-122 -207 -178 -274q-110 -128 -234 -128q-53 0 -89 24q-42 27 -42 76q0 37 20 62q20 23 50 23q53 0 53 -50q0 -49 -40 -49q-10 0 -16 3q-6 2 -6 -6q0 -10 14 -19q18 -12 48 -12q104 0 199 110q56 66 161 245
q-12 1 -62 1q-34 0 -56 -16q-24 -17 -24 -38q0 -14 11 -23q12 -7 28 0q4 4 5 -4q0 -11 -7 -22q-17 -24 -45 -26q-25 -2 -43 11q-30 21 -30 55q0 115 167 115q52 0 85 -4q99 166 176 237q110 105 241 105q68 0 111 -43q44 -42 44 -104q0 -106 -82 -176q-89 -77 -247 -90
q-115 -197 -115 -254q0 -40 39 -40q43 0 130 84q4 4 7 4q7 0 7 -18q0 -7 -1 -10q-12 -34 -60 -71q-58 -46 -121 -46zM578 359q87 -7 132 -10q157 214 230 214q8 0 8 -3q0 -2 -6 -8q-59 -62 -146 -200q102 12 170 68q72 58 72 140q0 41 -26 67q-28 28 -78 28q-107 0 -202 -89
q-68 -63 -154 -207zM990 801q-86 -61 -141 -61q-10 0 -10 9q0 -8 99 58q80 56 80 61q-11 0 44 -91q5 -8 9.5 -14.5t7.5 -11t5 -8t3 -4.5l1 -1q0 -3 -4 -3q-73 1 -94 66zM1034 1008q16 0 28 -18q-1 0 2 -6l9.5 -19l15.5 -31q12 -21 30 -47l18 -24q0 -7 -9 -7q-21 0 -68 41
q-51 45 -51 82q0 29 25 29z" />
    <glyph glyph-name="uni1EA7" unicode="&#x1ea7;" 
d="M500 252q2 2 3 2q8 0 8 -34q0 -15 -32 -56q-125 -164 -248 -164q-64 0 -64 53q-56 -52 -112 -52q-39 0 -60 25q-19 22 -19 56q0 88 87 185q91 103 186 103q47 0 65 -37q28 37 66 37q49 0 49 -23q0 1 -1.5 0t-5 -2.5t-7.5 -4.5q-20 -14 -40 -47q-35 -55 -100 -171
q-16 -28 -16 -44q0 -21 19 -21q82 0 222 195zM62 112q0 -48 36 -48q20 0 48 18q37 24 60 65l74 130q5 12 5 18q0 39 -40 39q-49 0 -117 -86q-66 -84 -66 -136zM325 470q-86 -61 -141 -61q-10 0 -10 9q0 -8 99 58q80 56 80 61q-11 0 44 -91q5 -8 9.5 -14.5t7.5 -11t5 -8
t3 -4.5l1 -1q0 -3 -4 -3q-73 1 -94 66zM347 680q16 0 28 -18q-1 0 2 -6l9.5 -19l15.5 -31q12 -21 30 -47l18 -24q0 -7 -9 -7q-21 0 -68 41q-51 45 -51 82q0 29 25 29z" />
    <glyph glyph-name="uni1EA8" unicode="&#x1ea8;" horiz-adv-x="937" 
d="M647 -57q-100 0 -100 79q0 88 124 272q-27 1 -65 8l-57 9q-122 -207 -178 -274q-110 -128 -234 -128q-53 0 -89 24q-42 27 -42 76q0 37 20 62q20 23 50 23q53 0 53 -50q0 -49 -40 -49q-10 0 -16 3q-6 2 -6 -6q0 -10 14 -19q18 -12 48 -12q104 0 199 110q56 66 161 245
q-12 1 -62 1q-34 0 -56 -16q-24 -17 -24 -38q0 -14 11 -23q12 -7 28 0q4 4 5 -4q0 -11 -7 -22q-17 -24 -45 -26q-25 -2 -43 11q-30 21 -30 55q0 115 167 115q52 0 85 -4q99 166 176 237q110 105 241 105q68 0 111 -43q44 -42 44 -104q0 -106 -82 -176q-89 -77 -247 -90
q-115 -197 -115 -254q0 -40 39 -40q43 0 130 84q4 4 7 4q7 0 7 -18q0 -7 -1 -10q-12 -34 -60 -71q-58 -46 -121 -46zM578 359q87 -7 132 -10q157 214 230 214q8 0 8 -3q0 -2 -6 -8q-59 -62 -146 -200q102 12 170 68q72 58 72 140q0 41 -26 67q-28 28 -78 28q-107 0 -202 -89
q-68 -63 -154 -207zM990 801q-86 -61 -141 -61q-10 0 -10 9q0 -8 99 58q80 56 80 61q-11 0 44 -91q5 -8 9.5 -14.5t7.5 -11t5 -8t3 -4.5l1 -1q0 -3 -4 -3q-73 1 -94 66zM1139 944l12 5q7 4 29 4q44 0 44 -36q0 -29 -42 -60q-38 -28 -73 -28q-23 0 -29 15q-1 2 -1 6q0 8 10 5
h8q23 0 49 15q25 15 25 36q0 16 -17 16q-5 0 -17 -5q-13 -6 -17 -6q-13 0 -13 9q0 2 1 3q20 17 31 21z" />
    <glyph glyph-name="uni1EA9" unicode="&#x1ea9;" 
d="M500 252q2 2 3 2q8 0 8 -34q0 -15 -32 -56q-125 -164 -248 -164q-64 0 -64 53q-56 -52 -112 -52q-39 0 -60 25q-19 22 -19 56q0 88 87 185q91 103 186 103q47 0 65 -37q28 37 66 37q49 0 49 -23q0 1 -1.5 0t-5 -2.5t-7.5 -4.5q-20 -14 -40 -47q-35 -55 -100 -171
q-16 -28 -16 -44q0 -21 19 -21q82 0 222 195zM62 112q0 -48 36 -48q20 0 48 18q37 24 60 65l74 130q5 12 5 18q0 39 -40 39q-49 0 -117 -86q-66 -84 -66 -136zM308 465q-86 -61 -141 -61q-10 0 -10 9q0 -8 99 58q80 56 80 61q-11 0 44 -91q5 -8 9.5 -14.5t7.5 -11t5 -8
t3 -4.5l1 -1q0 -3 -4 -3q-73 1 -94 66zM459 594l12 5q7 4 29 4q44 0 44 -36q0 -29 -42 -60q-38 -28 -73 -28q-23 0 -29 15q-1 2 -1 6q0 8 10 5h8q23 0 49 15q25 15 25 36q0 16 -17 16q-5 0 -17 -5q-14 -6 -17 -6q-13 0 -13 9q0 2 1 3q20 17 31 21z" />
    <glyph glyph-name="uni1EAA" unicode="&#x1eaa;" horiz-adv-x="937" 
d="M647 -57q-100 0 -100 79q0 88 124 272q-27 1 -65 8l-57 9q-122 -207 -178 -274q-110 -128 -234 -128q-53 0 -89 24q-42 27 -42 76q0 37 20 62q20 23 50 23q53 0 53 -50q0 -49 -40 -49q-10 0 -16 3q-6 2 -6 -6q0 -10 14 -19q18 -12 48 -12q104 0 199 110q56 66 161 245
q-12 1 -62 1q-34 0 -56 -16q-24 -17 -24 -38q0 -14 11 -23q12 -7 28 0q4 4 5 -4q0 -11 -7 -22q-17 -24 -45 -26q-25 -2 -43 11q-30 21 -30 55q0 115 167 115q52 0 85 -4q99 166 176 237q110 105 241 105q68 0 111 -43q44 -42 44 -104q0 -106 -82 -176q-89 -77 -247 -90
q-115 -197 -115 -254q0 -40 39 -40q43 0 130 84q4 4 7 4q7 0 7 -18q0 -7 -1 -10q-12 -34 -60 -71q-58 -46 -121 -46zM578 359q87 -7 132 -10q157 214 230 214q8 0 8 -3q0 -2 -6 -8q-59 -62 -146 -200q102 12 170 68q72 58 72 140q0 41 -26 67q-28 28 -78 28q-107 0 -202 -89
q-68 -63 -154 -207zM990 801q-86 -61 -141 -61q-10 0 -10 9q0 -8 99 58q80 56 80 61q-11 0 44 -91q5 -8 9.5 -14.5t7.5 -11t5 -8t3 -4.5l1 -1q0 -3 -4 -3q-73 1 -94 66zM1038 914q-23 0 -45 -8q-4 -2 -10 -4l-9 -5q-2 0 -2 3q0 12 36 33q38 23 69 23q26 0 59 -16
q34 -17 52 -17q31 0 54 19q22 17 20 17q4 -1 4 -5q0 -14 -28 -42q-34 -36 -74 -36q-23 0 -61 19t-65 19z" />
    <glyph glyph-name="uni1EAB" unicode="&#x1eab;" 
d="M500 252q2 2 3 2q8 0 8 -34q0 -15 -32 -56q-125 -164 -248 -164q-64 0 -64 53q-56 -52 -112 -52q-39 0 -60 25q-19 22 -19 56q0 88 87 185q91 103 186 103q47 0 65 -37q28 37 66 37q49 0 49 -23q0 1 -1.5 0t-5 -2.5t-7.5 -4.5q-20 -14 -40 -47q-35 -55 -100 -171
q-16 -28 -16 -44q0 -21 19 -21q82 0 222 195zM62 112q0 -48 36 -48q20 0 48 18q37 24 60 65l74 130q5 12 5 18q0 39 -40 39q-49 0 -117 -86q-66 -84 -66 -136zM311 477q-86 -61 -141 -61q-10 0 -10 9q0 -8 99 58q80 56 80 61q-11 0 44 -91q5 -8 9.5 -14.5t7.5 -11t5 -8
t3 -4.5l1 -1q0 -3 -4 -3q-73 1 -94 66zM461 519q-23 0 -45 -8l-10 -5l-9 -4q-2 0 -2 3q0 12 36 33q38 23 69 23q26 0 59 -16q34 -17 52 -17q31 0 54 19q22 17 20 17q4 -1 4 -5q0 -14 -28 -42q-35 -36 -74 -36q-23 0 -61 19t-65 19z" />
    <glyph glyph-name="uni1EAC" unicode="&#x1eac;" horiz-adv-x="937" 
d="M647 -57q-100 0 -100 79q0 88 124 272q-27 1 -65 8l-57 9q-122 -207 -178 -274q-110 -128 -234 -128q-53 0 -89 24q-42 27 -42 76q0 37 20 62q20 23 50 23q53 0 53 -50q0 -49 -40 -49q-10 0 -16 3q-6 2 -6 -6q0 -10 14 -19q18 -12 48 -12q104 0 199 110q56 66 161 245
q-12 1 -62 1q-34 0 -56 -16q-24 -17 -24 -38q0 -14 11 -23q12 -7 28 0q4 4 5 -4q0 -11 -7 -22q-17 -24 -45 -26q-25 -2 -43 11q-30 21 -30 55q0 115 167 115q52 0 85 -4q99 166 176 237q110 105 241 105q68 0 111 -43q44 -42 44 -104q0 -106 -82 -176q-89 -77 -247 -90
q-115 -197 -115 -254q0 -40 39 -40q43 0 130 84q4 4 7 4q7 0 7 -18q0 -7 -1 -10q-12 -34 -60 -71q-58 -46 -121 -46zM578 359q87 -7 132 -10q157 214 230 214q8 0 8 -3q0 -2 -6 -8q-59 -62 -146 -200q102 12 170 68q72 58 72 140q0 41 -26 67q-28 28 -78 28q-107 0 -202 -89
q-68 -63 -154 -207zM990 801q-86 -61 -141 -61q-10 0 -10 9q0 -8 99 58q80 56 80 61q-11 0 44 -91q5 -8 9.5 -14.5t7.5 -11t5 -8t3 -4.5l1 -1q0 -3 -4 -3q-73 1 -94 66zM437 -84q0 -21 -17 -41q-18 -21 -40 -21q-29 0 -29 27q0 23 18 43q19 19 43 19q25 0 25 -27z" />
    <glyph glyph-name="uni1EAD" unicode="&#x1ead;" 
d="M500 252q2 2 3 2q8 0 8 -34q0 -15 -32 -56q-125 -164 -248 -164q-64 0 -64 53q-56 -52 -112 -52q-39 0 -60 25q-19 22 -19 56q0 88 87 185q91 103 186 103q47 0 65 -37q28 37 66 37q49 0 49 -23q0 1 -1.5 0t-5 -2.5t-7.5 -4.5q-20 -14 -40 -47q-35 -55 -100 -171
q-16 -28 -16 -44q0 -21 19 -21q82 0 222 195zM62 112q0 -48 36 -48q20 0 48 18q37 24 60 65l74 130q5 12 5 18q0 39 -40 39q-49 0 -117 -86q-66 -84 -66 -136zM329 474q-86 -61 -141 -61q-10 0 -10 9q0 -8 99 58q80 56 80 61q-11 0 44 -91q5 -8 9.5 -14.5t7.5 -11t5 -8
t3 -4.5l1 -1q0 -3 -4 -3q-73 1 -94 66zM82 -84q0 -21 -17 -41q-18 -21 -40 -21q-29 0 -29 27q0 23 18 43q19 19 43 19q25 0 25 -27z" />
    <glyph glyph-name="uni1EAE" unicode="&#x1eae;" horiz-adv-x="937" 
d="M647 -57q-100 0 -100 79q0 88 124 272q-27 1 -65 8l-57 9q-122 -207 -178 -274q-110 -128 -234 -128q-53 0 -89 24q-42 27 -42 76q0 37 20 62q20 23 50 23q53 0 53 -50q0 -49 -40 -49q-10 0 -16 3q-6 2 -6 -6q0 -10 14 -19q18 -12 48 -12q104 0 199 110q56 66 161 245
q-12 1 -62 1q-34 0 -56 -16q-24 -17 -24 -38q0 -14 11 -23q12 -7 28 0q4 4 5 -4q0 -11 -7 -22q-17 -24 -45 -26q-25 -2 -43 11q-30 21 -30 55q0 115 167 115q52 0 85 -4q99 166 176 237q110 105 241 105q68 0 111 -43q44 -42 44 -104q0 -106 -82 -176q-89 -77 -247 -90
q-115 -197 -115 -254q0 -40 39 -40q43 0 130 84q4 4 7 4q7 0 7 -18q0 -7 -1 -10q-12 -34 -60 -71q-58 -46 -121 -46zM578 359q87 -7 132 -10q157 214 230 214q8 0 8 -3q0 -2 -6 -8q-59 -62 -146 -200q102 12 170 68q72 58 72 140q0 41 -26 67q-28 28 -78 28q-107 0 -202 -89
q-68 -63 -154 -207zM1014 751q-82 0 -88 63q-8 58 21 66q14 4 22.5 -8t12.5 -40q7 -43 65 -29q40 6 105 64q4 3 6 3q6 0 6 -15q0 -5 -1 -8q-10 -27 -49 -58q-50 -38 -100 -38zM1181 1003q27 0 27 -26q0 -37 -66 -72q-58 -30 -98 -30q-13 0 -13 10l31 19q33 20 55 42
q57 57 64 57z" />
    <glyph glyph-name="uni1EAF" unicode="&#x1eaf;" 
d="M500 252q2 2 3 2q8 0 8 -34q0 -15 -32 -56q-125 -164 -248 -164q-64 0 -64 53q-56 -52 -112 -52q-39 0 -60 25q-19 22 -19 56q0 88 87 185q91 103 186 103q47 0 65 -37q28 37 66 37q49 0 49 -23q0 1 -1.5 0t-5 -2.5t-7.5 -4.5q-20 -14 -40 -47q-35 -55 -100 -171
q-16 -28 -16 -44q0 -21 19 -21q82 0 222 195zM62 112q0 -48 36 -48q20 0 48 18q37 24 60 65l74 130q5 12 5 18q0 39 -40 39q-49 0 -117 -86q-66 -84 -66 -136zM318 416q-82 0 -88 63q-8 59 21 66q14 4 22.5 -8t12.5 -40q7 -43 65 -29q40 6 105 64q4 3 6 3q6 0 6 -15
q0 -5 -1 -8q-10 -27 -49 -58q-50 -38 -100 -38zM496 689q27 0 27 -26q0 -37 -66 -72q-58 -30 -98 -30q-13 0 -13 10l31 19q33 20 55 42q57 57 64 57z" />
    <glyph glyph-name="uni1EB0" unicode="&#x1eb0;" horiz-adv-x="937" 
d="M647 -57q-100 0 -100 79q0 88 124 272q-27 1 -65 8l-57 9q-122 -207 -178 -274q-110 -128 -234 -128q-53 0 -89 24q-42 27 -42 76q0 37 20 62q20 23 50 23q53 0 53 -50q0 -49 -40 -49q-10 0 -16 3q-6 2 -6 -6q0 -10 14 -19q18 -12 48 -12q104 0 199 110q56 66 161 245
q-12 1 -62 1q-34 0 -56 -16q-24 -17 -24 -38q0 -14 11 -23q12 -7 28 0q4 4 5 -4q0 -11 -7 -22q-17 -24 -45 -26q-25 -2 -43 11q-30 21 -30 55q0 115 167 115q52 0 85 -4q99 166 176 237q110 105 241 105q68 0 111 -43q44 -42 44 -104q0 -106 -82 -176q-89 -77 -247 -90
q-115 -197 -115 -254q0 -40 39 -40q43 0 130 84q4 4 7 4q7 0 7 -18q0 -7 -1 -10q-12 -34 -60 -71q-58 -46 -121 -46zM578 359q87 -7 132 -10q157 214 230 214q8 0 8 -3q0 -2 -6 -8q-59 -62 -146 -200q102 12 170 68q72 58 72 140q0 41 -26 67q-28 28 -78 28q-107 0 -202 -89
q-68 -63 -154 -207zM1014 751q-82 0 -88 63q-8 58 21 66q14 4 22.5 -8t12.5 -40q7 -43 65 -29q40 6 105 64q4 3 6 3q6 0 6 -15q0 -5 -1 -8q-10 -27 -49 -58q-50 -38 -100 -38zM982 1029q16 0 28 -18q-1 0 2 -6l9.5 -19l15.5 -31q12 -21 30 -47l18 -24q0 -7 -9 -7
q-21 0 -68 41q-51 45 -51 82q0 29 25 29z" />
    <glyph glyph-name="uni1EB1" unicode="&#x1eb1;" 
d="M500 252q2 2 3 2q8 0 8 -34q0 -15 -32 -56q-125 -164 -248 -164q-64 0 -64 53q-56 -52 -112 -52q-39 0 -60 25q-19 22 -19 56q0 88 87 185q91 103 186 103q47 0 65 -37q28 37 66 37q49 0 49 -23q0 1 -1.5 0t-5 -2.5t-7.5 -4.5q-20 -14 -40 -47q-35 -55 -100 -171
q-16 -28 -16 -44q0 -21 19 -21q82 0 222 195zM62 112q0 -48 36 -48q20 0 48 18q37 24 60 65l74 130q5 12 5 18q0 39 -40 39q-49 0 -117 -86q-66 -84 -66 -136zM318 433q-82 0 -88 63q-8 58 21 66q14 4 22.5 -8t12.5 -40q7 -43 65 -29q40 6 105 64q4 3 6 3q6 0 6 -15
q0 -5 -1 -8q-10 -27 -49 -58q-50 -38 -100 -38zM291 740q16 0 28 -18q-1 0 2 -6l9.5 -19l15.5 -31q12 -21 30 -47l18 -24q0 -7 -9 -7q-21 0 -68 41q-51 45 -51 82q0 29 25 29z" />
    <glyph glyph-name="uni1EB2" unicode="&#x1eb2;" horiz-adv-x="937" 
d="M647 -57q-100 0 -100 79q0 88 124 272q-27 1 -65 8l-57 9q-122 -207 -178 -274q-110 -128 -234 -128q-53 0 -89 24q-42 27 -42 76q0 37 20 62q20 23 50 23q53 0 53 -50q0 -49 -40 -49q-10 0 -16 3q-6 2 -6 -6q0 -10 14 -19q18 -12 48 -12q104 0 199 110q56 66 161 245
q-12 1 -62 1q-34 0 -56 -16q-24 -17 -24 -38q0 -14 11 -23q12 -7 28 0q4 4 5 -4q0 -11 -7 -22q-17 -24 -45 -26q-25 -2 -43 11q-30 21 -30 55q0 115 167 115q52 0 85 -4q99 166 176 237q110 105 241 105q68 0 111 -43q44 -42 44 -104q0 -106 -82 -176q-89 -77 -247 -90
q-115 -197 -115 -254q0 -40 39 -40q43 0 130 84q4 4 7 4q7 0 7 -18q0 -7 -1 -10q-12 -34 -60 -71q-58 -46 -121 -46zM578 359q87 -7 132 -10q157 214 230 214q8 0 8 -3q0 -2 -6 -8q-59 -62 -146 -200q102 12 170 68q72 58 72 140q0 41 -26 67q-28 28 -78 28q-107 0 -202 -89
q-68 -63 -154 -207zM1014 751q-82 0 -88 63q-8 58 21 66q14 4 22.5 -8t12.5 -40q7 -43 65 -29q40 6 105 64q4 3 6 3q6 0 6 -15q0 -5 -1 -8q-10 -27 -49 -58q-50 -38 -100 -38zM1077 984l12 5q7 4 29 4q44 0 44 -36q0 -29 -42 -60q-38 -28 -73 -28q-23 0 -29 15q-1 2 -1 6
q0 8 10 5h8q23 0 49 15q25 15 25 36q0 16 -17 16q-5 0 -17 -5q-13 -6 -17 -6q-13 0 -13 9q0 2 1 3q20 17 31 21z" />
    <glyph glyph-name="uni1EB3" unicode="&#x1eb3;" 
d="M500 252q2 2 3 2q8 0 8 -34q0 -15 -32 -56q-125 -164 -248 -164q-64 0 -64 53q-56 -52 -112 -52q-39 0 -60 25q-19 22 -19 56q0 88 87 185q91 103 186 103q47 0 65 -37q28 37 66 37q49 0 49 -23q0 1 -1.5 0t-5 -2.5t-7.5 -4.5q-20 -14 -40 -47q-35 -55 -100 -171
q-16 -28 -16 -44q0 -21 19 -21q82 0 222 195zM62 112q0 -48 36 -48q20 0 48 18q37 24 60 65l74 130q5 12 5 18q0 39 -40 39q-49 0 -117 -86q-66 -84 -66 -136zM321 422q-82 0 -88 63q-7 59 21 66q14 4 22.5 -8t12.5 -40q7 -43 65 -29q40 6 105 64q5 3 6 3q6 0 6 -15
q0 -5 -1 -8q-10 -27 -49 -58q-50 -38 -100 -38zM406 680l12 5q7 4 29 4q44 0 44 -36q0 -29 -42 -60q-38 -28 -73 -28q-23 0 -29 15q-1 2 -1 6q0 8 10 5h8q24 0 49 15t25 36q0 16 -17 16q-5 0 -17 -5q-14 -6 -17 -6q-13 0 -13 9q0 2 1 3q20 17 31 21z" />
    <glyph glyph-name="uni1EB4" unicode="&#x1eb4;" horiz-adv-x="937" 
d="M647 -57q-100 0 -100 79q0 88 124 272q-27 1 -65 8l-57 9q-122 -207 -178 -274q-110 -128 -234 -128q-53 0 -89 24q-42 27 -42 76q0 37 20 62q20 23 50 23q53 0 53 -50q0 -49 -40 -49q-10 0 -16 3q-6 2 -6 -6q0 -10 14 -19q18 -12 48 -12q104 0 199 110q56 66 161 245
q-12 1 -62 1q-34 0 -56 -16q-24 -17 -24 -38q0 -14 11 -23q12 -7 28 0q4 4 5 -4q0 -11 -7 -22q-17 -24 -45 -26q-25 -2 -43 11q-30 21 -30 55q0 115 167 115q52 0 85 -4q99 166 176 237q110 105 241 105q68 0 111 -43q44 -42 44 -104q0 -106 -82 -176q-89 -77 -247 -90
q-115 -197 -115 -254q0 -40 39 -40q43 0 130 84q4 4 7 4q7 0 7 -18q0 -7 -1 -10q-12 -34 -60 -71q-58 -46 -121 -46zM578 359q87 -7 132 -10q157 214 230 214q8 0 8 -3q0 -2 -6 -8q-59 -62 -146 -200q102 12 170 68q72 58 72 140q0 41 -26 67q-28 28 -78 28q-107 0 -202 -89
q-68 -63 -154 -207zM1014 751q-82 0 -88 63q-8 58 21 66q14 4 22.5 -8t12.5 -40q7 -43 65 -29q40 6 105 64q4 3 6 3q6 0 6 -15q0 -5 -1 -8q-10 -27 -49 -58q-50 -38 -100 -38zM1133 914q-23 0 -45 -8q-4 -2 -10 -4l-9 -5q-2 0 -2 3q0 12 36 33q38 23 69 23q26 0 59 -16
q34 -17 52 -17q31 0 54 19q22 17 20 17q4 -1 4 -5q0 -14 -28 -42q-35 -36 -74 -36q-23 0 -61 19t-65 19z" />
    <glyph glyph-name="uni1EB5" unicode="&#x1eb5;" 
d="M500 252q2 2 3 2q8 0 8 -34q0 -15 -32 -56q-125 -164 -248 -164q-64 0 -64 53q-56 -52 -112 -52q-39 0 -60 25q-19 22 -19 56q0 88 87 185q91 103 186 103q47 0 65 -37q28 37 66 37q49 0 49 -23q0 1 -1.5 0t-5 -2.5t-7.5 -4.5q-20 -14 -40 -47q-35 -55 -100 -171
q-16 -28 -16 -44q0 -21 19 -21q82 0 222 195zM62 112q0 -48 36 -48q20 0 48 18q37 24 60 65l74 130q5 12 5 18q0 39 -40 39q-49 0 -117 -86q-66 -84 -66 -136zM295 418q-82 0 -88 63q-7 59 21 66q14 4 22.5 -8t12.5 -40q7 -43 65 -29q40 6 105 64q5 3 6 3q6 0 6 -15
q0 -5 -1 -8q-10 -27 -49 -58q-50 -38 -100 -38zM413 584q-23 0 -45 -8q-4 -2 -10 -4l-9 -5q-2 0 -2 3q0 12 36 33q38 23 69 23q26 0 59 -16q34 -17 52 -17q31 0 54 19q22 17 20 17q4 -1 4 -5q0 -14 -28 -42q-35 -36 -74 -36q-23 0 -61 19t-65 19z" />
    <glyph glyph-name="uni1EB6" unicode="&#x1eb6;" horiz-adv-x="937" 
d="M647 -57q-100 0 -100 79q0 88 124 272q-27 1 -65 8l-57 9q-122 -207 -178 -274q-110 -128 -234 -128q-53 0 -89 24q-42 27 -42 76q0 37 20 62q20 23 50 23q53 0 53 -50q0 -49 -40 -49q-10 0 -16 3q-6 2 -6 -6q0 -10 14 -19q18 -12 48 -12q104 0 199 110q56 66 161 245
q-12 1 -62 1q-34 0 -56 -16q-24 -17 -24 -38q0 -14 11 -23q12 -7 28 0q4 4 5 -4q0 -11 -7 -22q-17 -24 -45 -26q-25 -2 -43 11q-30 21 -30 55q0 115 167 115q52 0 85 -4q99 166 176 237q110 105 241 105q68 0 111 -43q44 -42 44 -104q0 -106 -82 -176q-89 -77 -247 -90
q-115 -197 -115 -254q0 -40 39 -40q43 0 130 84q4 4 7 4q7 0 7 -18q0 -7 -1 -10q-12 -34 -60 -71q-58 -46 -121 -46zM578 359q87 -7 132 -10q157 214 230 214q8 0 8 -3q0 -2 -6 -8q-59 -62 -146 -200q102 12 170 68q72 58 72 140q0 41 -26 67q-28 28 -78 28q-107 0 -202 -89
q-68 -63 -154 -207zM1014 751q-82 0 -88 63q-8 58 21 66q14 4 22.5 -8t12.5 -40q7 -43 65 -29q40 6 105 64q4 3 6 3q6 0 6 -15q0 -5 -1 -8q-10 -27 -49 -58q-50 -38 -100 -38zM437 -84q0 -21 -17 -41q-18 -21 -40 -21q-29 0 -29 27q0 23 18 43q19 19 43 19q25 0 25 -27z" />
    <glyph glyph-name="uni1EB7" unicode="&#x1eb7;" 
d="M500 252q2 2 3 2q8 0 8 -34q0 -15 -32 -56q-125 -164 -248 -164q-64 0 -64 53q-56 -52 -112 -52q-39 0 -60 25q-19 22 -19 56q0 88 87 185q91 103 186 103q47 0 65 -37q28 37 66 37q49 0 49 -23q0 1 -1.5 0t-5 -2.5t-7.5 -4.5q-20 -14 -40 -47q-35 -55 -100 -171
q-16 -28 -16 -44q0 -21 19 -21q82 0 222 195zM62 112q0 -48 36 -48q20 0 48 18q37 24 60 65l74 130q5 12 5 18q0 39 -40 39q-49 0 -117 -86q-66 -84 -66 -136zM306 426q-82 0 -88 63q-8 59 21 66q14 4 22.5 -8t12.5 -40q7 -43 65 -29q40 6 105 64q4 3 6 3q6 0 6 -15
q0 -5 -1 -8q-10 -27 -49 -58q-50 -38 -100 -38zM90 -84q0 -21 -17 -41q-18 -21 -40 -21q-29 0 -29 27q0 23 18 43q19 19 43 19q25 0 25 -27z" />
    <glyph glyph-name="uni1EB8" unicode="&#x1eb8;" horiz-adv-x="700" 
d="M274 2q28 96 112 163q84 66 171 66q35 0 58 -18q27 -19 27 -57q0 -80 -88 -149q-93 -72 -216 -72h-13q-4 -47 23 -73q19 -19 46 -19q41 0 41 26q0 15 -9 21q-6 4 -8 5.5t-2 0.5q0 7 10 14q9 9 25 11q19 1 36 -9q22 -13 22 -41q0 -32 -28 -57q-32 -29 -79 -29
q-61 0 -100 41q-42 44 -44 123q-95 4 -161 49q-71 50 -71 129q0 91 83 174q79 78 174 96q-45 36 -45 84q0 100 106 170q101 66 226 66q124 0 195 -58q65 -51 65 -127q0 -46 -27 -79t-64 -33q-74 0 -74 59q0 22 13 38q14 17 32 17q5 0 5 -6q0 -19 18 -19q28 1 28 39
q0 44 -42 75q-54 39 -157 39q-93 0 -169 -59q-72 -55 -72 -119q0 -41 25 -66q47 10 112 10q39 0 78 -11q56 -17 56 -48q0 -54 -113 -54q-90 0 -157 49q-75 -21 -124 -75q-59 -62 -59 -145q0 -53 40 -93q37 -37 95 -49zM551 180q-64 0 -131 -50q-75 -57 -90 -139
q75 -13 169 45q91 55 91 108q0 36 -39 36zM198 -106q0 -21 -17 -41q-18 -21 -40 -21q-29 0 -29 27q0 23 18 43q19 19 43 19q25 0 25 -27z" />
    <glyph glyph-name="uni1EB9" unicode="&#x1eb9;" horiz-adv-x="285" 
d="M58 106q0 -51 55 -51q80 0 178 101q46 46 82 100q3 4 10 -3q7 -8 7 -20q0 -13 -12 -31q-139 -202 -317 -202q-90 0 -90 81q0 85 89 185q92 104 184 104q56 0 56 -56q0 -53 -68 -100q-71 -49 -157 -44q-17 -37 -17 -64zM95 207q58 0 116 38q52 34 52 64q0 24 -25 24
q-32 0 -78 -45q-38 -37 -65 -81zM62 -84q0 -21 -17 -41q-18 -21 -40 -21q-29 0 -29 27q0 23 18 43q19 19 43 19q25 0 25 -27z" />
    <glyph glyph-name="uni1EBA" unicode="&#x1eba;" horiz-adv-x="700" 
d="M274 2q28 96 112 163q84 66 171 66q35 0 58 -18q27 -19 27 -57q0 -80 -88 -149q-93 -72 -216 -72h-13q-4 -47 23 -73q19 -19 46 -19q41 0 41 26q0 15 -9 21q-6 4 -8 5.5t-2 0.5q0 7 10 14q9 9 25 11q19 1 36 -9q22 -13 22 -41q0 -32 -28 -57q-32 -29 -79 -29
q-61 0 -100 41q-42 44 -44 123q-95 4 -161 49q-71 50 -71 129q0 91 83 174q79 78 174 96q-45 36 -45 84q0 100 106 170q101 66 226 66q124 0 195 -58q65 -51 65 -127q0 -46 -27 -79t-64 -33q-74 0 -74 59q0 22 13 38q14 17 32 17q5 0 5 -6q0 -19 18 -19q28 1 28 39
q0 44 -42 75q-54 39 -157 39q-93 0 -169 -59q-72 -55 -72 -119q0 -41 25 -66q47 10 112 10q39 0 78 -11q56 -17 56 -48q0 -54 -113 -54q-90 0 -157 49q-75 -21 -124 -75q-59 -62 -59 -145q0 -53 40 -93q37 -37 95 -49zM551 180q-64 0 -131 -50q-75 -57 -90 -139
q75 -13 169 45q91 55 91 108q0 36 -39 36zM719 884l12 5q7 4 29 4q44 0 44 -36q0 -29 -42 -60q-38 -28 -73 -28q-23 0 -29 15q-1 2 -1 6q0 8 10 5h8q23 0 49 15q25 15 25 36q0 16 -17 16q-5 0 -17 -5q-13 -6 -17 -6q-13 0 -13 9q0 2 1 3q20 17 31 21z" />
    <glyph glyph-name="uni1EBB" unicode="&#x1ebb;" horiz-adv-x="285" 
d="M58 106q0 -51 55 -51q80 0 178 101q46 46 82 100q3 4 10 -3q7 -8 7 -20q0 -13 -12 -31q-139 -202 -317 -202q-90 0 -90 81q0 85 89 185q92 104 184 104q56 0 56 -56q0 -53 -68 -100q-71 -49 -157 -44q-17 -37 -17 -64zM95 207q58 0 116 38q52 34 52 64q0 24 -25 24
q-32 0 -78 -45q-38 -37 -65 -81zM280 541l12 5q7 4 29 4q44 0 44 -36q0 -28 -42 -60q-38 -28 -73 -28q-23 0 -29 15q-1 2 -1 6q0 8 10 5h8q24 0 49 15t25 36q0 16 -17 16q-5 0 -17 -5q-14 -6 -17 -6q-13 0 -13 9q0 2 1 3q20 17 31 21z" />
    <glyph glyph-name="uni1EBC" unicode="&#x1ebc;" horiz-adv-x="700" 
d="M274 2q28 96 112 163q84 66 171 66q35 0 58 -18q27 -19 27 -57q0 -80 -88 -149q-93 -72 -216 -72h-13q-4 -47 23 -73q19 -19 46 -19q41 0 41 26q0 15 -9 21q-6 4 -8 5.5t-2 0.5q0 7 10 14q9 9 25 11q19 1 36 -9q22 -13 22 -41q0 -32 -28 -57q-32 -29 -79 -29
q-61 0 -100 41q-42 44 -44 123q-95 4 -161 49q-71 50 -71 129q0 91 83 174q79 78 174 96q-45 36 -45 84q0 100 106 170q101 66 226 66q124 0 195 -58q65 -51 65 -127q0 -46 -27 -79t-64 -33q-74 0 -74 59q0 22 13 38q14 17 32 17q5 0 5 -6q0 -19 18 -19q28 1 28 39
q0 44 -42 75q-54 39 -157 39q-93 0 -169 -59q-72 -55 -72 -119q0 -41 25 -66q47 10 112 10q39 0 78 -11q56 -17 56 -48q0 -54 -113 -54q-90 0 -157 49q-75 -21 -124 -75q-59 -62 -59 -145q0 -53 40 -93q37 -37 95 -49zM551 180q-64 0 -131 -50q-75 -57 -90 -139
q75 -13 169 45q91 55 91 108q0 36 -39 36zM562 817q-23 0 -45 -8l-10 -5l-9 -4q-2 0 -2 3q0 12 36 33q38 23 69 23q26 0 59 -16q34 -17 52 -17q31 0 54 19q22 17 20 17q4 -1 4 -5q0 -14 -28 -42q-34 -36 -74 -36q-23 0 -61 19t-65 19z" />
    <glyph glyph-name="uni1EBD" unicode="&#x1ebd;" horiz-adv-x="285" 
d="M58 106q0 -51 55 -51q80 0 178 101q46 46 82 100q3 4 10 -3q7 -8 7 -20q0 -13 -12 -31q-139 -202 -317 -202q-90 0 -90 81q0 85 89 185q92 104 184 104q56 0 56 -56q0 -53 -68 -100q-71 -49 -157 -44q-17 -37 -17 -64zM95 207q58 0 116 38q52 34 52 64q0 24 -25 24
q-32 0 -78 -45q-38 -37 -65 -81zM172 447q-23 0 -45 -8l-10 -5l-9 -4q-2 0 -2 3q0 12 36 33q38 23 69 23q26 0 59 -16q34 -17 52 -17q31 0 54 19q22 17 20 17q4 -1 4 -5q0 -14 -28 -42q-34 -36 -74 -36q-23 0 -61 19t-65 19z" />
    <glyph glyph-name="uni1EBE" unicode="&#x1ebe;" horiz-adv-x="723" 
d="M274 2q28 96 112 163q84 66 171 66q35 0 58 -18q27 -19 27 -57q0 -80 -88 -149q-93 -72 -216 -72h-13q-4 -47 23 -73q19 -19 46 -19q41 0 41 26q0 15 -9 21q-6 4 -8 5.5t-2 0.5q0 7 10 14q9 9 25 11q19 1 36 -9q22 -13 22 -41q0 -32 -28 -57q-32 -29 -79 -29
q-61 0 -100 41q-42 44 -44 123q-95 4 -161 49q-71 50 -71 129q0 91 83 174q79 78 174 96q-45 36 -45 84q0 100 106 170q101 66 226 66q124 0 195 -58q65 -51 65 -127q0 -46 -27 -79t-64 -33q-74 0 -74 59q0 22 13 38q14 17 32 17q5 0 5 -6q0 -19 18 -19q28 1 28 39
q0 44 -42 75q-54 39 -157 39q-93 0 -169 -59q-72 -55 -72 -119q0 -41 25 -66q47 10 112 10q39 0 78 -11q56 -17 56 -48q0 -54 -113 -54q-90 0 -157 49q-75 -21 -124 -75q-59 -62 -59 -145q0 -53 40 -93q37 -37 95 -49zM551 180q-64 0 -131 -50q-75 -57 -90 -139
q75 -13 169 45q91 55 91 108q0 36 -39 36zM663 799q-86 -61 -141 -61q-10 0 -10 9q0 -8 99 58q80 56 80 61q-11 0 44 -91q5 -8 9.5 -14.5t7.5 -11t5 -8t3 -4.5l1 -1q0 -3 -4 -3q-73 1 -94 66zM906 963q27 0 27 -26q0 -37 -66 -72q-59 -30 -98 -30q-13 0 -13 10l31 19
q33 20 55 42q57 57 64 57z" />
    <glyph glyph-name="uni1EBF" unicode="&#x1ebf;" horiz-adv-x="285" 
d="M58 106q0 -51 55 -51q80 0 178 101q46 46 82 100q3 4 10 -3q7 -8 7 -20q0 -13 -12 -31q-139 -202 -317 -202q-90 0 -90 81q0 85 89 185q92 104 184 104q56 0 56 -56q0 -53 -68 -100q-71 -49 -157 -44q-17 -37 -17 -64zM95 207q58 0 116 38q52 34 52 64q0 24 -25 24
q-32 0 -78 -45q-38 -37 -65 -81zM264 458q-86 -61 -141 -61q-10 0 -10 9q0 -8 99 58q80 56 80 61q-11 0 44 -91q5 -8 9.5 -14.5t7.5 -11t5 -8t3 -4.5l1 -1q0 -3 -4 -3q-73 1 -94 66zM494 620q27 0 27 -26q0 -38 -66 -72q-59 -30 -98 -30q-13 0 -13 10l31 19q33 20 55 42
q57 57 64 57z" />
    <glyph glyph-name="uni1EC0" unicode="&#x1ec0;" horiz-adv-x="723" 
d="M274 2q28 96 112 163q84 66 171 66q35 0 58 -18q27 -19 27 -57q0 -80 -88 -149q-93 -72 -216 -72h-13q-4 -47 23 -73q19 -19 46 -19q41 0 41 26q0 15 -9 21q-6 4 -8 5.5t-2 0.5q0 7 10 14q9 9 25 11q19 1 36 -9q22 -13 22 -41q0 -32 -28 -57q-32 -29 -79 -29
q-61 0 -100 41q-42 44 -44 123q-95 4 -161 49q-71 50 -71 129q0 91 83 174q79 78 174 96q-45 36 -45 84q0 100 106 170q101 66 226 66q124 0 195 -58q65 -51 65 -127q0 -46 -27 -79t-64 -33q-74 0 -74 59q0 22 13 38q14 17 32 17q5 0 5 -6q0 -19 18 -19q28 1 28 39
q0 44 -42 75q-54 39 -157 39q-93 0 -169 -59q-72 -55 -72 -119q0 -41 25 -66q47 10 112 10q39 0 78 -11q56 -17 56 -48q0 -54 -113 -54q-90 0 -157 49q-75 -21 -124 -75q-59 -62 -59 -145q0 -53 40 -93q37 -37 95 -49zM551 180q-64 0 -131 -50q-75 -57 -90 -139
q75 -13 169 45q91 55 91 108q0 36 -39 36zM663 799q-86 -61 -141 -61q-10 0 -10 9q0 -8 99 58q80 56 80 61q-11 0 44 -91q5 -8 9.5 -14.5t7.5 -11t5 -8t3 -4.5l1 -1q0 -3 -4 -3q-73 1 -94 66zM711 994q16 0 28 -18q-1 0 2 -6l9.5 -19l15.5 -31q12 -21 30 -47l18 -24
q0 -7 -9 -7q-21 0 -68 41q-51 45 -51 82q0 29 25 29z" />
    <glyph glyph-name="uni1EC1" unicode="&#x1ec1;" horiz-adv-x="285" 
d="M58 106q0 -51 55 -51q80 0 178 101q46 46 82 100q3 4 10 -3q7 -8 7 -20q0 -13 -12 -31q-139 -202 -317 -202q-90 0 -90 81q0 85 89 185q92 104 184 104q56 0 56 -56q0 -53 -68 -100q-71 -49 -157 -44q-17 -37 -17 -64zM95 207q58 0 116 38q52 34 52 64q0 24 -25 24
q-32 0 -78 -45q-38 -37 -65 -81zM262 458q-86 -61 -141 -61q-10 0 -10 9q0 -8 99 58q80 56 80 61q-11 0 44 -91q5 -8 9.5 -14.5t7.5 -11t5 -8t3 -4.5l1 -1q0 -3 -4 -3q-73 1 -94 66zM284 666q16 0 28 -18q-1 0 2 -6l9.5 -19l15.5 -31q12 -21 30 -47l18 -24q0 -7 -9 -7
q-21 0 -68 41q-51 45 -51 82q0 29 25 29z" />
    <glyph glyph-name="uni1EC2" unicode="&#x1ec2;" horiz-adv-x="723" 
d="M274 2q28 96 112 163q84 66 171 66q35 0 58 -18q27 -19 27 -57q0 -80 -88 -149q-93 -72 -216 -72h-13q-4 -47 23 -73q19 -19 46 -19q41 0 41 26q0 15 -9 21q-6 4 -8 5.5t-2 0.5q0 7 10 14q9 9 25 11q19 1 36 -9q22 -13 22 -41q0 -32 -28 -57q-32 -29 -79 -29
q-61 0 -100 41q-42 44 -44 123q-95 4 -161 49q-71 50 -71 129q0 91 83 174q79 78 174 96q-45 36 -45 84q0 100 106 170q101 66 226 66q124 0 195 -58q65 -51 65 -127q0 -46 -27 -79t-64 -33q-74 0 -74 59q0 22 13 38q14 17 32 17q5 0 5 -6q0 -19 18 -19q28 1 28 39
q0 44 -42 75q-54 39 -157 39q-93 0 -169 -59q-72 -55 -72 -119q0 -41 25 -66q47 10 112 10q39 0 78 -11q56 -17 56 -48q0 -54 -113 -54q-90 0 -157 49q-75 -21 -124 -75q-59 -62 -59 -145q0 -53 40 -93q37 -37 95 -49zM551 180q-64 0 -131 -50q-75 -57 -90 -139
q75 -13 169 45q91 55 91 108q0 36 -39 36zM663 799q-86 -61 -141 -61q-10 0 -10 9q0 -8 99 58q80 56 80 61q-11 0 44 -91q5 -8 9.5 -14.5t7.5 -11t5 -8t3 -4.5l1 -1q0 -3 -4 -3q-73 1 -94 66zM823 943l12 5q7 4 29 4q44 0 44 -36q0 -28 -42 -60q-38 -28 -73 -28
q-23 0 -29 15q-1 2 -1 6q0 8 10 5h8q23 0 49 15q25 15 25 36q0 16 -17 16q-5 0 -17 -5q-13 -6 -17 -6q-13 0 -13 9q0 2 1 3q20 17 31 21z" />
    <glyph glyph-name="uni1EC3" unicode="&#x1ec3;" horiz-adv-x="285" 
d="M58 106q0 -51 55 -51q80 0 178 101q46 46 82 100q3 4 10 -3q7 -8 7 -20q0 -13 -12 -31q-139 -202 -317 -202q-90 0 -90 81q0 85 89 185q92 104 184 104q56 0 56 -56q0 -53 -68 -100q-71 -49 -157 -44q-17 -37 -17 -64zM95 207q58 0 116 38q52 34 52 64q0 24 -25 24
q-32 0 -78 -45q-38 -37 -65 -81zM257 455q-86 -61 -141 -61q-10 0 -10 9q0 -8 99 58q80 56 80 61q-11 0 44 -91q5 -8 9.5 -14.5t7.5 -11t5 -8t3 -4.5l1 -1q0 -3 -4 -3q-73 1 -94 66zM401 584l12 5q7 4 29 4q44 0 44 -36q0 -29 -42 -60q-38 -28 -73 -28q-23 0 -29 15
q-1 2 -1 6q0 8 10 5h8q23 0 49 15q25 15 25 36q0 16 -17 16q-5 0 -17 -5q-13 -6 -17 -6q-13 0 -13 9q0 2 1 3q20 17 31 21z" />
    <glyph glyph-name="uni1EC4" unicode="&#x1ec4;" horiz-adv-x="723" 
d="M274 2q28 96 112 163q84 66 171 66q35 0 58 -18q27 -19 27 -57q0 -80 -88 -149q-93 -72 -216 -72h-13q-4 -47 23 -73q19 -19 46 -19q41 0 41 26q0 15 -9 21q-6 4 -8 5.5t-2 0.5q0 7 10 14q9 9 25 11q19 1 36 -9q22 -13 22 -41q0 -32 -28 -57q-32 -29 -79 -29
q-61 0 -100 41q-42 44 -44 123q-95 4 -161 49q-71 50 -71 129q0 91 83 174q79 78 174 96q-45 36 -45 84q0 100 106 170q101 66 226 66q124 0 195 -58q65 -51 65 -127q0 -46 -27 -79t-64 -33q-74 0 -74 59q0 22 13 38q14 17 32 17q5 0 5 -6q0 -19 18 -19q28 1 28 39
q0 44 -42 75q-54 39 -157 39q-93 0 -169 -59q-72 -55 -72 -119q0 -41 25 -66q47 10 112 10q39 0 78 -11q56 -17 56 -48q0 -54 -113 -54q-90 0 -157 49q-75 -21 -124 -75q-59 -62 -59 -145q0 -53 40 -93q37 -37 95 -49zM551 180q-64 0 -131 -50q-75 -57 -90 -139
q75 -13 169 45q91 55 91 108q0 36 -39 36zM663 799q-86 -61 -141 -61q-10 0 -10 9q0 -8 99 58q80 56 80 61q-11 0 44 -91q5 -8 9.5 -14.5t7.5 -11t5 -8t3 -4.5l1 -1q0 -3 -4 -3q-73 1 -94 66zM724 912q-23 0 -45 -8q-4 -2 -10 -4l-9 -5q-2 0 -2 3q0 12 36 33q38 23 69 23
q26 0 59 -16q34 -17 52 -17q31 0 54 19q22 17 20 17q4 -1 4 -5q0 -14 -28 -42q-34 -36 -74 -36q-23 0 -61 19t-65 19z" />
    <glyph glyph-name="uni1EC5" unicode="&#x1ec5;" horiz-adv-x="285" 
d="M58 106q0 -51 55 -51q80 0 178 101q46 46 82 100q3 4 10 -3q7 -8 7 -20q0 -13 -12 -31q-139 -202 -317 -202q-90 0 -90 81q0 85 89 185q92 104 184 104q56 0 56 -56q0 -53 -68 -100q-71 -49 -157 -44q-17 -37 -17 -64zM95 207q58 0 116 38q52 34 52 64q0 24 -25 24
q-32 0 -78 -45q-38 -37 -65 -81zM266 458q-86 -61 -141 -61q-10 0 -10 9q0 -8 99 58q80 56 80 61q-11 0 44 -91q5 -8 9.5 -14.5t7.5 -11t5 -8t3 -4.5l1 -1q0 -3 -4 -3q-73 1 -94 66zM306 584q-23 0 -45 -8q-4 -2 -10 -4l-9 -5q-2 0 -2 3q0 12 36 33q38 23 69 23q26 0 59 -16
q34 -17 52 -17q31 0 54 19q22 17 20 17q4 -1 4 -5q0 -14 -28 -42q-34 -36 -74 -36q-23 0 -61 19t-65 19z" />
    <glyph glyph-name="uni1EC6" unicode="&#x1ec6;" horiz-adv-x="723" 
d="M274 2q28 96 112 163q84 66 171 66q35 0 58 -18q27 -19 27 -57q0 -80 -88 -149q-93 -72 -216 -72h-13q-4 -47 23 -73q19 -19 46 -19q41 0 41 26q0 15 -9 21q-6 4 -8 5.5t-2 0.5q0 7 10 14q9 9 25 11q19 1 36 -9q22 -13 22 -41q0 -32 -28 -57q-32 -29 -79 -29
q-61 0 -100 41q-42 44 -44 123q-95 4 -161 49q-71 50 -71 129q0 91 83 174q79 78 174 96q-45 36 -45 84q0 100 106 170q101 66 226 66q124 0 195 -58q65 -51 65 -127q0 -46 -27 -79t-64 -33q-74 0 -74 59q0 22 13 38q14 17 32 17q5 0 5 -6q0 -19 18 -19q28 1 28 39
q0 44 -42 75q-54 39 -157 39q-93 0 -169 -59q-72 -55 -72 -119q0 -41 25 -66q47 10 112 10q39 0 78 -11q56 -17 56 -48q0 -54 -113 -54q-90 0 -157 49q-75 -21 -124 -75q-59 -62 -59 -145q0 -53 40 -93q37 -37 95 -49zM551 180q-64 0 -131 -50q-75 -57 -90 -139
q75 -13 169 45q91 55 91 108q0 36 -39 36zM663 799q-86 -61 -141 -61q-10 0 -10 9q0 -8 99 58q80 56 80 61q-11 0 44 -91q5 -8 9.5 -14.5t7.5 -11t5 -8t3 -4.5l1 -1q0 -3 -4 -3q-73 1 -94 66zM171 -113q0 -21 -17 -41q-18 -21 -40 -21q-29 0 -29 27q0 24 18 43q19 19 43 19
q25 0 25 -27z" />
    <glyph glyph-name="uni1EC7" unicode="&#x1ec7;" horiz-adv-x="285" 
d="M58 106q0 -51 55 -51q80 0 178 101q46 46 82 100q3 4 10 -3q7 -8 7 -20q0 -13 -12 -31q-139 -202 -317 -202q-90 0 -90 81q0 85 89 185q92 104 184 104q56 0 56 -56q0 -53 -68 -100q-71 -49 -157 -44q-17 -37 -17 -64zM95 207q58 0 116 38q52 34 52 64q0 24 -25 24
q-32 0 -78 -45q-38 -37 -65 -81zM266 451q-86 -61 -141 -61q-10 0 -10 9q0 -8 99 58q80 56 80 61q-11 0 44 -91q5 -8 9.5 -14.5t7.5 -11t5 -8t3 -4.5l1 -1q0 -3 -4 -3q-73 1 -94 66zM38 -84q0 -21 -17 -41q-18 -21 -40 -21q-29 0 -29 27q0 23 18 43q19 19 43 19q25 0 25 -27
z" />
    <glyph glyph-name="uni1EC8" unicode="&#x1ec8;" horiz-adv-x="600" 
d="M174 2q128 0 215 121q22 30 134 253q73 142 204 240q1 1 1 7q-22 -13 -70 -13q-31 0 -85 16t-86 16q-110 0 -176 -83q-54 -67 -54 -145q0 -36 18 -62q18 -27 45 -27q4 0 3 6q-10 16 -10 32q0 21 15 35q14 14 35 14q20 0 35 -17t15 -42q0 -31 -22 -53q-26 -26 -70 -26
q-48 0 -79 37q-36 41 -36 117q0 105 95 195q95 89 199 89q35 0 113 -22t104 -22q37 2 68 23q32 22 29 23q14 0 14 -36q0 -13 -41 -57q-55 -61 -84 -102q-21 -29 -79 -150q-61 -124 -102 -188q-149 -230 -344 -230q-57 0 -98 25q-51 30 -51 86q0 34 26 60q25 23 50 23
q67 0 67 -57q0 -29 -26 -41q-23 -11 -35 2q7 7 6 18q-1 12 -13 12q-21 0 -21 -22q0 -55 91 -55zM887 863l12 5q7 4 29 4q44 0 44 -36q0 -28 -42 -60q-38 -28 -73 -28q-23 0 -29 15q-1 2 -1 6q0 8 10 5h8q23 0 49 15q25 15 25 36q0 16 -17 16q-5 0 -17 -5q-13 -6 -17 -6
q-13 0 -13 9q0 2 1 3q20 17 31 21z" />
    <glyph glyph-name="uni1EC9" unicode="&#x1ec9;" horiz-adv-x="222" 
d="M295 261q5 0 9 -21q3 -22 -33 -70q-129 -169 -247 -169q-27 0 -47 14q-21 17 -21 44q0 23 15 48q116 200 116 201q7 13 7 24q0 9 -7 15t-7 7q0 4 5 7q20 12 47 12q49 0 49 -35q0 -15 -12 -36l-53 -91q-46 -79 -47 -82q3 9 -18 -33q-5 -10 -5 -18q0 -19 23 -19
q77 0 210 180q15 22 16 22zM203 541l12 5q7 4 29 4q44 0 44 -36q0 -28 -42 -60q-38 -28 -73 -28q-23 0 -29 15q-1 2 -1 6q0 8 10 5h8q23 0 49 15q25 15 25 36q0 16 -17 16q-5 0 -17 -5q-14 -6 -17 -6q-13 0 -13 9q0 2 1 3q20 17 31 21z" />
    <glyph glyph-name="uni1ECA" unicode="&#x1eca;" horiz-adv-x="600" 
d="M174 2q128 0 215 121q22 30 134 253q73 142 204 240q1 1 1 7q-22 -13 -70 -13q-31 0 -85 16t-86 16q-110 0 -176 -83q-54 -67 -54 -145q0 -36 18 -62q18 -27 45 -27q4 0 3 6q-10 16 -10 32q0 21 15 35q14 14 35 14q20 0 35 -17t15 -42q0 -31 -22 -53q-26 -26 -70 -26
q-48 0 -79 37q-36 41 -36 117q0 105 95 195q95 89 199 89q35 0 113 -22t104 -22q37 2 68 23q32 22 29 23q14 0 14 -36q0 -13 -41 -57q-55 -61 -84 -102q-21 -29 -79 -150q-61 -124 -102 -188q-149 -230 -344 -230q-57 0 -98 25q-51 30 -51 86q0 34 26 60q25 23 50 23
q67 0 67 -57q0 -29 -26 -41q-23 -11 -35 2q7 7 6 18q-1 12 -13 12q-21 0 -21 -22q0 -55 91 -55zM229 -113q0 -21 -17 -41q-18 -21 -40 -21q-29 0 -29 27q0 24 18 43q19 19 43 19q25 0 25 -27z" />
    <glyph glyph-name="uni1ECB" unicode="&#x1ecb;" horiz-adv-x="226" 
d="M282 239q10 16 17 16q9 0 9 -22q0 -17 -34 -63q-129 -169 -247 -169q-27 0 -47 14q-21 17 -21 44q0 23 15 48q101 173 110 191q7 13 7 24q0 9 -7 15t-7 7q0 4 5 7q19 12 47 12q47 0 47 -38q0 -17 -10 -33q-3 -5 -57 -97q-32 -52 -55 -99q-5 -10 -5 -18q0 -19 23 -19
q76 0 210 180zM272 496q0 -24 -20 -46q-21 -22 -46 -22q-34 0 -34 31q0 26 22 48q21 22 48 22q30 0 30 -33zM20 -84q0 -21 -17 -41q-18 -21 -40 -21q-29 0 -29 27q0 23 18 43q19 19 43 19q25 0 25 -27z" />
    <glyph glyph-name="uni1ECC" unicode="&#x1ecc;" horiz-adv-x="695" 
d="M201 657q0 49 45 86q51 42 135 42q117 0 176 -96q21 12 63 12q58 0 96 -44t38 -119q0 -223 -164 -404q-173 -191 -411 -191q-178 0 -178 176q0 111 106 254q97 132 204 195q27 15 55 15q11 0 11 -4q0 -3 -7 -9q-92 -74 -179 -209q-97 -148 -97 -248q0 -115 102 -115
q162 0 328 184q167 185 167 368q0 44 -18 72q-19 30 -53 30q-13 0 -31 -5l-12 -5h1q8 -21 8 -53q0 -101 -58 -192q-63 -97 -144 -97q-27 0 -44 20q-19 20 -19 56q0 74 55 156q56 83 136 132q-42 70 -132 70q-43 0 -73 -21q-26 -20 -26 -40q0 -27 26 -27q2 0 6 2l5 2
q7 0 7 -15q0 -17 -15 -29q-17 -14 -41 -14q-29 0 -48 18q-20 20 -20 47zM533 576q0 25 -4 40q-67 -44 -114 -120q-43 -70 -43 -119q0 -25 21 -25q47 0 94 75q46 73 46 149zM174 -119q0 -21 -17 -41q-18 -21 -40 -21q-29 0 -29 27q0 24 18 43q19 19 43 19q25 0 25 -27z" />
    <glyph glyph-name="uni1ECD" unicode="&#x1ecd;" horiz-adv-x="332" 
d="M187 105q-29 17 -29 45q0 20 15 37q15 15 35 15q24 0 37 -12q44 59 44 109q0 36 -37 36q-51 0 -118 -87q-68 -86 -68 -153q0 -42 41 -42q34 0 80 52zM224 95q-82 -93 -160 -93q-81 0 -81 81q0 87 88 184q91 103 185 103q72 0 72 -62q0 -59 -67 -163q54 -13 139 106
q3 4 7 4q8 0 8 -27q0 -15 -12 -32q-82 -105 -179 -101zM45 -84q0 -21 -17 -41q-18 -21 -40 -21q-29 0 -29 27q0 23 18 43q19 19 43 19q25 0 25 -27z" />
    <glyph glyph-name="uni1ECE" unicode="&#x1ece;" horiz-adv-x="695" 
d="M201 657q0 49 45 86q51 42 135 42q117 0 176 -96q21 12 63 12q58 0 96 -44t38 -119q0 -223 -164 -404q-173 -191 -411 -191q-178 0 -178 176q0 111 106 254q97 132 204 195q27 15 55 15q11 0 11 -4q0 -3 -7 -9q-92 -74 -179 -209q-97 -148 -97 -248q0 -115 102 -115
q162 0 328 184q167 185 167 368q0 44 -18 72q-19 30 -53 30q-13 0 -31 -5l-12 -5h1q8 -21 8 -53q0 -101 -58 -192q-63 -97 -144 -97q-27 0 -44 20q-19 20 -19 56q0 74 55 156q56 83 136 132q-42 70 -132 70q-43 0 -73 -21q-26 -20 -26 -40q0 -27 26 -27q2 0 6 2l5 2
q7 0 7 -15q0 -17 -15 -29q-17 -14 -41 -14q-29 0 -48 18q-20 20 -20 47zM533 576q0 25 -4 40q-67 -44 -114 -120q-43 -70 -43 -119q0 -25 21 -25q47 0 94 75q46 73 46 149zM733 865l12 5q7 4 29 4q44 0 44 -36q0 -28 -42 -60q-38 -28 -73 -28q-23 0 -29 15q-1 2 -1 6
q0 8 10 5h8q23 0 49 15q25 15 25 36q0 16 -17 16q-5 0 -17 -5q-13 -6 -17 -6q-13 0 -13 9q0 2 1 3q20 17 31 21z" />
    <glyph glyph-name="uni1ECF" unicode="&#x1ecf;" horiz-adv-x="332" 
d="M187 105q-29 17 -29 45q0 20 15 37q15 15 35 15q24 0 37 -12q44 59 44 109q0 36 -37 36q-51 0 -118 -87q-68 -86 -68 -153q0 -42 41 -42q34 0 80 52zM224 95q-82 -93 -160 -93q-81 0 -81 81q0 87 88 184q91 103 185 103q72 0 72 -62q0 -59 -67 -163q54 -13 139 106
q3 4 7 4q8 0 8 -27q0 -15 -12 -32q-82 -105 -179 -101zM317 534l12 5q7 4 29 4q44 0 44 -36q0 -29 -42 -60q-38 -28 -73 -28q-23 0 -29 15q-1 2 -1 6q0 8 10 5h8q23 0 49 15q25 15 25 36q0 16 -17 16q-5 0 -17 -5q-13 -6 -17 -6q-13 0 -13 9q0 2 1 3q20 17 31 21z" />
    <glyph glyph-name="uni1ED0" unicode="&#x1ed0;" horiz-adv-x="695" 
d="M200 657q0 49 45 86q51 42 135 42q118 0 176 -96q21 12 63 12q58 0 96 -44t38 -119q0 -223 -164 -404q-173 -191 -411 -191q-178 0 -178 176q0 111 106 254q98 132 204 195q27 15 55 15q11 0 11 -4q0 -3 -7 -9q-92 -74 -179 -209q-97 -148 -97 -248q0 -115 102 -115
q162 0 328 184q167 185 167 368q0 44 -18 72q-20 30 -53 30q-13 0 -31 -5l-12 -5h1q8 -21 8 -53q0 -101 -58 -192q-63 -97 -144 -97q-27 0 -44 20q-19 20 -19 56q0 74 55 156q56 83 136 132q-42 70 -132 70q-43 0 -73 -21q-26 -20 -26 -40q0 -27 26 -27q2 0 6 2l5 2
q7 0 7 -15q0 -17 -15 -29q-17 -14 -41 -14q-28 0 -48 18q-20 20 -20 47zM532 576q0 25 -4 40q-68 -44 -114 -120q-43 -70 -43 -119q0 -25 21 -25q48 0 94 75q46 73 46 149zM735 800q-86 -61 -141 -61q-10 0 -10 9q0 -8 99 58q80 56 80 61q-11 0 44 -91q5 -8 9.5 -14.5
t7.5 -11t5 -8t3 -4.5l1 -1q0 -3 -4 -3q-73 1 -94 66zM989 953q27 0 27 -26q0 -37 -66 -72q-58 -30 -98 -30q-13 0 -13 10l31 19q33 20 55 42q57 57 64 57z" />
    <glyph glyph-name="uni1ED1" unicode="&#x1ed1;" horiz-adv-x="332" 
d="M187 105q-29 17 -29 45q0 20 15 37q15 15 35 15q24 0 37 -12q44 59 44 109q0 36 -37 36q-51 0 -118 -87q-68 -86 -68 -153q0 -42 41 -42q34 0 80 52zM224 95q-82 -93 -160 -93q-81 0 -81 81q0 87 88 184q91 103 185 103q72 0 72 -62q0 -59 -67 -163q54 -13 139 106
q3 4 7 4q8 0 8 -27q0 -15 -12 -32q-82 -105 -179 -101zM297 458q-86 -61 -141 -61q-10 0 -10 9q0 -8 99 58q80 56 80 61q-11 0 44 -91q5 -8 9.5 -14.5t7.5 -11t5 -8t3 -4.5l1 -1q0 -3 -4 -3q-73 1 -94 66zM535 608q27 0 27 -26q0 -38 -66 -72q-58 -30 -98 -30q-13 0 -13 10
l31 19q33 20 55 42q57 57 64 57z" />
    <glyph glyph-name="uni1ED2" unicode="&#x1ed2;" horiz-adv-x="695" 
d="M200 657q0 49 45 86q51 42 135 42q118 0 176 -96q21 12 63 12q58 0 96 -44t38 -119q0 -223 -164 -404q-173 -191 -411 -191q-178 0 -178 176q0 111 106 254q98 132 204 195q27 15 55 15q11 0 11 -4q0 -3 -7 -9q-92 -74 -179 -209q-97 -148 -97 -248q0 -115 102 -115
q162 0 328 184q167 185 167 368q0 44 -18 72q-20 30 -53 30q-13 0 -31 -5l-12 -5h1q8 -21 8 -53q0 -101 -58 -192q-63 -97 -144 -97q-27 0 -44 20q-19 20 -19 56q0 74 55 156q56 83 136 132q-42 70 -132 70q-43 0 -73 -21q-26 -20 -26 -40q0 -27 26 -27q2 0 6 2l5 2
q7 0 7 -15q0 -17 -15 -29q-17 -14 -41 -14q-28 0 -48 18q-20 20 -20 47zM532 576q0 25 -4 40q-68 -44 -114 -120q-43 -70 -43 -119q0 -25 21 -25q48 0 94 75q46 73 46 149zM735 800q-86 -61 -141 -61q-10 0 -10 9q0 -8 99 58q80 56 80 61q-11 0 44 -91q5 -8 9.5 -14.5
t7.5 -11t5 -8t3 -4.5l1 -1q0 -3 -4 -3q-73 1 -94 66zM788 994q16 0 28 -18q-1 0 2 -6l9.5 -19l15.5 -31q12 -21 30 -47l18 -24q0 -7 -9 -7q-21 0 -68 41q-51 45 -51 82q0 29 25 29z" />
    <glyph glyph-name="uni1ED3" unicode="&#x1ed3;" horiz-adv-x="332" 
d="M187 105q-29 17 -29 45q0 20 15 37q15 15 35 15q24 0 37 -12q44 59 44 109q0 36 -37 36q-51 0 -118 -87q-68 -86 -68 -153q0 -42 41 -42q34 0 80 52zM224 95q-82 -93 -160 -93q-81 0 -81 81q0 87 88 184q91 103 185 103q72 0 72 -62q0 -59 -67 -163q54 -13 139 106
q3 4 7 4q8 0 8 -27q0 -15 -12 -32q-82 -105 -179 -101zM280 451q-86 -61 -141 -61q-10 0 -10 9q0 -8 99 58q80 56 80 61q-11 0 44 -91q5 -8 9.5 -14.5t7.5 -11t5 -8t3 -4.5l1 -1q0 -3 -4 -3q-73 1 -94 66zM304 660q16 0 28 -18q-1 0 2 -6l9.5 -19l15.5 -31q12 -21 30 -47
l18 -24q0 -7 -9 -7q-21 0 -68 41q-51 45 -51 82q0 29 25 29z" />
    <glyph glyph-name="uni1ED4" unicode="&#x1ed4;" horiz-adv-x="695" 
d="M200 657q0 49 45 86q51 42 135 42q118 0 176 -96q21 12 63 12q58 0 96 -44t38 -119q0 -223 -164 -404q-173 -191 -411 -191q-178 0 -178 176q0 111 106 254q98 132 204 195q27 15 55 15q11 0 11 -4q0 -3 -7 -9q-92 -74 -179 -209q-97 -148 -97 -248q0 -115 102 -115
q162 0 328 184q167 185 167 368q0 44 -18 72q-20 30 -53 30q-13 0 -31 -5l-12 -5h1q8 -21 8 -53q0 -101 -58 -192q-63 -97 -144 -97q-27 0 -44 20q-19 20 -19 56q0 74 55 156q56 83 136 132q-42 70 -132 70q-43 0 -73 -21q-26 -20 -26 -40q0 -27 26 -27q2 0 6 2l5 2
q7 0 7 -15q0 -17 -15 -29q-17 -14 -41 -14q-28 0 -48 18q-20 20 -20 47zM532 576q0 25 -4 40q-68 -44 -114 -120q-43 -70 -43 -119q0 -25 21 -25q48 0 94 75q46 73 46 149zM735 800q-86 -61 -141 -61q-10 0 -10 9q0 -8 99 58q80 56 80 61q-11 0 44 -91q5 -8 9.5 -14.5
t7.5 -11t5 -8t3 -4.5l1 -1q0 -3 -4 -3q-73 1 -94 66zM888 943l12 5q7 4 29 4q44 0 44 -36q0 -28 -42 -60q-38 -28 -73 -28q-23 0 -29 15q-1 2 -1 6q0 8 10 5h8q24 0 49 15t25 36q0 16 -17 16q-5 0 -17 -5q-13 -6 -17 -6q-13 0 -13 9q0 2 1 3q20 17 31 21z" />
    <glyph glyph-name="uni1ED5" unicode="&#x1ed5;" horiz-adv-x="332" 
d="M187 105q-29 17 -29 45q0 20 15 37q15 15 35 15q24 0 37 -12q44 59 44 109q0 36 -37 36q-51 0 -118 -87q-68 -86 -68 -153q0 -42 41 -42q34 0 80 52zM224 95q-82 -93 -160 -93q-81 0 -81 81q0 87 88 184q91 103 185 103q72 0 72 -62q0 -59 -67 -163q54 -13 139 106
q3 4 7 4q8 0 8 -27q0 -15 -12 -32q-82 -105 -179 -101zM300 448q-86 -61 -141 -61q-10 0 -10 9q0 -8 99 58q80 56 80 61q-11 0 44 -91q5 -8 9.5 -14.5t7.5 -11t5 -8t3 -4.5l1 -1q0 -3 -4 -3q-73 1 -94 66zM439 582l12 5q7 4 29 4q44 0 44 -36q0 -29 -42 -60q-38 -28 -73 -28
q-23 0 -29 15q-1 2 -1 6q0 8 10 5h8q23 0 49 15q25 15 25 36q0 16 -17 16q-5 0 -17 -5q-14 -6 -17 -6q-13 0 -13 9q0 2 1 3q20 17 31 21z" />
    <glyph glyph-name="uni1ED6" unicode="&#x1ed6;" horiz-adv-x="695" 
d="M200 657q0 49 45 86q51 42 135 42q118 0 176 -96q21 12 63 12q58 0 96 -44t38 -119q0 -223 -164 -404q-173 -191 -411 -191q-178 0 -178 176q0 111 106 254q98 132 204 195q27 15 55 15q11 0 11 -4q0 -3 -7 -9q-92 -74 -179 -209q-97 -148 -97 -248q0 -115 102 -115
q162 0 328 184q167 185 167 368q0 44 -18 72q-20 30 -53 30q-13 0 -31 -5l-12 -5h1q8 -21 8 -53q0 -101 -58 -192q-63 -97 -144 -97q-27 0 -44 20q-19 20 -19 56q0 74 55 156q56 83 136 132q-42 70 -132 70q-43 0 -73 -21q-26 -20 -26 -40q0 -27 26 -27q2 0 6 2l5 2
q7 0 7 -15q0 -17 -15 -29q-17 -14 -41 -14q-28 0 -48 18q-20 20 -20 47zM532 576q0 25 -4 40q-68 -44 -114 -120q-43 -70 -43 -119q0 -25 21 -25q48 0 94 75q46 73 46 149zM735 800q-86 -61 -141 -61q-10 0 -10 9q0 -8 99 58q80 56 80 61q-11 0 44 -91q5 -8 9.5 -14.5
t7.5 -11t5 -8t3 -4.5l1 -1q0 -3 -4 -3q-73 1 -94 66zM766 914q-23 0 -45 -8q-4 -2 -10 -4l-9 -5q-2 0 -2 3q0 12 36 33q38 23 69 23q26 0 59 -16q34 -17 52 -17q31 0 54 19q22 17 20 17q4 -1 4 -5q0 -14 -28 -42q-34 -36 -74 -36q-23 0 -61 19t-65 19z" />
    <glyph glyph-name="uni1ED7" unicode="&#x1ed7;" horiz-adv-x="332" 
d="M187 105q-29 17 -29 45q0 20 15 37q15 15 35 15q24 0 37 -12q44 59 44 109q0 36 -37 36q-51 0 -118 -87q-68 -86 -68 -153q0 -42 41 -42q34 0 80 52zM224 95q-82 -93 -160 -93q-81 0 -81 81q0 87 88 184q91 103 185 103q72 0 72 -62q0 -59 -67 -163q54 -13 139 106
q3 4 7 4q8 0 8 -27q0 -15 -12 -32q-82 -105 -179 -101zM302 451q-86 -61 -141 -61q-10 0 -10 9q0 -8 99 58q80 56 80 61q-11 0 44 -91q5 -8 9.5 -14.5t7.5 -11t5 -8t3 -4.5l1 -1q0 -3 -4 -3q-73 1 -94 66zM333 574q-23 0 -45 -8q-4 -2 -10 -4l-9 -5q-2 0 -2 3q0 12 36 33
q38 23 69 23q26 0 59 -16q34 -17 52 -17q31 0 54 19q22 17 20 17q4 -1 4 -5q0 -14 -28 -42q-35 -36 -74 -36q-23 0 -61 19t-65 19z" />
    <glyph glyph-name="uni1ED8" unicode="&#x1ed8;" horiz-adv-x="695" 
d="M200 657q0 49 45 86q51 42 135 42q118 0 176 -96q21 12 63 12q58 0 96 -44t38 -119q0 -223 -164 -404q-173 -191 -411 -191q-178 0 -178 176q0 111 106 254q98 132 204 195q27 15 55 15q11 0 11 -4q0 -3 -7 -9q-92 -74 -179 -209q-97 -148 -97 -248q0 -115 102 -115
q162 0 328 184q167 185 167 368q0 44 -18 72q-20 30 -53 30q-13 0 -31 -5l-12 -5h1q8 -21 8 -53q0 -101 -58 -192q-63 -97 -144 -97q-27 0 -44 20q-19 20 -19 56q0 74 55 156q56 83 136 132q-42 70 -132 70q-43 0 -73 -21q-26 -20 -26 -40q0 -27 26 -27q2 0 6 2l5 2
q7 0 7 -15q0 -17 -15 -29q-17 -14 -41 -14q-28 0 -48 18q-20 20 -20 47zM532 576q0 25 -4 40q-68 -44 -114 -120q-43 -70 -43 -119q0 -25 21 -25q48 0 94 75q46 73 46 149zM735 800q-86 -61 -141 -61q-10 0 -10 9q0 -8 99 58q80 56 80 61q-11 0 44 -91q5 -8 9.5 -14.5
t7.5 -11t5 -8t3 -4.5l1 -1q0 -3 -4 -3q-73 1 -94 66zM129 -113q0 -21 -17 -41q-18 -21 -40 -21q-29 0 -29 27q0 24 18 43q19 19 43 19q25 0 25 -27z" />
    <glyph glyph-name="uni1ED9" unicode="&#x1ed9;" horiz-adv-x="332" 
d="M187 105q-29 17 -29 45q0 20 15 37q15 15 35 15q24 0 37 -12q44 59 44 109q0 36 -37 36q-51 0 -118 -87q-68 -86 -68 -153q0 -42 41 -42q34 0 80 52zM224 95q-82 -93 -160 -93q-81 0 -81 81q0 87 88 184q91 103 185 103q72 0 72 -62q0 -59 -67 -163q54 -13 139 106
q3 4 7 4q8 0 8 -27q0 -15 -12 -32q-82 -105 -179 -101zM304 456q-86 -61 -141 -61q-10 0 -10 9q0 -8 99 58q80 56 80 61q-11 0 44 -91q5 -8 9.5 -14.5t7.5 -11t5 -8t3 -4.5l1 -1q0 -3 -4 -3q-73 1 -94 66zM41 -84q0 -21 -17 -41q-18 -21 -40 -21q-29 0 -29 27q0 23 18 43
q19 19 43 19q25 0 25 -27z" />
    <glyph glyph-name="uni1EDA" unicode="&#x1eda;" horiz-adv-x="695" 
d="M529 616q-67 -44 -114 -120q-43 -70 -43 -119q0 -25 21 -25q47 0 94 75q46 73 46 149q0 25 -4 40zM750 585q4 -20 4 -47q0 -223 -164 -404q-173 -191 -411 -191q-178 0 -178 176q0 111 106 254q97 132 204 195q27 15 55 15q11 0 11 -4q0 -3 -7 -9q-92 -74 -179 -209
q-97 -148 -97 -248q0 -115 102 -115q162 0 328 184q167 185 167 368q0 44 -18 72q-19 30 -53 30q-13 0 -31 -5l-12 -5h1q8 -21 8 -53q0 -101 -58 -192q-63 -97 -144 -97q-27 0 -44 20q-19 20 -19 56q0 74 55 156q56 83 136 132q-42 70 -132 70q-43 0 -73 -21
q-26 -20 -26 -40q0 -27 26 -27q2 0 6 2l5 2q7 0 7 -15q0 -17 -15 -29q-17 -14 -41 -14q-29 0 -48 18q-20 20 -20 47q0 49 45 86q51 42 135 42q117 0 176 -96q21 12 63 12q58 0 96 -44q0 -1 4 -5.5t6 -7.5q10 0 28 -8q24 -14 35 -9q26 8 17 36q-11 36 -59 27q3 33 22 34
q53 5 69 -52q9 -26 1 -57q-9 -37 -39 -46q-20 -6 -43 11q-1 1 -3.5 2.5t-3.5 2.5zM792 893q27 0 27 -26q0 -37 -66 -72q-59 -30 -98 -30q-13 0 -13 10l31 19q33 20 55 42q57 57 64 57z" />
    <glyph glyph-name="uni1EDB" unicode="&#x1edb;" horiz-adv-x="332" 
d="M158 150q0 20 15 37q15 15 35 15q24 0 37 -12q44 59 44 109q0 36 -37 36q-51 0 -118 -87q-68 -86 -68 -153q0 -42 41 -42q34 0 80 52q-29 17 -29 45zM327 297q-5 -56 -66 -152q54 -13 139 106q3 4 7 4q8 0 8 -27q0 -15 -12 -32q-82 -105 -179 -101q-82 -93 -160 -93
q-81 0 -81 81q0 87 88 184q91 103 185 103q30 0 46 -10q13 -2 24 -8q24 -14 35 -9q26 8 17 36q-11 36 -59 27q3 33 22 34q53 5 69 -52q9 -26 1 -57q-9 -37 -39 -46q-20 -6 -43 11q-1 1 -2 1zM349 564q27 0 27 -26q0 -38 -66 -72q-59 -30 -98 -30q-13 0 -13 10l31 19
q33 20 55 42q57 57 64 57z" />
    <glyph glyph-name="uni1EDC" unicode="&#x1edc;" horiz-adv-x="695" 
d="M529 616q-67 -44 -114 -120q-43 -70 -43 -119q0 -25 21 -25q47 0 94 75q46 73 46 149q0 25 -4 40zM750 585q4 -20 4 -47q0 -223 -164 -404q-173 -191 -411 -191q-178 0 -178 176q0 111 106 254q97 132 204 195q27 15 55 15q11 0 11 -4q0 -3 -7 -9q-92 -74 -179 -209
q-97 -148 -97 -248q0 -115 102 -115q162 0 328 184q167 185 167 368q0 44 -18 72q-19 30 -53 30q-13 0 -31 -5l-12 -5h1q8 -21 8 -53q0 -101 -58 -192q-63 -97 -144 -97q-27 0 -44 20q-19 20 -19 56q0 74 55 156q56 83 136 132q-42 70 -132 70q-43 0 -73 -21
q-26 -20 -26 -40q0 -27 26 -27q2 0 6 2l5 2q7 0 7 -15q0 -17 -15 -29q-17 -14 -41 -14q-29 0 -48 18q-20 20 -20 47q0 49 45 86q51 42 135 42q117 0 176 -96q21 12 63 12q58 0 96 -44q0 -1 4 -5.5t6 -7.5q10 0 28 -8q24 -14 35 -9q26 8 17 36q-11 36 -59 27q3 33 22 34
q53 5 69 -52q9 -26 1 -57q-9 -37 -39 -46q-20 -6 -43 11q-1 1 -3.5 2.5t-3.5 2.5zM605 909q16 0 28 -18q-1 0 2 -6l9.5 -19l15.5 -31q12 -21 30 -47l18 -24q0 -7 -9 -7q-21 0 -68 41q-51 45 -51 82q0 29 25 29z" />
    <glyph glyph-name="uni1EDD" unicode="&#x1edd;" horiz-adv-x="332" 
d="M158 150q0 20 15 37q15 15 35 15q24 0 37 -12q44 59 44 109q0 36 -37 36q-51 0 -118 -87q-68 -86 -68 -153q0 -42 41 -42q34 0 80 52q-29 17 -29 45zM327 297q-5 -56 -66 -152q54 -13 139 106q3 4 7 4q8 0 8 -27q0 -15 -12 -32q-82 -105 -179 -101q-82 -93 -160 -93
q-81 0 -81 81q0 87 88 184q91 103 185 103q30 0 46 -10q13 -2 24 -8q24 -14 35 -9q26 8 17 36q-11 36 -59 27q3 33 22 34q53 5 69 -52q9 -26 1 -57q-9 -37 -39 -46q-20 -6 -43 11q-1 1 -2 1zM189 572q16 0 28 -18q-1 0 2 -6l9.5 -19l15.5 -31q12 -21 30 -47l18 -24
q0 -7 -9 -7q-21 0 -68 41q-51 45 -51 82q0 29 25 29z" />
    <glyph glyph-name="uni1EDE" unicode="&#x1ede;" horiz-adv-x="695" 
d="M529 616q-67 -44 -114 -120q-43 -70 -43 -119q0 -25 21 -25q47 0 94 75q46 73 46 149q0 25 -4 40zM750 585q4 -20 4 -47q0 -223 -164 -404q-173 -191 -411 -191q-178 0 -178 176q0 111 106 254q97 132 204 195q27 15 55 15q11 0 11 -4q0 -3 -7 -9q-92 -74 -179 -209
q-97 -148 -97 -248q0 -115 102 -115q162 0 328 184q167 185 167 368q0 44 -18 72q-19 30 -53 30q-13 0 -31 -5l-12 -5h1q8 -21 8 -53q0 -101 -58 -192q-63 -97 -144 -97q-27 0 -44 20q-19 20 -19 56q0 74 55 156q56 83 136 132q-42 70 -132 70q-43 0 -73 -21
q-26 -20 -26 -40q0 -27 26 -27q2 0 6 2l5 2q7 0 7 -15q0 -17 -15 -29q-17 -14 -41 -14q-29 0 -48 18q-20 20 -20 47q0 49 45 86q51 42 135 42q117 0 176 -96q21 12 63 12q58 0 96 -44q0 -1 4 -5.5t6 -7.5q10 0 28 -8q24 -14 35 -9q26 8 17 36q-11 36 -59 27q3 33 22 34
q53 5 69 -52q9 -26 1 -57q-9 -37 -39 -46q-20 -6 -43 11q-1 1 -3.5 2.5t-3.5 2.5zM693 875l12 5q7 4 29 4q44 0 44 -36q0 -28 -42 -60q-38 -28 -73 -28q-23 0 -29 15q-1 2 -1 6q0 8 10 5h8q23 0 49 15q25 15 25 36q0 16 -17 16q-5 0 -17 -5q-13 -6 -17 -6q-13 0 -13 9
q0 2 1 3q20 17 31 21z" />
    <glyph glyph-name="uni1EDF" unicode="&#x1edf;" horiz-adv-x="332" 
d="M158 150q0 20 15 37q15 15 35 15q24 0 37 -12q44 59 44 109q0 36 -37 36q-51 0 -118 -87q-68 -86 -68 -153q0 -42 41 -42q34 0 80 52q-29 17 -29 45zM327 297q-5 -56 -66 -152q54 -13 139 106q3 4 7 4q8 0 8 -27q0 -15 -12 -32q-82 -105 -179 -101q-82 -93 -160 -93
q-81 0 -81 81q0 87 88 184q91 103 185 103q30 0 46 -10q13 -2 24 -8q24 -14 35 -9q26 8 17 36q-11 36 -59 27q3 33 22 34q53 5 69 -52q9 -26 1 -57q-9 -37 -39 -46q-20 -6 -43 11q-1 1 -2 1zM260 561l12 5q7 4 29 4q44 0 44 -36q0 -28 -42 -60q-38 -28 -73 -28q-23 0 -29 15
q-1 2 -1 6q0 8 10 5h8q24 0 49 15t25 36q0 16 -17 16q-5 0 -17 -5q-14 -6 -17 -6q-13 0 -13 9q0 2 1 3q20 17 31 21z" />
    <glyph glyph-name="uni1EE0" unicode="&#x1ee0;" horiz-adv-x="695" 
d="M529 616q-67 -44 -114 -120q-43 -70 -43 -119q0 -25 21 -25q47 0 94 75q46 73 46 149q0 25 -4 40zM750 585q4 -20 4 -47q0 -223 -164 -404q-173 -191 -411 -191q-178 0 -178 176q0 111 106 254q97 132 204 195q27 15 55 15q11 0 11 -4q0 -3 -7 -9q-92 -74 -179 -209
q-97 -148 -97 -248q0 -115 102 -115q162 0 328 184q167 185 167 368q0 44 -18 72q-19 30 -53 30q-13 0 -31 -5l-12 -5h1q8 -21 8 -53q0 -101 -58 -192q-63 -97 -144 -97q-27 0 -44 20q-19 20 -19 56q0 74 55 156q56 83 136 132q-42 70 -132 70q-43 0 -73 -21
q-26 -20 -26 -40q0 -27 26 -27q2 0 6 2l5 2q7 0 7 -15q0 -17 -15 -29q-17 -14 -41 -14q-29 0 -48 18q-20 20 -20 47q0 49 45 86q51 42 135 42q117 0 176 -96q21 12 63 12q58 0 96 -44q0 -1 4 -5.5t6 -7.5q10 0 28 -8q24 -14 35 -9q26 8 17 36q-11 36 -59 27q3 33 22 34
q53 5 69 -52q9 -26 1 -57q-9 -37 -39 -46q-20 -6 -43 11q-1 1 -3.5 2.5t-3.5 2.5zM586 836q-23 0 -45 -8q-4 -2 -10 -4l-9 -5q-2 0 -2 3q0 12 36 33q38 23 69 23q26 0 59 -16q34 -17 52 -17q31 0 54 19q22 17 20 17q4 -1 4 -5q0 -14 -28 -42q-34 -36 -74 -36q-23 0 -61 19
t-65 19z" />
    <glyph glyph-name="uni1EE1" unicode="&#x1ee1;" horiz-adv-x="332" 
d="M158 150q0 20 15 37q15 15 35 15q24 0 37 -12q44 59 44 109q0 36 -37 36q-51 0 -118 -87q-68 -86 -68 -153q0 -42 41 -42q34 0 80 52q-29 17 -29 45zM327 297q-5 -56 -66 -152q54 -13 139 106q3 4 7 4q8 0 8 -27q0 -15 -12 -32q-82 -105 -179 -101q-82 -93 -160 -93
q-81 0 -81 81q0 87 88 184q91 103 185 103q30 0 46 -10q13 -2 24 -8q24 -14 35 -9q26 8 17 36q-11 36 -59 27q3 33 22 34q53 5 69 -52q9 -26 1 -57q-9 -37 -39 -46q-20 -6 -43 11q-1 1 -2 1zM183 523q-23 0 -45 -8l-10 -5l-9 -4q-2 0 -2 3q0 12 36 33q38 23 69 23
q26 0 59 -16q34 -17 52 -17q31 0 54 19q22 17 20 17q4 -1 4 -5q0 -14 -28 -42q-35 -36 -74 -36q-23 0 -61 19t-65 19z" />
    <glyph glyph-name="uni1EE2" unicode="&#x1ee2;" horiz-adv-x="695" 
d="M529 616q-67 -44 -114 -120q-43 -70 -43 -119q0 -25 21 -25q47 0 94 75q46 73 46 149q0 25 -4 40zM750 585q4 -20 4 -47q0 -223 -164 -404q-173 -191 -411 -191q-178 0 -178 176q0 111 106 254q97 132 204 195q27 15 55 15q11 0 11 -4q0 -3 -7 -9q-92 -74 -179 -209
q-97 -148 -97 -248q0 -115 102 -115q162 0 328 184q167 185 167 368q0 44 -18 72q-19 30 -53 30q-13 0 -31 -5l-12 -5h1q8 -21 8 -53q0 -101 -58 -192q-63 -97 -144 -97q-27 0 -44 20q-19 20 -19 56q0 74 55 156q56 83 136 132q-42 70 -132 70q-43 0 -73 -21
q-26 -20 -26 -40q0 -27 26 -27q2 0 6 2l5 2q7 0 7 -15q0 -17 -15 -29q-17 -14 -41 -14q-29 0 -48 18q-20 20 -20 47q0 49 45 86q51 42 135 42q117 0 176 -96q21 12 63 12q58 0 96 -44q0 -1 4 -5.5t6 -7.5q10 0 28 -8q24 -14 35 -9q26 8 17 36q-11 36 -59 27q3 33 22 34
q53 5 69 -52q9 -26 1 -57q-9 -37 -39 -46q-20 -6 -43 11q-1 1 -3.5 2.5t-3.5 2.5zM129 -113q0 -21 -17 -41q-18 -21 -40 -21q-29 0 -29 27q0 24 18 43q19 19 43 19q25 0 25 -27z" />
    </font>
</defs>
</svg>
